{"glyphs":{"0":{"ha":911,"x_min":51,"x_max":860,"o":"m 456 -36 q 147 83 242 -36 q 51 436 51 203 q 147 789 51 669 q 456 908 242 908 q 765 789 669 908 q 860 436 860 669 q 765 83 860 203 q 456 -36 669 -36 m 456 125 q 621 202 572 125 q 669 436 669 279 q 621 670 669 593 q 456 747 572 747 q 290 670 339 747 q 242 436 242 593 q 290 202 242 279 q 456 125 339 125 z "},"1":{"ha":464,"x_min":51,"x_max":385,"o":"m 197 725 l 51 701 l 51 858 l 385 908 l 385 0 l 197 0 l 197 725 z "},"2":{"ha":713,"x_min":51,"x_max":661,"o":"m 51 90 q 139 223 85 163 q 283 364 193 283 l 319 396 q 412 484 385 456 q 451 542 439 513 q 463 618 463 572 q 421 715 463 682 q 299 747 379 747 q 83 704 192 747 l 83 869 q 205 898 135 888 q 340 908 275 908 q 573 833 493 908 q 653 622 653 757 q 613 474 653 538 q 490 339 572 410 l 468 319 q 365 226 406 265 q 296 144 324 186 l 661 144 l 661 0 l 51 0 l 51 90 z "},"3":{"ha":728,"x_min":51,"x_max":675,"o":"m 318 -14 q 176 -1 256 -14 q 51 29 97 11 l 51 193 q 290 147 158 147 q 438 176 392 147 q 485 274 485 204 q 444 358 485 332 q 321 383 403 383 l 181 383 l 194 521 l 311 521 q 429 548 392 521 q 467 633 467 575 q 424 720 467 692 q 289 749 381 749 q 172 737 231 749 q 67 704 113 725 l 67 864 q 183 896 113 883 q 321 908 253 908 q 570 840 483 908 q 657 660 657 772 q 626 534 657 590 q 535 453 594 478 q 640 380 606 432 q 675 254 675 328 q 579 53 675 121 q 318 -14 483 -14 z "},"4":{"ha":757,"x_min":24,"x_max":732,"o":"m 457 188 l 24 188 l 24 315 l 481 894 l 644 894 l 644 339 l 732 339 l 732 188 l 644 188 l 644 0 l 457 0 l 457 188 m 489 332 l 489 688 l 203 332 l 489 332 z "},"5":{"ha":719,"x_min":51,"x_max":667,"o":"m 315 -14 q 176 -3 250 -14 q 56 29 103 8 l 56 192 q 168 159 103 171 q 289 147 233 147 q 431 178 386 147 q 476 282 476 210 q 443 379 476 350 q 321 408 410 408 l 51 408 l 51 514 l 75 894 l 607 894 l 593 750 l 235 750 l 222 553 l 357 553 q 592 483 517 553 q 667 275 667 414 q 577 63 667 140 q 315 -14 488 -14 z "},"6":{"ha":803,"x_min":51,"x_max":751,"o":"m 403 -14 q 139 73 226 -14 q 51 338 51 160 l 51 529 q 99 726 51 640 q 237 860 147 813 q 446 908 326 908 q 565 900 514 908 q 665 875 617 892 l 665 714 q 458 749 578 749 q 287 700 346 749 q 228 567 228 651 l 228 524 q 330 571 271 554 q 442 588 389 588 q 675 511 599 588 q 751 290 751 435 q 665 68 751 150 q 403 -14 578 -14 m 404 125 q 538 167 492 125 q 583 283 583 210 q 543 404 583 364 q 407 444 503 444 q 315 428 363 444 q 228 385 268 411 l 228 300 q 404 125 228 125 z "},"7":{"ha":692,"x_min":38,"x_max":653,"o":"m 447 750 l 38 750 l 38 894 l 653 894 l 653 779 l 324 0 l 129 0 l 447 750 z "},"8":{"ha":829,"x_min":51,"x_max":776,"o":"m 414 -14 q 51 249 51 -14 q 90 380 51 322 q 196 463 128 438 q 106 538 136 489 q 75 647 75 588 q 160 839 75 769 q 414 908 244 908 q 670 840 588 908 q 753 647 753 771 q 722 532 753 583 q 628 453 692 481 q 776 249 776 400 q 414 -14 776 -14 m 450 510 q 547 557 518 528 q 575 643 575 586 q 535 733 575 704 q 414 761 496 761 q 292 733 332 761 q 253 643 253 706 q 278 566 253 594 q 358 528 304 538 l 450 510 m 414 132 q 553 160 508 132 q 599 251 599 189 q 569 333 599 307 q 468 374 540 358 l 361 396 q 263 350 296 381 q 229 257 229 319 q 274 161 229 190 q 414 132 319 132 z "},"9":{"ha":803,"x_min":51,"x_max":751,"o":"m 357 -14 q 238 -6 289 -14 q 138 19 186 3 l 138 181 q 344 146 225 146 q 516 194 457 146 q 575 328 575 243 l 575 371 q 473 324 532 340 q 361 307 414 307 q 128 383 204 307 q 51 604 51 460 q 138 826 51 744 q 400 908 225 908 q 664 822 576 908 q 751 557 751 735 l 751 365 q 703 168 751 254 q 566 34 656 82 q 357 -14 476 -14 m 396 450 q 488 467 440 450 q 575 510 535 483 l 575 594 q 399 769 575 769 q 265 727 311 769 q 219 611 219 685 q 260 490 219 531 q 396 450 300 450 z "},"\r":{"ha":556,"x_min":0,"x_max":0,"o":""}," ":{"ha":500,"x_min":0,"x_max":0,"o":""},"A":{"ha":990,"x_min":51,"x_max":939,"o":"m 393 894 l 599 894 l 939 0 l 744 0 l 660 215 l 331 215 l 247 0 l 51 0 l 393 894 m 632 360 l 494 719 l 358 360 l 632 360 z "},"Á":{"ha":990,"x_min":51,"x_max":939,"o":"m 524 1215 l 686 1215 l 564 956 l 413 956 l 524 1215 m 393 894 l 599 894 l 939 0 l 744 0 l 660 215 l 331 215 l 247 0 l 51 0 l 393 894 m 632 360 l 494 719 l 358 360 l 632 360 z "},"Ă":{"ha":990,"x_min":51,"x_max":939,"o":"m 494 956 q 336 1014 396 956 q 276 1174 276 1072 l 401 1174 q 426 1095 401 1126 q 494 1064 450 1064 q 565 1096 540 1064 q 590 1174 590 1128 l 715 1174 q 654 1014 715 1072 q 494 956 593 956 m 393 894 l 599 894 l 939 0 l 744 0 l 660 215 l 331 215 l 247 0 l 51 0 l 393 894 m 632 360 l 494 719 l 358 360 l 632 360 z "},"Ắ":{"ha":990,"x_min":51,"x_max":939,"o":"m 511 1332 l 653 1332 l 551 1136 l 419 1136 l 511 1332 m 496 956 q 329 1009 392 956 q 267 1172 267 1063 l 378 1172 q 408 1085 378 1115 q 496 1054 439 1054 q 582 1085 551 1054 q 613 1172 613 1115 l 724 1172 q 661 1009 724 1063 q 496 956 599 956 m 393 894 l 599 894 l 939 0 l 744 0 l 660 215 l 331 215 l 247 0 l 51 0 l 393 894 m 632 360 l 494 719 l 358 360 l 632 360 z "},"Ặ":{"ha":990,"x_min":51,"x_max":939,"o":"m 493 956 q 335 1014 394 956 q 275 1174 275 1072 l 400 1174 q 424 1095 400 1126 q 493 1064 449 1064 q 564 1096 539 1064 q 589 1174 589 1128 l 714 1174 q 653 1014 714 1072 q 493 956 592 956 m 393 894 l 599 894 l 939 0 l 744 0 l 660 215 l 331 215 l 247 0 l 51 0 l 393 894 m 632 360 l 494 719 l 358 360 l 632 360 m 421 -114 l 569 -114 l 569 -251 l 421 -251 l 421 -114 z "},"Ằ":{"ha":990,"x_min":51,"x_max":939,"o":"m 338 1332 l 479 1332 l 571 1136 l 439 1136 l 338 1332 m 494 956 q 329 1009 392 956 q 267 1172 267 1063 l 378 1172 q 408 1085 378 1115 q 494 1054 439 1054 q 582 1085 551 1054 q 613 1172 613 1115 l 724 1172 q 661 1009 724 1063 q 494 956 599 956 m 393 894 l 599 894 l 939 0 l 744 0 l 660 215 l 331 215 l 247 0 l 51 0 l 393 894 m 632 360 l 494 719 l 358 360 l 632 360 z "},"Ẳ":{"ha":990,"x_min":51,"x_max":939,"o":"m 426 1232 q 512 1249 488 1235 q 536 1289 536 1263 q 520 1324 536 1314 q 467 1333 504 1333 q 392 1317 429 1333 l 392 1396 q 514 1413 444 1413 q 622 1383 583 1413 q 660 1301 660 1353 q 635 1230 660 1256 q 554 1193 611 1204 l 554 1149 l 426 1149 l 426 1232 m 496 956 q 329 1009 392 956 q 267 1172 267 1063 l 378 1172 q 408 1085 378 1115 q 496 1054 439 1054 q 582 1085 551 1054 q 613 1172 613 1115 l 724 1172 q 661 1009 724 1063 q 496 956 599 956 m 393 894 l 599 894 l 939 0 l 744 0 l 660 215 l 331 215 l 247 0 l 51 0 l 393 894 m 632 360 l 494 719 l 358 360 l 632 360 z "},"Ẵ":{"ha":990,"x_min":51,"x_max":939,"o":"m 615 1201 q 561 1208 588 1201 q 493 1231 535 1215 q 392 1257 428 1257 q 267 1206 314 1257 l 267 1325 q 319 1356 286 1344 q 388 1368 351 1368 q 444 1360 417 1368 q 504 1339 471 1353 q 565 1319 543 1325 q 611 1313 586 1313 q 726 1365 689 1313 l 726 1246 q 683 1214 713 1226 q 615 1201 653 1201 m 496 956 q 329 1009 392 956 q 267 1172 267 1063 l 378 1172 q 408 1085 378 1115 q 496 1054 439 1054 q 582 1085 551 1054 q 613 1172 613 1115 l 724 1172 q 661 1009 724 1063 q 496 956 599 956 m 393 894 l 599 894 l 939 0 l 744 0 l 660 215 l 331 215 l 247 0 l 51 0 l 393 894 m 632 360 l 494 719 l 358 360 l 632 360 z "},"Ǎ":{"ha":990,"x_min":51,"x_max":939,"o":"m 247 1197 l 394 1197 l 494 1058 l 597 1197 l 742 1197 l 554 956 l 435 956 l 247 1197 m 393 894 l 599 894 l 939 0 l 744 0 l 660 215 l 331 215 l 247 0 l 51 0 l 393 894 m 632 360 l 494 719 l 358 360 l 632 360 z "},"Â":{"ha":990,"x_min":51,"x_max":939,"o":"m 435 1197 l 554 1197 l 742 956 l 597 956 l 494 1094 l 394 956 l 247 956 l 435 1197 m 393 894 l 599 894 l 939 0 l 744 0 l 660 215 l 331 215 l 247 0 l 51 0 l 393 894 m 632 360 l 494 719 l 358 360 l 632 360 z "},"Ấ":{"ha":990,"x_min":51,"x_max":939,"o":"m 721 1314 l 863 1314 l 761 1118 l 629 1118 l 721 1314 m 417 1143 l 560 1143 l 735 956 l 583 956 l 489 1068 l 396 956 l 242 956 l 417 1143 m 393 894 l 599 894 l 939 0 l 744 0 l 660 215 l 331 215 l 247 0 l 51 0 l 393 894 m 632 360 l 494 719 l 358 360 l 632 360 z "},"Ậ":{"ha":990,"x_min":51,"x_max":939,"o":"m 435 1197 l 554 1197 l 742 956 l 597 956 l 494 1094 l 394 956 l 247 956 l 435 1197 m 393 894 l 599 894 l 939 0 l 744 0 l 660 215 l 331 215 l 247 0 l 51 0 l 393 894 m 632 360 l 494 719 l 358 360 l 632 360 m 421 -114 l 569 -114 l 569 -251 l 421 -251 l 421 -114 z "},"Ầ":{"ha":990,"x_min":51,"x_max":939,"o":"m 119 1314 l 261 1314 l 353 1118 l 221 1118 l 119 1314 m 422 1143 l 565 1143 l 740 956 l 586 956 l 493 1068 l 399 956 l 247 956 l 422 1143 m 393 894 l 599 894 l 939 0 l 744 0 l 660 215 l 331 215 l 247 0 l 51 0 l 393 894 m 632 360 l 494 719 l 358 360 l 632 360 z "},"Ẩ":{"ha":990,"x_min":51,"x_max":939,"o":"m 647 1185 q 731 1199 710 1188 q 751 1233 751 1210 q 736 1263 751 1254 q 689 1271 721 1271 q 614 1254 650 1271 l 614 1340 q 729 1357 664 1357 q 842 1326 801 1357 q 882 1244 882 1296 q 776 1135 882 1150 l 776 1088 l 647 1088 l 647 1185 m 422 1143 l 565 1143 l 740 956 l 589 956 l 494 1068 l 401 956 l 247 956 l 422 1143 m 393 894 l 599 894 l 939 0 l 744 0 l 660 215 l 331 215 l 247 0 l 51 0 l 393 894 m 632 360 l 494 719 l 358 360 l 632 360 z "},"Ẫ":{"ha":990,"x_min":51,"x_max":939,"o":"m 625 1164 q 571 1171 597 1164 q 503 1193 544 1178 q 401 1219 436 1219 q 276 1168 324 1219 l 276 1288 q 328 1319 296 1307 q 397 1331 361 1331 q 453 1323 426 1331 q 514 1301 481 1315 q 574 1281 553 1288 q 621 1275 596 1275 q 736 1328 699 1275 l 736 1208 q 692 1176 722 1189 q 625 1164 663 1164 m 422 1143 l 565 1143 l 740 956 l 589 956 l 494 1068 l 401 956 l 247 956 l 422 1143 m 393 894 l 599 894 l 939 0 l 744 0 l 660 215 l 331 215 l 247 0 l 51 0 l 393 894 m 632 360 l 494 719 l 358 360 l 632 360 z "},"Ä":{"ha":990,"x_min":51,"x_max":939,"o":"m 285 1125 l 432 1125 l 432 989 l 285 989 l 285 1125 m 557 1125 l 704 1125 l 704 989 l 557 989 l 557 1125 m 393 894 l 599 894 l 939 0 l 744 0 l 660 215 l 331 215 l 247 0 l 51 0 l 393 894 m 632 360 l 494 719 l 358 360 l 632 360 z "},"Ạ":{"ha":990,"x_min":51,"x_max":939,"o":"m 393 894 l 599 894 l 939 0 l 744 0 l 660 215 l 331 215 l 247 0 l 51 0 l 393 894 m 632 360 l 494 719 l 358 360 l 632 360 m 421 -114 l 569 -114 l 569 -251 l 421 -251 l 421 -114 z "},"À":{"ha":990,"x_min":51,"x_max":939,"o":"m 294 1215 l 457 1215 l 568 956 l 417 956 l 294 1215 m 393 894 l 599 894 l 939 0 l 744 0 l 660 215 l 331 215 l 247 0 l 51 0 l 393 894 m 632 360 l 494 719 l 358 360 l 632 360 z "},"Ả":{"ha":990,"x_min":51,"x_max":939,"o":"m 426 1068 q 526 1087 500 1072 q 551 1135 551 1101 q 456 1189 551 1189 q 410 1185 435 1189 q 369 1174 385 1181 l 369 1267 q 508 1285 424 1285 q 643 1249 596 1285 q 690 1151 690 1213 q 663 1063 690 1093 q 569 1019 636 1032 l 569 956 l 426 956 l 426 1068 m 393 894 l 599 894 l 939 0 l 744 0 l 660 215 l 331 215 l 247 0 l 51 0 l 393 894 m 632 360 l 494 719 l 358 360 l 632 360 z "},"Ā":{"ha":990,"x_min":51,"x_max":939,"o":"m 281 1097 l 708 1097 l 708 982 l 281 982 l 281 1097 m 393 894 l 599 894 l 939 0 l 744 0 l 660 215 l 331 215 l 247 0 l 51 0 l 393 894 m 632 360 l 494 719 l 358 360 l 632 360 z "},"Ą":{"ha":990,"x_min":51,"x_max":951,"o":"m 883 -196 q 951 -181 925 -196 l 951 -286 q 899 -300 932 -294 q 833 -306 867 -306 q 719 -273 765 -306 q 674 -179 674 -240 q 700 -80 674 -126 q 775 0 726 -33 l 744 0 l 660 215 l 331 215 l 247 0 l 51 0 l 393 894 l 599 894 l 939 0 l 914 0 q 821 -144 821 -69 q 883 -196 821 -196 m 632 360 l 494 719 l 358 360 l 632 360 z "},"Å":{"ha":990,"x_min":51,"x_max":939,"o":"m 939 0 l 744 0 l 660 215 l 331 215 l 247 0 l 51 0 l 381 863 q 338 919 353 886 q 322 992 322 953 q 369 1110 322 1063 q 494 1158 417 1158 q 621 1111 574 1158 q 668 992 668 1064 q 610 864 668 911 l 939 0 m 494 1071 q 436 1048 458 1071 q 414 992 414 1025 q 436 935 414 958 q 494 913 458 913 q 554 935 532 913 q 576 992 576 957 q 554 1049 576 1026 q 494 1071 532 1071 m 632 360 l 494 719 l 358 360 l 632 360 z "},"Ǻ":{"ha":990,"x_min":51,"x_max":939,"o":"m 558 1186 l 407 1186 l 518 1446 l 681 1446 l 558 1186 m 939 0 l 744 0 l 660 215 l 331 215 l 247 0 l 51 0 l 381 863 q 338 919 353 886 q 322 992 322 953 q 369 1110 322 1063 q 494 1158 417 1158 q 621 1111 574 1158 q 668 992 668 1064 q 610 864 668 911 l 939 0 m 494 1071 q 436 1048 458 1071 q 414 992 414 1025 q 436 935 414 958 q 494 913 458 913 q 554 935 532 913 q 576 992 576 957 q 554 1049 576 1026 q 494 1071 532 1071 m 632 360 l 494 719 l 358 360 l 632 360 z "},"Ã":{"ha":990,"x_min":51,"x_max":939,"o":"m 614 957 q 560 964 586 957 q 492 986 533 971 q 390 1013 426 1013 q 265 961 313 1013 l 265 1094 q 317 1126 285 1114 q 386 1138 350 1138 q 442 1130 415 1138 q 503 1108 469 1122 q 563 1088 542 1094 q 610 1082 585 1082 q 725 1135 688 1082 l 725 1001 q 681 969 711 982 q 614 957 651 957 m 393 894 l 599 894 l 939 0 l 744 0 l 660 215 l 331 215 l 247 0 l 51 0 l 393 894 m 632 360 l 494 719 l 358 360 l 632 360 z "},"Æ":{"ha":1179,"x_min":51,"x_max":1128,"o":"m 393 894 l 1128 894 l 1128 749 l 747 749 l 747 519 l 1076 519 l 1076 375 l 747 375 l 747 144 l 1128 144 l 1128 0 l 560 0 l 560 217 l 338 217 l 254 0 l 51 0 l 393 894 m 560 361 l 560 756 l 524 756 l 381 361 l 560 361 z "},"Ǽ":{"ha":1179,"x_min":51,"x_max":1128,"o":"m 696 1215 l 858 1215 l 736 956 l 585 956 l 696 1215 m 393 894 l 1128 894 l 1128 749 l 747 749 l 747 519 l 1076 519 l 1076 375 l 747 375 l 747 144 l 1128 144 l 1128 0 l 560 0 l 560 217 l 338 217 l 254 0 l 51 0 l 393 894 m 560 361 l 560 756 l 524 756 l 381 361 l 560 361 z "},"B":{"ha":883,"x_min":79,"x_max":832,"o":"m 79 894 l 532 894 q 732 832 665 894 q 799 653 799 769 q 772 534 799 583 q 696 458 744 485 q 797 391 763 438 q 832 261 832 344 q 759 66 832 132 q 549 0 686 0 l 79 0 l 79 894 m 497 524 q 624 638 624 524 q 592 727 624 699 q 483 756 561 756 l 267 756 l 267 524 l 497 524 m 504 138 q 609 167 576 138 q 642 269 642 197 q 608 359 642 331 q 492 388 574 388 l 267 388 l 267 138 l 504 138 z "},"C":{"ha":833,"x_min":51,"x_max":782,"o":"m 515 -14 q 172 106 293 -14 q 51 439 51 226 q 169 786 51 664 q 514 908 286 908 q 781 864 658 908 l 781 700 q 528 749 663 749 q 309 673 376 749 q 242 439 242 597 q 313 217 242 290 q 531 144 385 144 q 782 192 667 144 l 782 26 q 515 -14 658 -14 z "},"Ć":{"ha":833,"x_min":51,"x_max":782,"o":"m 531 1215 l 693 1215 l 571 956 l 419 956 l 531 1215 m 515 -14 q 172 106 293 -14 q 51 439 51 226 q 169 786 51 664 q 514 908 286 908 q 781 864 658 908 l 781 700 q 528 749 663 749 q 309 673 376 749 q 242 439 242 597 q 313 217 242 290 q 531 144 385 144 q 782 192 667 144 l 782 26 q 515 -14 658 -14 z "},"Č":{"ha":833,"x_min":51,"x_max":782,"o":"m 271 1197 l 418 1197 l 518 1058 l 621 1197 l 765 1197 l 578 956 l 458 956 l 271 1197 m 515 -14 q 172 106 293 -14 q 51 439 51 226 q 169 786 51 664 q 514 908 286 908 q 781 864 658 908 l 781 700 q 528 749 663 749 q 309 673 376 749 q 242 439 242 597 q 313 217 242 290 q 531 144 385 144 q 782 192 667 144 l 782 26 q 515 -14 658 -14 z "},"Ç":{"ha":833,"x_min":51,"x_max":782,"o":"m 782 26 q 564 -12 681 -7 l 547 -62 q 657 -96 619 -62 q 694 -189 694 -129 q 483 -333 694 -333 q 426 -330 460 -333 q 378 -322 393 -326 l 378 -228 q 463 -239 418 -239 q 550 -229 526 -239 q 574 -187 574 -219 q 549 -145 574 -154 q 467 -136 524 -136 l 406 -136 l 443 -10 q 153 127 254 8 q 51 439 51 246 q 169 786 51 664 q 514 908 286 908 q 781 864 658 908 l 781 700 q 528 749 663 749 q 309 673 376 749 q 242 439 242 597 q 313 217 242 290 q 531 144 385 144 q 782 192 667 144 l 782 26 z "},"Ĉ":{"ha":833,"x_min":51,"x_max":782,"o":"m 417 1197 l 536 1197 l 724 956 l 579 956 l 476 1094 l 376 956 l 229 956 l 417 1197 m 515 -14 q 172 106 293 -14 q 51 439 51 226 q 169 786 51 664 q 514 908 286 908 q 781 864 658 908 l 781 700 q 528 749 663 749 q 309 673 376 749 q 242 439 242 597 q 313 217 242 290 q 531 144 385 144 q 782 192 667 144 l 782 26 q 515 -14 658 -14 z "},"Ċ":{"ha":833,"x_min":51,"x_max":782,"o":"m 422 1126 l 568 1126 l 568 990 l 422 990 l 422 1126 m 515 -14 q 172 106 293 -14 q 51 439 51 226 q 169 786 51 664 q 514 908 286 908 q 781 864 658 908 l 781 700 q 528 749 663 749 q 309 673 376 749 q 242 439 242 597 q 313 217 242 290 q 531 144 385 144 q 782 192 667 144 l 782 26 q 515 -14 658 -14 z "},"D":{"ha":911,"x_min":79,"x_max":860,"o":"m 79 894 l 454 894 q 760 788 660 894 q 860 443 860 682 q 760 108 860 215 q 454 0 660 0 l 79 0 l 79 894 m 428 144 q 564 169 513 144 q 642 260 615 194 q 669 443 669 325 q 645 626 669 563 q 569 715 621 690 q 428 739 518 739 l 267 739 l 267 144 l 428 144 z "},"Ð":{"ha":978,"x_min":51,"x_max":926,"o":"m 146 367 l 51 367 l 51 511 l 146 511 l 146 894 l 521 894 q 826 788 726 894 q 926 443 926 682 q 826 108 926 215 q 521 0 726 0 l 146 0 l 146 367 m 494 144 q 631 169 579 144 q 709 260 682 194 q 736 443 736 325 q 712 626 736 563 q 636 715 688 690 q 494 739 585 739 l 333 739 l 333 511 l 540 511 l 540 367 l 333 367 l 333 144 l 494 144 z "},"Ď":{"ha":911,"x_min":79,"x_max":860,"o":"m 179 1228 l 326 1228 l 426 1089 l 529 1228 l 674 1228 l 486 986 l 367 986 l 179 1228 m 79 894 l 454 894 q 760 788 660 894 q 860 443 860 682 q 760 108 860 215 q 454 0 660 0 l 79 0 l 79 894 m 428 144 q 564 169 513 144 q 642 260 615 194 q 669 443 669 325 q 645 626 669 563 q 569 715 621 690 q 428 739 518 739 l 267 739 l 267 144 l 428 144 z "},"Đ":{"ha":964,"x_min":38,"x_max":913,"o":"m 132 367 l 38 367 l 38 511 l 132 511 l 132 894 l 507 894 q 813 788 713 894 q 913 443 913 682 q 813 108 913 215 q 507 0 713 0 l 132 0 l 132 367 m 481 144 q 617 169 565 144 q 695 260 668 194 q 722 443 722 325 q 698 626 722 563 q 622 715 674 690 q 481 739 571 739 l 319 739 l 319 511 l 526 511 l 526 367 l 319 367 l 319 144 l 481 144 z "},"Ḍ":{"ha":911,"x_min":79,"x_max":860,"o":"m 79 894 l 454 894 q 760 788 660 894 q 860 443 860 682 q 760 108 860 215 q 454 0 660 0 l 79 0 l 79 894 m 428 144 q 564 169 513 144 q 642 260 615 194 q 669 443 669 325 q 645 626 669 563 q 569 715 621 690 q 428 739 518 739 l 267 739 l 267 144 l 428 144 m 371 -114 l 519 -114 l 519 -251 l 371 -251 l 371 -114 z "},"Ḏ":{"ha":911,"x_min":79,"x_max":860,"o":"m 79 894 l 454 894 q 760 788 660 894 q 860 443 860 682 q 760 108 860 215 q 454 0 660 0 l 79 0 l 79 894 m 428 144 q 564 169 513 144 q 642 260 615 194 q 669 443 669 325 q 645 626 669 563 q 569 715 621 690 q 428 739 518 739 l 267 739 l 267 144 l 428 144 m 172 -137 l 600 -137 l 600 -253 l 172 -253 l 172 -137 z "},"E":{"ha":772,"x_min":79,"x_max":721,"o":"m 79 894 l 721 894 l 721 749 l 267 749 l 267 519 l 669 519 l 669 375 l 267 375 l 267 144 l 721 144 l 721 0 l 79 0 l 79 894 z "},"É":{"ha":772,"x_min":79,"x_max":721,"o":"m 419 1215 l 582 1215 l 460 956 l 308 956 l 419 1215 m 79 894 l 721 894 l 721 749 l 267 749 l 267 519 l 669 519 l 669 375 l 267 375 l 267 144 l 721 144 l 721 0 l 79 0 l 79 894 z "},"Ĕ":{"ha":772,"x_min":79,"x_max":721,"o":"m 410 956 q 251 1014 311 956 q 192 1174 192 1072 l 317 1174 q 341 1095 317 1126 q 410 1064 365 1064 q 481 1096 456 1064 q 506 1174 506 1128 l 631 1174 q 569 1014 631 1072 q 410 956 508 956 m 79 894 l 721 894 l 721 749 l 267 749 l 267 519 l 669 519 l 669 375 l 267 375 l 267 144 l 721 144 l 721 0 l 79 0 l 79 894 z "},"Ě":{"ha":772,"x_min":79,"x_max":721,"o":"m 165 1197 l 313 1197 l 413 1058 l 515 1197 l 660 1197 l 472 956 l 353 956 l 165 1197 m 79 894 l 721 894 l 721 749 l 267 749 l 267 519 l 669 519 l 669 375 l 267 375 l 267 144 l 721 144 l 721 0 l 79 0 l 79 894 z "},"Ê":{"ha":772,"x_min":79,"x_max":721,"o":"m 339 1197 l 458 1197 l 646 956 l 501 956 l 399 1094 l 299 956 l 151 956 l 339 1197 m 79 894 l 721 894 l 721 749 l 267 749 l 267 519 l 669 519 l 669 375 l 267 375 l 267 144 l 721 144 l 721 0 l 79 0 l 79 894 z "},"Ế":{"ha":765,"x_min":79,"x_max":776,"o":"m 635 1313 l 776 1313 l 675 1117 l 543 1117 l 635 1313 m 331 1142 l 474 1142 l 649 954 l 497 954 l 403 1067 l 310 954 l 156 954 l 331 1142 m 79 894 l 721 894 l 721 749 l 267 749 l 267 519 l 669 519 l 669 375 l 267 375 l 267 144 l 721 144 l 721 0 l 79 0 l 79 894 z "},"Ệ":{"ha":772,"x_min":79,"x_max":721,"o":"m 333 1197 l 453 1197 l 640 956 l 496 956 l 393 1094 l 293 956 l 146 956 l 333 1197 m 79 894 l 721 894 l 721 749 l 267 749 l 267 519 l 669 519 l 669 375 l 267 375 l 267 144 l 721 144 l 721 0 l 79 0 l 79 894 m 319 -114 l 468 -114 l 468 -251 l 319 -251 l 319 -114 z "},"Ề":{"ha":772,"x_min":31,"x_max":721,"o":"m 31 1313 l 172 1313 l 264 1117 l 132 1117 l 31 1313 m 333 1142 l 476 1142 l 651 954 l 497 954 l 404 1067 l 310 954 l 158 954 l 333 1142 m 79 894 l 721 894 l 721 749 l 267 749 l 267 519 l 669 519 l 669 375 l 267 375 l 267 144 l 721 144 l 721 0 l 79 0 l 79 894 z "},"Ể":{"ha":765,"x_min":79,"x_max":790,"o":"m 556 1183 q 639 1197 618 1186 q 660 1232 660 1208 q 644 1261 660 1253 q 597 1269 629 1269 q 522 1253 558 1269 l 522 1339 q 638 1356 572 1356 q 750 1325 710 1356 q 790 1243 790 1294 q 685 1133 790 1149 l 685 1086 l 556 1086 l 556 1183 m 331 1142 l 474 1142 l 649 954 l 497 954 l 403 1067 l 310 954 l 156 954 l 331 1142 m 79 894 l 721 894 l 721 749 l 267 749 l 267 519 l 669 519 l 669 375 l 267 375 l 267 144 l 721 144 l 721 0 l 79 0 l 79 894 z "},"Ễ":{"ha":772,"x_min":79,"x_max":721,"o":"m 535 1163 q 481 1169 507 1163 q 413 1192 454 1176 q 311 1218 346 1218 q 186 1167 233 1218 l 186 1286 q 238 1317 206 1306 q 307 1329 271 1329 q 363 1322 336 1329 q 424 1300 390 1314 q 484 1280 463 1286 q 531 1274 506 1274 q 646 1326 608 1274 l 646 1207 q 602 1175 632 1188 q 535 1163 572 1163 m 332 1142 l 475 1142 l 650 954 l 499 954 l 404 1067 l 311 954 l 157 954 l 332 1142 m 79 894 l 721 894 l 721 749 l 267 749 l 267 519 l 669 519 l 669 375 l 267 375 l 267 144 l 721 144 l 721 0 l 79 0 l 79 894 z "},"Ë":{"ha":772,"x_min":79,"x_max":721,"o":"m 196 1126 l 343 1126 l 343 990 l 196 990 l 196 1126 m 468 1126 l 615 1126 l 615 990 l 468 990 l 468 1126 m 79 894 l 721 894 l 721 749 l 267 749 l 267 519 l 669 519 l 669 375 l 267 375 l 267 144 l 721 144 l 721 0 l 79 0 l 79 894 z "},"Ė":{"ha":772,"x_min":79,"x_max":721,"o":"m 328 1126 l 474 1126 l 474 990 l 328 990 l 328 1126 m 79 894 l 721 894 l 721 749 l 267 749 l 267 519 l 669 519 l 669 375 l 267 375 l 267 144 l 721 144 l 721 0 l 79 0 l 79 894 z "},"Ẹ":{"ha":772,"x_min":79,"x_max":721,"o":"m 79 894 l 721 894 l 721 749 l 267 749 l 267 519 l 669 519 l 669 375 l 267 375 l 267 144 l 721 144 l 721 0 l 79 0 l 79 894 m 321 -114 l 469 -114 l 469 -251 l 321 -251 l 321 -114 z "},"È":{"ha":772,"x_min":79,"x_max":721,"o":"m 224 1215 l 386 1215 l 497 956 l 346 956 l 224 1215 m 79 894 l 721 894 l 721 749 l 267 749 l 267 519 l 669 519 l 669 375 l 267 375 l 267 144 l 721 144 l 721 0 l 79 0 l 79 894 z "},"Ẻ":{"ha":772,"x_min":79,"x_max":721,"o":"m 326 1067 q 426 1085 400 1071 q 451 1133 451 1100 q 356 1188 451 1188 q 310 1183 335 1188 q 269 1172 285 1179 l 269 1265 q 408 1283 324 1283 q 543 1247 496 1283 q 590 1150 590 1211 q 563 1061 590 1092 q 469 1018 536 1031 l 469 954 l 326 954 l 326 1067 m 79 894 l 721 894 l 721 749 l 267 749 l 267 519 l 669 519 l 669 375 l 267 375 l 267 144 l 721 144 l 721 0 l 79 0 l 79 894 z "},"Ē":{"ha":772,"x_min":79,"x_max":721,"o":"m 178 1118 l 606 1118 l 606 1003 l 178 1003 l 178 1118 m 79 894 l 721 894 l 721 749 l 267 749 l 267 519 l 669 519 l 669 375 l 267 375 l 267 144 l 721 144 l 721 0 l 79 0 l 79 894 z "},"Ę":{"ha":772,"x_min":79,"x_max":721,"o":"m 267 749 l 267 519 l 669 519 l 669 375 l 267 375 l 267 144 l 721 144 l 721 0 l 661 0 q 568 -144 568 -69 q 631 -196 568 -196 q 699 -181 672 -196 l 699 -286 q 647 -300 679 -294 q 581 -306 614 -306 q 467 -273 513 -306 q 421 -179 421 -240 q 447 -80 421 -126 q 522 0 474 -33 l 79 0 l 79 894 l 721 894 l 721 749 l 267 749 z "},"Ẽ":{"ha":772,"x_min":79,"x_max":721,"o":"m 519 972 q 465 979 492 972 q 397 1001 439 986 q 296 1028 331 1028 q 171 976 218 1028 l 171 1110 q 223 1141 190 1129 q 292 1153 256 1153 q 348 1145 321 1153 q 408 1124 375 1138 q 469 1103 447 1110 q 515 1097 490 1097 q 631 1150 593 1097 l 631 1017 q 587 985 617 997 q 519 972 557 972 m 79 894 l 721 894 l 721 749 l 267 749 l 267 519 l 669 519 l 669 375 l 267 375 l 267 144 l 721 144 l 721 0 l 79 0 l 79 894 z "},"F":{"ha":732,"x_min":79,"x_max":708,"o":"m 79 894 l 708 894 l 708 749 l 267 749 l 267 519 l 657 519 l 657 375 l 267 375 l 267 0 l 79 0 l 79 894 z "},"G":{"ha":894,"x_min":51,"x_max":843,"o":"m 510 -14 q 169 103 288 -14 q 51 432 51 221 q 172 783 51 657 q 521 908 292 908 q 790 871 674 908 l 790 710 q 535 749 682 749 q 310 672 378 749 q 242 432 242 594 q 513 144 242 144 q 685 172 606 144 l 685 381 l 476 381 l 476 500 l 843 500 l 843 63 q 707 8 790 29 q 510 -14 624 -14 z "},"Ğ":{"ha":894,"x_min":51,"x_max":843,"o":"m 511 956 q 353 1014 413 956 q 293 1174 293 1072 l 418 1174 q 442 1095 418 1126 q 511 1064 467 1064 q 582 1096 557 1064 q 607 1174 607 1128 l 732 1174 q 671 1014 732 1072 q 511 956 610 956 m 510 -14 q 169 103 288 -14 q 51 432 51 221 q 172 783 51 657 q 521 908 292 908 q 790 871 674 908 l 790 710 q 535 749 682 749 q 310 672 378 749 q 242 432 242 594 q 513 144 242 144 q 685 172 606 144 l 685 381 l 476 381 l 476 500 l 843 500 l 843 63 q 707 8 790 29 q 510 -14 624 -14 z "},"Ǧ":{"ha":894,"x_min":51,"x_max":843,"o":"m 263 1196 l 410 1196 l 510 1057 l 613 1196 l 757 1196 l 569 954 l 450 954 l 263 1196 m 510 -14 q 169 103 288 -14 q 51 432 51 221 q 172 783 51 657 q 521 908 292 908 q 790 871 674 908 l 790 710 q 535 749 682 749 q 310 672 378 749 q 242 432 242 594 q 513 144 242 144 q 685 172 606 144 l 685 381 l 476 381 l 476 500 l 843 500 l 843 63 q 707 8 790 29 q 510 -14 624 -14 z "},"Ĝ":{"ha":894,"x_min":51,"x_max":843,"o":"m 440 1197 l 560 1197 l 747 956 l 603 956 l 500 1094 l 400 956 l 253 956 l 440 1197 m 510 -14 q 169 103 288 -14 q 51 432 51 221 q 172 783 51 657 q 521 908 292 908 q 790 871 674 908 l 790 710 q 535 749 682 749 q 310 672 378 749 q 242 432 242 594 q 513 144 242 144 q 685 172 606 144 l 685 381 l 476 381 l 476 500 l 843 500 l 843 63 q 707 8 790 29 q 510 -14 624 -14 z "},"Ģ":{"ha":894,"x_min":51,"x_max":843,"o":"m 510 -14 q 169 103 288 -14 q 51 432 51 221 q 172 783 51 657 q 521 908 292 908 q 790 871 674 908 l 790 710 q 535 749 682 749 q 310 672 378 749 q 242 432 242 594 q 513 144 242 144 q 685 172 606 144 l 685 381 l 476 381 l 476 500 l 843 500 l 843 63 q 707 8 790 29 q 510 -14 624 -14 m 454 -51 l 601 -51 l 532 -331 l 411 -331 l 454 -51 z "},"Ġ":{"ha":894,"x_min":51,"x_max":843,"o":"m 447 1126 l 593 1126 l 593 990 l 447 990 l 447 1126 m 510 -14 q 169 103 288 -14 q 51 432 51 221 q 172 783 51 657 q 521 908 292 908 q 790 871 674 908 l 790 710 q 535 749 682 749 q 310 672 378 749 q 242 432 242 594 q 513 144 242 144 q 685 172 606 144 l 685 381 l 476 381 l 476 500 l 843 500 l 843 63 q 707 8 790 29 q 510 -14 624 -14 z "},"Ḡ":{"ha":894,"x_min":51,"x_max":843,"o":"m 303 1111 l 731 1111 l 731 996 l 303 996 l 303 1111 m 510 -14 q 169 103 288 -14 q 51 432 51 221 q 172 783 51 657 q 521 908 292 908 q 790 871 674 908 l 790 710 q 535 749 682 749 q 310 672 378 749 q 242 432 242 594 q 513 144 242 144 q 685 172 606 144 l 685 381 l 476 381 l 476 500 l 843 500 l 843 63 q 707 8 790 29 q 510 -14 624 -14 z "},"H":{"ha":924,"x_min":79,"x_max":844,"o":"m 79 894 l 267 894 l 267 519 l 657 519 l 657 894 l 844 894 l 844 0 l 657 0 l 657 375 l 267 375 l 267 0 l 79 0 l 79 894 z "},"Ħ":{"ha":925,"x_min":22,"x_max":903,"o":"m 903 626 l 844 626 l 844 0 l 657 0 l 657 375 l 267 375 l 267 0 l 79 0 l 79 626 l 22 626 l 22 772 l 79 772 l 79 894 l 267 894 l 267 772 l 657 772 l 657 894 l 844 894 l 844 772 l 903 772 l 903 626 m 657 626 l 267 626 l 267 519 l 657 519 l 657 626 z "},"Ḫ":{"ha":924,"x_min":79,"x_max":844,"o":"m 79 894 l 267 894 l 267 519 l 657 519 l 657 894 l 844 894 l 844 0 l 657 0 l 657 375 l 267 375 l 267 0 l 79 0 l 79 894 m 458 -301 q 300 -243 360 -301 q 240 -83 240 -185 l 365 -83 q 390 -162 365 -131 q 458 -193 414 -193 q 529 -162 504 -193 q 554 -83 554 -131 l 679 -83 q 618 -243 679 -185 q 458 -301 557 -301 z "},"Ĥ":{"ha":924,"x_min":79,"x_max":844,"o":"m 401 1197 l 521 1197 l 708 956 l 564 956 l 461 1094 l 361 956 l 214 956 l 401 1197 m 79 894 l 267 894 l 267 519 l 657 519 l 657 894 l 844 894 l 844 0 l 657 0 l 657 375 l 267 375 l 267 0 l 79 0 l 79 894 z "},"Ḥ":{"ha":924,"x_min":79,"x_max":844,"o":"m 79 894 l 267 894 l 267 519 l 657 519 l 657 894 l 844 894 l 844 0 l 657 0 l 657 375 l 267 375 l 267 0 l 79 0 l 79 894 m 386 -114 l 535 -114 l 535 -251 l 386 -251 l 386 -114 z "},"I":{"ha":346,"x_min":79,"x_max":267,"o":"m 79 894 l 267 894 l 267 0 l 79 0 l 79 894 z "},"Ĳ":{"ha":936,"x_min":79,"x_max":863,"o":"m 79 894 l 267 894 l 267 0 l 79 0 l 79 894 m 553 -14 q 353 18 440 -14 l 353 176 q 515 146 422 146 q 638 181 601 146 q 675 297 675 217 l 675 894 l 863 894 l 863 256 q 553 -14 863 -14 z "},"Í":{"ha":347,"x_min":79,"x_max":371,"o":"m 208 1215 l 371 1215 l 249 956 l 97 956 l 208 1215 m 79 894 l 267 894 l 267 0 l 79 0 l 79 894 z "},"Ĭ":{"ha":347,"x_min":-46,"x_max":393,"o":"m 172 974 q 14 1032 74 974 q -46 1192 -46 1090 l 79 1192 q 103 1113 79 1144 q 172 1082 128 1082 q 243 1114 218 1082 q 268 1192 268 1146 l 393 1192 q 332 1032 393 1090 q 172 974 271 974 m 79 894 l 267 894 l 267 0 l 79 0 l 79 894 z "},"Ǐ":{"ha":347,"x_min":-74,"x_max":421,"o":"m -74 1197 l 74 1197 l 174 1058 l 276 1197 l 421 1197 l 233 956 l 114 956 l -74 1197 m 79 894 l 267 894 l 267 0 l 79 0 l 79 894 z "},"Î":{"ha":347,"x_min":-74,"x_max":421,"o":"m 114 1197 l 233 1197 l 421 956 l 276 956 l 174 1094 l 74 956 l -74 956 l 114 1197 m 79 894 l 267 894 l 267 0 l 79 0 l 79 894 z "},"Ï":{"ha":346,"x_min":-36,"x_max":383,"o":"m -36 1133 l 111 1133 l 111 997 l -36 997 l -36 1133 m 236 1133 l 383 1133 l 383 997 l 236 997 l 236 1133 m 79 894 l 267 894 l 267 0 l 79 0 l 79 894 z "},"İ":{"ha":346,"x_min":79,"x_max":267,"o":"m 100 1133 l 246 1133 l 246 997 l 100 997 l 100 1133 m 79 894 l 267 894 l 267 0 l 79 0 l 79 894 z "},"Ị":{"ha":346,"x_min":79,"x_max":267,"o":"m 79 894 l 267 894 l 267 0 l 79 0 l 79 894 m 99 -114 l 247 -114 l 247 -251 l 99 -251 l 99 -114 z "},"Ì":{"ha":346,"x_min":-26,"x_max":267,"o":"m -26 1215 l 136 1215 l 247 956 l 96 956 l -26 1215 m 79 894 l 267 894 l 267 0 l 79 0 l 79 894 z "},"Ỉ":{"ha":347,"x_min":43,"x_max":364,"o":"m 100 1067 q 199 1085 174 1071 q 225 1133 225 1100 q 129 1188 225 1188 q 83 1183 108 1188 q 43 1172 58 1179 l 43 1265 q 182 1283 97 1283 q 317 1247 269 1283 q 364 1150 364 1211 q 337 1061 364 1092 q 243 1018 310 1031 l 243 954 l 100 954 l 100 1067 m 79 894 l 267 894 l 267 0 l 79 0 l 79 894 z "},"Ī":{"ha":347,"x_min":-40,"x_max":388,"o":"m -40 1118 l 388 1118 l 388 1003 l -40 1003 l -40 1118 m 79 894 l 267 894 l 267 0 l 79 0 l 79 894 z "},"Į":{"ha":347,"x_min":8,"x_max":286,"o":"m 218 -196 q 286 -181 260 -196 l 286 -286 q 234 -300 267 -294 q 168 -306 201 -306 q 54 -273 100 -306 q 8 -179 8 -240 q 35 -80 8 -126 q 110 0 61 -33 l 79 0 l 79 894 l 267 894 l 267 0 l 249 0 q 156 -144 156 -69 q 218 -196 156 -196 z "},"Ĩ":{"ha":347,"x_min":-57,"x_max":403,"o":"m 292 972 q 238 979 264 972 q 169 1001 211 986 q 68 1028 103 1028 q -57 976 -10 1028 l -57 1110 q -5 1141 -37 1129 q 64 1153 28 1153 q 120 1145 93 1153 q 181 1124 147 1138 q 241 1103 219 1110 q 288 1097 263 1097 q 403 1150 365 1097 l 403 1017 q 359 985 389 997 q 292 972 329 972 m 79 894 l 267 894 l 267 0 l 79 0 l 79 894 z "},"J":{"ha":606,"x_min":24,"x_max":533,"o":"m 224 -14 q 24 18 111 -14 l 24 176 q 186 146 93 146 q 309 181 272 146 q 346 297 346 217 l 346 894 l 533 894 l 533 256 q 224 -14 533 -14 z "},"Ĵ":{"ha":606,"x_min":24,"x_max":689,"o":"m 382 1197 l 501 1197 l 689 956 l 544 956 l 442 1094 l 342 956 l 194 956 l 382 1197 m 224 -14 q 24 18 111 -14 l 24 176 q 186 146 93 146 q 309 181 272 146 q 346 297 346 217 l 346 894 l 533 894 l 533 256 q 224 -14 533 -14 z "},"K":{"ha":894,"x_min":79,"x_max":843,"o":"m 79 894 l 267 894 l 267 515 l 611 894 l 826 894 l 503 532 l 843 0 l 643 0 l 386 413 l 267 283 l 267 0 l 79 0 l 79 894 z "},"Ķ":{"ha":894,"x_min":79,"x_max":843,"o":"m 79 894 l 267 894 l 267 515 l 611 894 l 826 894 l 503 532 l 843 0 l 643 0 l 386 413 l 267 283 l 267 0 l 79 0 l 79 894 m 379 -51 l 526 -51 l 457 -331 l 336 -331 l 379 -51 z "},"L":{"ha":731,"x_min":79,"x_max":707,"o":"m 79 894 l 267 894 l 267 144 l 707 144 l 707 0 l 79 0 l 79 894 z "},"Ĺ":{"ha":731,"x_min":79,"x_max":707,"o":"m 213 1215 l 375 1215 l 253 956 l 101 956 l 213 1215 m 79 894 l 267 894 l 267 144 l 707 144 l 707 0 l 79 0 l 79 894 z "},"Ľ":{"ha":731,"x_min":79,"x_max":707,"o":"m 490 1063 l 638 1063 l 568 783 l 447 783 l 490 1063 m 79 894 l 267 894 l 267 144 l 707 144 l 707 0 l 79 0 l 79 894 z "},"Ļ":{"ha":731,"x_min":79,"x_max":707,"o":"m 79 894 l 267 894 l 267 144 l 707 144 l 707 0 l 79 0 l 79 894 m 342 -51 l 489 -51 l 419 -331 l 299 -331 l 342 -51 z "},"Ŀ":{"ha":731,"x_min":79,"x_max":707,"o":"m 79 894 l 267 894 l 267 144 l 707 144 l 707 0 l 79 0 l 79 894 m 429 519 l 575 519 l 575 383 l 429 383 l 429 519 z "},"Ḷ":{"ha":731,"x_min":79,"x_max":707,"o":"m 79 894 l 267 894 l 267 144 l 707 144 l 707 0 l 79 0 l 79 894 m 308 -114 l 457 -114 l 457 -251 l 308 -251 l 308 -114 z "},"Ḹ":{"ha":753,"x_min":7,"x_max":729,"o":"m 7 1111 l 435 1111 l 435 996 l 7 996 l 7 1111 m 101 894 l 289 894 l 289 144 l 729 144 l 729 0 l 101 0 l 101 894 m 331 -114 l 479 -114 l 479 -251 l 331 -251 l 331 -114 z "},"Ḻ":{"ha":731,"x_min":79,"x_max":707,"o":"m 79 894 l 267 894 l 267 144 l 707 144 l 707 0 l 79 0 l 79 894 m 171 -104 l 599 -104 l 599 -219 l 171 -219 l 171 -104 z "},"Ł":{"ha":731,"x_min":-25,"x_max":707,"o":"m 707 144 l 707 0 l 79 0 l 79 358 l -25 313 l -25 447 l 79 493 l 79 894 l 267 894 l 267 575 l 440 651 l 440 517 l 267 440 l 267 144 l 707 144 z "},"M":{"ha":1060,"x_min":79,"x_max":981,"o":"m 79 894 l 268 894 l 531 357 l 793 894 l 981 894 l 981 0 l 793 0 l 793 582 l 585 154 l 476 154 l 267 582 l 267 0 l 79 0 l 79 894 z "},"Ṃ":{"ha":1060,"x_min":79,"x_max":981,"o":"m 79 894 l 268 894 l 531 357 l 793 894 l 981 894 l 981 0 l 793 0 l 793 582 l 585 154 l 476 154 l 267 582 l 267 0 l 79 0 l 79 894 m 474 -114 l 622 -114 l 622 -251 l 474 -251 l 474 -114 z "},"N":{"ha":932,"x_min":79,"x_max":853,"o":"m 79 894 l 242 894 l 665 299 l 665 894 l 853 894 l 853 0 l 690 0 l 267 596 l 267 0 l 79 0 l 79 894 z "},"Ń":{"ha":932,"x_min":79,"x_max":853,"o":"m 486 1215 l 649 1215 l 526 956 l 375 956 l 486 1215 m 79 894 l 242 894 l 665 299 l 665 894 l 853 894 l 853 0 l 690 0 l 267 596 l 267 0 l 79 0 l 79 894 z "},"Ň":{"ha":932,"x_min":79,"x_max":853,"o":"m 222 1197 l 369 1197 l 469 1058 l 572 1197 l 717 1197 l 529 956 l 410 956 l 222 1197 m 79 894 l 242 894 l 665 299 l 665 894 l 853 894 l 853 0 l 690 0 l 267 596 l 267 0 l 79 0 l 79 894 z "},"Ņ":{"ha":932,"x_min":79,"x_max":853,"o":"m 79 894 l 242 894 l 665 299 l 665 894 l 853 894 l 853 0 l 690 0 l 267 596 l 267 0 l 79 0 l 79 894 m 404 -51 l 551 -51 l 482 -331 l 361 -331 l 404 -51 z "},"Ṅ":{"ha":932,"x_min":79,"x_max":853,"o":"m 404 1126 l 550 1126 l 550 990 l 404 990 l 404 1126 m 79 894 l 242 894 l 665 299 l 665 894 l 853 894 l 853 0 l 690 0 l 267 596 l 267 0 l 79 0 l 79 894 z "},"Ṇ":{"ha":932,"x_min":79,"x_max":853,"o":"m 79 894 l 242 894 l 665 299 l 665 894 l 853 894 l 853 0 l 690 0 l 267 596 l 267 0 l 79 0 l 79 894 m 394 -114 l 543 -114 l 543 -251 l 394 -251 l 394 -114 z "},"Ŋ":{"ha":932,"x_min":79,"x_max":853,"o":"m 625 -325 q 475 -300 538 -325 l 475 -171 q 558 -185 517 -185 q 640 -162 614 -185 q 665 -89 665 -139 l 665 35 l 267 596 l 267 0 l 79 0 l 79 894 l 242 894 l 665 299 l 665 894 l 853 894 l 853 -107 q 795 -267 853 -208 q 625 -325 738 -325 z "},"Ṉ":{"ha":932,"x_min":79,"x_max":853,"o":"m 79 894 l 242 894 l 665 299 l 665 894 l 853 894 l 853 0 l 690 0 l 267 596 l 267 0 l 79 0 l 79 894 m 257 -100 l 685 -100 l 685 -215 l 257 -215 l 257 -100 z "},"Ñ":{"ha":932,"x_min":79,"x_max":853,"o":"m 596 972 q 542 979 568 972 q 474 1001 515 986 q 372 1028 407 1028 q 247 976 294 1028 l 247 1110 q 299 1141 267 1129 q 368 1153 332 1153 q 424 1145 397 1153 q 485 1124 451 1138 q 545 1103 524 1110 q 592 1097 567 1097 q 707 1150 669 1097 l 707 1017 q 663 985 693 997 q 596 972 633 972 m 79 894 l 242 894 l 665 299 l 665 894 l 853 894 l 853 0 l 690 0 l 267 596 l 267 0 l 79 0 l 79 894 z "},"O":{"ha":972,"x_min":51,"x_max":921,"o":"m 486 -14 q 51 443 51 -14 q 159 797 51 685 q 486 908 267 908 q 813 797 706 908 q 921 443 921 685 q 486 -14 921 -14 m 486 146 q 671 219 611 146 q 731 443 731 292 q 672 678 731 608 q 486 749 614 749 q 300 678 358 749 q 242 443 242 608 q 301 219 242 292 q 486 146 361 146 z "},"Ó":{"ha":972,"x_min":51,"x_max":921,"o":"m 511 1215 l 674 1215 l 551 956 l 400 956 l 511 1215 m 486 -14 q 51 443 51 -14 q 159 797 51 685 q 486 908 267 908 q 813 797 706 908 q 921 443 921 685 q 486 -14 921 -14 m 486 146 q 671 219 611 146 q 731 443 731 292 q 672 678 731 608 q 486 749 614 749 q 300 678 358 749 q 242 443 242 608 q 301 219 242 292 q 486 146 361 146 z "},"Ŏ":{"ha":972,"x_min":51,"x_max":921,"o":"m 486 956 q 328 1014 388 956 q 268 1174 268 1072 l 393 1174 q 417 1095 393 1126 q 486 1064 442 1064 q 557 1096 532 1064 q 582 1174 582 1128 l 707 1174 q 646 1014 707 1072 q 486 956 585 956 m 486 -14 q 51 443 51 -14 q 159 797 51 685 q 486 908 267 908 q 813 797 706 908 q 921 443 921 685 q 486 -14 921 -14 m 486 146 q 671 219 611 146 q 731 443 731 292 q 672 678 731 608 q 486 749 614 749 q 300 678 358 749 q 242 443 242 608 q 301 219 242 292 q 486 146 361 146 z "},"Ǒ":{"ha":972,"x_min":51,"x_max":921,"o":"m 239 1197 l 386 1197 l 486 1058 l 589 1197 l 733 1197 l 546 956 l 426 956 l 239 1197 m 486 -14 q 51 443 51 -14 q 159 797 51 685 q 486 908 267 908 q 813 797 706 908 q 921 443 921 685 q 486 -14 921 -14 m 486 146 q 671 219 611 146 q 731 443 731 292 q 672 678 731 608 q 486 749 614 749 q 300 678 358 749 q 242 443 242 608 q 301 219 242 292 q 486 146 361 146 z "},"Ô":{"ha":972,"x_min":51,"x_max":921,"o":"m 426 1197 l 546 1197 l 733 956 l 589 956 l 486 1094 l 386 956 l 239 956 l 426 1197 m 486 -14 q 51 443 51 -14 q 159 797 51 685 q 486 908 267 908 q 813 797 706 908 q 921 443 921 685 q 486 -14 921 -14 m 486 146 q 671 219 611 146 q 731 443 731 292 q 672 678 731 608 q 486 749 614 749 q 300 678 358 749 q 242 443 242 608 q 301 219 242 292 q 486 146 361 146 z "},"Ố":{"ha":972,"x_min":51,"x_max":921,"o":"m 722 1313 l 864 1313 l 763 1117 l 631 1117 l 722 1313 m 418 1142 l 561 1142 l 736 954 l 585 954 l 490 1067 l 397 954 l 243 954 l 418 1142 m 486 -14 q 51 443 51 -14 q 159 797 51 685 q 486 908 267 908 q 813 797 706 908 q 921 443 921 685 q 486 -14 921 -14 m 486 146 q 671 219 611 146 q 731 443 731 292 q 672 678 731 608 q 486 749 614 749 q 300 678 358 749 q 242 443 242 608 q 301 219 242 292 q 486 146 361 146 z "},"Ộ":{"ha":972,"x_min":51,"x_max":921,"o":"m 426 1211 l 546 1211 l 733 969 l 589 969 l 486 1108 l 386 969 l 239 969 l 426 1211 m 486 -14 q 51 443 51 -14 q 159 797 51 685 q 486 908 267 908 q 813 797 706 908 q 921 443 921 685 q 486 -14 921 -14 m 486 146 q 671 219 611 146 q 731 443 731 292 q 672 678 731 608 q 486 749 614 749 q 300 678 358 749 q 242 443 242 608 q 301 219 242 292 q 486 146 361 146 m 413 -114 l 561 -114 l 561 -251 l 413 -251 l 413 -114 z "},"Ồ":{"ha":972,"x_min":51,"x_max":921,"o":"m 108 1313 l 250 1313 l 342 1117 l 210 1117 l 108 1313 m 411 1142 l 554 1142 l 729 954 l 575 954 l 482 1067 l 388 954 l 236 954 l 411 1142 m 486 -14 q 51 443 51 -14 q 159 797 51 685 q 486 908 267 908 q 813 797 706 908 q 921 443 921 685 q 486 -14 921 -14 m 486 146 q 671 219 611 146 q 731 443 731 292 q 672 678 731 608 q 486 749 614 749 q 300 678 358 749 q 242 443 242 608 q 301 219 242 292 q 486 146 361 146 z "},"Ổ":{"ha":972,"x_min":51,"x_max":921,"o":"m 635 1183 q 718 1197 697 1186 q 739 1232 739 1208 q 724 1261 739 1253 q 676 1269 708 1269 q 601 1253 638 1269 l 601 1339 q 717 1356 651 1356 q 829 1325 789 1356 q 869 1243 869 1294 q 764 1133 869 1149 l 764 1086 l 635 1086 l 635 1183 m 410 1142 l 553 1142 l 728 954 l 576 954 l 482 1067 l 389 954 l 235 954 l 410 1142 m 486 -14 q 51 443 51 -14 q 159 797 51 685 q 486 908 267 908 q 813 797 706 908 q 921 443 921 685 q 486 -14 921 -14 m 486 146 q 671 219 611 146 q 731 443 731 292 q 672 678 731 608 q 486 749 614 749 q 300 678 358 749 q 242 443 242 608 q 301 219 242 292 q 486 146 361 146 z "},"Ỗ":{"ha":972,"x_min":51,"x_max":921,"o":"m 606 1201 q 551 1208 578 1201 q 483 1231 525 1215 q 382 1257 418 1257 q 257 1206 304 1257 l 257 1325 q 309 1356 276 1344 q 378 1368 342 1368 q 434 1360 407 1368 q 494 1339 461 1353 q 555 1319 533 1325 q 601 1313 576 1313 q 717 1365 679 1313 l 717 1246 q 673 1214 703 1226 q 606 1201 643 1201 m 486 956 q 319 1009 382 956 q 257 1172 257 1063 l 368 1172 q 399 1085 368 1115 q 486 1054 429 1054 q 572 1085 542 1054 q 603 1172 603 1115 l 714 1172 q 651 1009 714 1063 q 486 956 589 956 m 486 -14 q 51 443 51 -14 q 159 797 51 685 q 486 908 267 908 q 813 797 706 908 q 921 443 921 685 q 486 -14 921 -14 m 486 146 q 671 219 611 146 q 731 443 731 292 q 672 678 731 608 q 486 749 614 749 q 300 678 358 749 q 242 443 242 608 q 301 219 242 292 q 486 146 361 146 z "},"Ö":{"ha":972,"x_min":51,"x_max":921,"o":"m 276 1126 l 424 1126 l 424 990 l 276 990 l 276 1126 m 549 1126 l 696 1126 l 696 990 l 549 990 l 549 1126 m 486 -14 q 51 443 51 -14 q 159 797 51 685 q 486 908 267 908 q 813 797 706 908 q 921 443 921 685 q 486 -14 921 -14 m 486 146 q 671 219 611 146 q 731 443 731 292 q 672 678 731 608 q 486 749 614 749 q 300 678 358 749 q 242 443 242 608 q 301 219 242 292 q 486 146 361 146 z "},"Ọ":{"ha":972,"x_min":51,"x_max":921,"o":"m 486 -14 q 51 443 51 -14 q 159 797 51 685 q 486 908 267 908 q 813 797 706 908 q 921 443 921 685 q 486 -14 921 -14 m 486 146 q 671 219 611 146 q 731 443 731 292 q 672 678 731 608 q 486 749 614 749 q 300 678 358 749 q 242 443 242 608 q 301 219 242 292 q 486 146 361 146 m 413 -114 l 561 -114 l 561 -251 l 413 -251 l 413 -114 z "},"Ò":{"ha":972,"x_min":51,"x_max":921,"o":"m 296 1215 l 458 1215 l 569 956 l 418 956 l 296 1215 m 486 -14 q 51 443 51 -14 q 159 797 51 685 q 486 908 267 908 q 813 797 706 908 q 921 443 921 685 q 486 -14 921 -14 m 486 146 q 671 219 611 146 q 731 443 731 292 q 672 678 731 608 q 486 749 614 749 q 300 678 358 749 q 242 443 242 608 q 301 219 242 292 q 486 146 361 146 z "},"Ỏ":{"ha":972,"x_min":51,"x_max":921,"o":"m 415 1067 q 515 1085 489 1071 q 540 1133 540 1100 q 444 1188 540 1188 q 399 1183 424 1188 q 358 1172 374 1179 l 358 1265 q 497 1283 413 1283 q 632 1247 585 1283 q 679 1150 679 1211 q 652 1061 679 1092 q 558 1018 625 1031 l 558 954 l 415 954 l 415 1067 m 486 -14 q 51 443 51 -14 q 159 797 51 685 q 486 908 267 908 q 813 797 706 908 q 921 443 921 685 q 486 -14 921 -14 m 486 146 q 671 219 611 146 q 731 443 731 292 q 672 678 731 608 q 486 749 614 749 q 300 678 358 749 q 242 443 242 608 q 301 219 242 292 q 486 146 361 146 z "},"Ơ":{"ha":1083,"x_min":51,"x_max":1065,"o":"m 486 -14 q 51 443 51 -14 q 159 797 51 685 q 486 908 267 908 q 797 806 693 908 q 901 841 871 808 q 931 956 931 874 l 1065 956 q 1021 767 1065 828 q 879 689 976 706 q 921 443 921 593 q 486 -14 921 -14 m 486 146 q 671 219 611 146 q 731 443 731 292 q 672 678 731 608 q 486 749 614 749 q 300 678 358 749 q 242 443 242 608 q 301 219 242 292 q 486 146 361 146 z "},"Ớ":{"ha":1083,"x_min":51,"x_max":1065,"o":"m 535 1215 l 697 1215 l 575 956 l 424 956 l 535 1215 m 486 -14 q 51 443 51 -14 q 159 797 51 685 q 486 908 267 908 q 797 806 693 908 q 901 841 871 808 q 931 956 931 874 l 1065 956 q 1021 767 1065 828 q 879 689 976 706 q 921 443 921 593 q 486 -14 921 -14 m 486 146 q 671 219 611 146 q 731 443 731 292 q 672 678 731 608 q 486 749 614 749 q 300 678 358 749 q 242 443 242 608 q 301 219 242 292 q 486 146 361 146 z "},"Ợ":{"ha":1083,"x_min":51,"x_max":1065,"o":"m 486 -14 q 51 443 51 -14 q 159 797 51 685 q 486 908 267 908 q 797 806 693 908 q 901 841 871 808 q 931 956 931 874 l 1065 956 q 1021 767 1065 828 q 879 689 976 706 q 921 443 921 593 q 486 -14 921 -14 m 486 146 q 671 219 611 146 q 731 443 731 292 q 672 678 731 608 q 486 749 614 749 q 300 678 358 749 q 242 443 242 608 q 301 219 242 292 q 486 146 361 146 m 417 -114 l 565 -114 l 565 -251 l 417 -251 l 417 -114 z "},"Ờ":{"ha":1083,"x_min":51,"x_max":1065,"o":"m 324 1215 l 486 1215 l 597 956 l 446 956 l 324 1215 m 486 -14 q 51 443 51 -14 q 159 797 51 685 q 486 908 267 908 q 797 806 693 908 q 901 841 871 808 q 931 956 931 874 l 1065 956 q 1021 767 1065 828 q 879 689 976 706 q 921 443 921 593 q 486 -14 921 -14 m 486 146 q 671 219 611 146 q 731 443 731 292 q 672 678 731 608 q 486 749 614 749 q 300 678 358 749 q 242 443 242 608 q 301 219 242 292 q 486 146 361 146 z "},"Ở":{"ha":1083,"x_min":51,"x_max":1065,"o":"m 421 1067 q 520 1085 494 1071 q 546 1133 546 1100 q 450 1188 546 1188 q 404 1183 429 1188 q 364 1172 379 1179 l 364 1265 q 503 1283 418 1283 q 638 1247 590 1283 q 685 1150 685 1211 q 658 1061 685 1092 q 564 1018 631 1031 l 564 954 l 421 954 l 421 1067 m 486 -14 q 51 443 51 -14 q 159 797 51 685 q 486 908 267 908 q 797 806 693 908 q 901 841 871 808 q 931 956 931 874 l 1065 956 q 1021 767 1065 828 q 879 689 976 706 q 921 443 921 593 q 486 -14 921 -14 m 486 146 q 671 219 611 146 q 731 443 731 292 q 672 678 731 608 q 486 749 614 749 q 300 678 358 749 q 242 443 242 608 q 301 219 242 292 q 486 146 361 146 z "},"Ỡ":{"ha":1083,"x_min":51,"x_max":1065,"o":"m 621 968 q 567 975 593 968 q 499 997 540 982 q 397 1024 433 1024 q 272 972 319 1024 l 272 1106 q 324 1137 292 1125 q 393 1149 357 1149 q 449 1141 422 1149 q 510 1119 476 1133 q 570 1099 549 1106 q 617 1093 592 1093 q 732 1146 694 1093 l 732 1013 q 688 981 718 993 q 621 968 658 968 m 486 -14 q 51 443 51 -14 q 159 797 51 685 q 486 908 267 908 q 797 806 693 908 q 901 841 871 808 q 931 956 931 874 l 1065 956 q 1021 767 1065 828 q 879 689 976 706 q 921 443 921 593 q 486 -14 921 -14 m 486 146 q 671 219 611 146 q 731 443 731 292 q 672 678 731 608 q 486 749 614 749 q 300 678 358 749 q 242 443 242 608 q 301 219 242 292 q 486 146 361 146 z "},"Ő":{"ha":972,"x_min":51,"x_max":921,"o":"m 324 1199 l 490 1199 l 363 954 l 214 954 l 324 1199 m 640 1199 l 807 1199 l 679 954 l 531 954 l 640 1199 m 486 -14 q 51 443 51 -14 q 159 797 51 685 q 486 908 267 908 q 813 797 706 908 q 921 443 921 685 q 486 -14 921 -14 m 486 146 q 671 219 611 146 q 731 443 731 292 q 672 678 731 608 q 486 749 614 749 q 300 678 358 749 q 242 443 242 608 q 301 219 242 292 q 486 146 361 146 z "},"Ō":{"ha":972,"x_min":51,"x_max":921,"o":"m 268 1119 l 696 1119 l 696 1004 l 268 1004 l 268 1119 m 486 -14 q 51 443 51 -14 q 159 797 51 685 q 486 908 267 908 q 813 797 706 908 q 921 443 921 685 q 486 -14 921 -14 m 486 146 q 671 219 611 146 q 731 443 731 292 q 672 678 731 608 q 486 749 614 749 q 300 678 358 749 q 242 443 242 608 q 301 219 242 292 q 486 146 361 146 z "},"Ø":{"ha":972,"x_min":51,"x_max":921,"o":"m 263 28 q 51 443 51 124 q 159 797 51 685 q 486 908 267 908 q 594 900 544 908 l 618 963 l 725 963 l 692 875 q 864 726 807 832 q 921 443 921 619 q 486 -14 921 -14 q 357 -1 415 -14 l 331 -74 l 224 -74 l 263 28 m 535 746 q 486 749 504 749 q 300 678 358 749 q 242 443 242 608 q 325 194 242 264 l 535 746 m 486 146 q 671 219 611 146 q 731 443 731 292 q 706 617 731 551 q 631 715 682 683 l 417 151 q 486 146 444 146 z "},"Ǿ":{"ha":972,"x_min":51,"x_max":921,"o":"m 485 1215 l 647 1215 l 525 956 l 374 956 l 485 1215 m 263 28 q 51 443 51 124 q 159 797 51 685 q 486 908 267 908 q 594 900 544 908 l 618 963 l 725 963 l 692 875 q 864 726 807 832 q 921 443 921 619 q 486 -14 921 -14 q 357 -1 415 -14 l 331 -74 l 224 -74 l 263 28 m 535 746 q 486 749 504 749 q 300 678 358 749 q 242 443 242 608 q 325 194 242 264 l 535 746 m 486 146 q 671 219 611 146 q 731 443 731 292 q 706 617 731 551 q 631 715 682 683 l 417 151 q 486 146 444 146 z "},"Õ":{"ha":972,"x_min":51,"x_max":921,"o":"m 606 986 q 551 993 578 986 q 483 1015 525 1000 q 382 1042 418 1042 q 257 990 304 1042 l 257 1124 q 309 1155 276 1143 q 378 1167 342 1167 q 434 1159 407 1167 q 494 1138 461 1151 q 555 1117 533 1124 q 601 1111 576 1111 q 717 1164 679 1111 l 717 1031 q 673 999 703 1011 q 606 986 643 986 m 486 -14 q 51 443 51 -14 q 159 797 51 685 q 486 908 267 908 q 813 797 706 908 q 921 443 921 685 q 486 -14 921 -14 m 486 146 q 671 219 611 146 q 731 443 731 292 q 672 678 731 608 q 486 749 614 749 q 300 678 358 749 q 242 443 242 608 q 301 219 242 292 q 486 146 361 146 z "},"Œ":{"ha":1426,"x_min":51,"x_max":1375,"o":"m 921 749 l 921 519 l 1324 519 l 1324 375 l 921 375 l 921 144 l 1375 144 l 1375 0 l 733 0 l 733 40 q 486 -14 636 -14 q 51 443 51 -14 q 159 797 51 685 q 486 908 267 908 q 733 857 636 908 l 733 894 l 1375 894 l 1375 749 l 921 749 m 486 146 q 671 219 611 146 q 731 443 731 292 q 672 678 731 608 q 486 749 614 749 q 300 678 358 749 q 242 443 242 608 q 301 219 242 292 q 486 146 361 146 z "},"P":{"ha":831,"x_min":79,"x_max":806,"o":"m 79 894 l 499 894 q 728 810 650 894 q 806 586 806 725 q 767 426 806 496 q 658 319 729 357 q 493 281 588 281 l 267 281 l 267 0 l 79 0 l 79 894 m 454 429 q 575 471 533 429 q 617 586 617 513 q 578 705 617 664 q 461 746 539 746 l 267 746 l 267 429 l 454 429 z "},"Þ":{"ha":857,"x_min":79,"x_max":806,"o":"m 79 894 l 267 894 l 267 753 l 499 753 q 728 668 650 753 q 806 444 806 583 q 767 285 806 354 q 658 177 729 215 q 493 139 588 139 l 267 139 l 267 0 l 79 0 l 79 894 m 454 288 q 575 329 533 288 q 617 444 617 371 q 578 563 617 522 q 461 604 539 604 l 267 604 l 267 288 l 454 288 z "},"Q":{"ha":972,"x_min":51,"x_max":921,"o":"m 613 -239 q 449 -181 503 -239 q 393 -8 396 -122 q 51 443 51 38 q 159 797 51 685 q 486 908 267 908 q 813 797 706 908 q 921 443 921 685 q 553 -11 921 22 q 578 -85 554 -65 q 656 -106 601 -106 q 754 -90 708 -106 l 754 -221 q 690 -233 729 -228 q 613 -239 650 -239 m 486 146 q 671 219 611 146 q 731 443 731 292 q 672 678 731 608 q 486 749 614 749 q 300 678 358 749 q 242 443 242 608 q 301 219 242 292 q 486 146 361 146 z "},"R":{"ha":858,"x_min":79,"x_max":807,"o":"m 79 894 l 508 894 q 733 815 658 894 q 807 594 807 736 q 760 439 807 504 q 629 344 714 374 q 663 306 650 326 q 692 250 676 286 l 800 0 l 606 0 l 500 240 q 469 284 486 272 q 414 296 451 296 l 267 296 l 267 0 l 79 0 l 79 894 m 460 451 q 576 485 536 451 q 617 594 617 519 q 581 704 617 669 q 471 739 544 739 l 267 739 l 267 451 l 460 451 z "},"Ŕ":{"ha":858,"x_min":79,"x_max":807,"o":"m 435 1215 l 597 1215 l 475 956 l 324 956 l 435 1215 m 79 894 l 508 894 q 733 815 658 894 q 807 594 807 736 q 760 439 807 504 q 629 344 714 374 q 663 306 650 326 q 692 250 676 286 l 800 0 l 606 0 l 500 240 q 469 284 486 272 q 414 296 451 296 l 267 296 l 267 0 l 79 0 l 79 894 m 460 451 q 576 485 536 451 q 617 594 617 519 q 581 704 617 669 q 471 739 544 739 l 267 739 l 267 451 l 460 451 z "},"Ř":{"ha":858,"x_min":79,"x_max":807,"o":"m 171 1197 l 318 1197 l 418 1058 l 521 1197 l 665 1197 l 478 956 l 358 956 l 171 1197 m 79 894 l 508 894 q 733 815 658 894 q 807 594 807 736 q 760 439 807 504 q 629 344 714 374 q 663 306 650 326 q 692 250 676 286 l 800 0 l 606 0 l 500 240 q 469 284 486 272 q 414 296 451 296 l 267 296 l 267 0 l 79 0 l 79 894 m 460 451 q 576 485 536 451 q 617 594 617 519 q 581 704 617 669 q 471 739 544 739 l 267 739 l 267 451 l 460 451 z "},"Ŗ":{"ha":858,"x_min":79,"x_max":807,"o":"m 79 894 l 508 894 q 733 815 658 894 q 807 594 807 736 q 760 439 807 504 q 629 344 714 374 q 663 306 650 326 q 692 250 676 286 l 800 0 l 606 0 l 500 240 q 469 284 486 272 q 414 296 451 296 l 267 296 l 267 0 l 79 0 l 79 894 m 460 451 q 576 485 536 451 q 617 594 617 519 q 581 704 617 669 q 471 739 544 739 l 267 739 l 267 451 l 460 451 m 342 -51 l 489 -51 l 419 -331 l 299 -331 l 342 -51 z "},"Ṛ":{"ha":858,"x_min":79,"x_max":807,"o":"m 79 894 l 508 894 q 733 815 658 894 q 807 594 807 736 q 760 439 807 504 q 629 344 714 374 q 663 306 650 326 q 692 250 676 286 l 800 0 l 606 0 l 500 240 q 469 284 486 272 q 414 296 451 296 l 267 296 l 267 0 l 79 0 l 79 894 m 460 451 q 576 485 536 451 q 617 594 617 519 q 581 704 617 669 q 471 739 544 739 l 267 739 l 267 451 l 460 451 m 358 -114 l 507 -114 l 507 -251 l 358 -251 l 358 -114 z "},"Ṝ":{"ha":858,"x_min":79,"x_max":807,"o":"m 196 1111 l 624 1111 l 624 996 l 196 996 l 196 1111 m 79 894 l 508 894 q 733 815 658 894 q 807 594 807 736 q 760 439 807 504 q 629 344 714 374 q 663 306 650 326 q 692 250 676 286 l 800 0 l 606 0 l 500 240 q 469 284 486 272 q 414 296 451 296 l 267 296 l 267 0 l 79 0 l 79 894 m 460 451 q 576 485 536 451 q 617 594 617 519 q 581 704 617 669 q 471 739 544 739 l 267 739 l 267 451 l 460 451 m 335 -114 l 483 -114 l 483 -251 l 335 -251 l 335 -114 z "},"Ṟ":{"ha":858,"x_min":79,"x_max":807,"o":"m 79 894 l 508 894 q 733 815 658 894 q 807 594 807 736 q 760 439 807 504 q 629 344 714 374 q 663 306 650 326 q 692 250 676 286 l 800 0 l 606 0 l 500 240 q 469 284 486 272 q 414 296 451 296 l 267 296 l 267 0 l 79 0 l 79 894 m 460 451 q 576 485 536 451 q 617 594 617 519 q 581 704 617 669 q 471 739 544 739 l 267 739 l 267 451 l 460 451 m 200 -100 l 628 -100 l 628 -215 l 200 -215 l 200 -100 z "},"S":{"ha":771,"x_min":51,"x_max":719,"o":"m 357 -14 q 68 35 178 -14 l 68 200 q 201 160 131 175 q 339 144 272 144 q 485 164 443 144 q 528 244 528 183 q 508 308 528 285 q 444 349 489 332 q 306 393 400 367 q 108 490 165 432 q 51 651 51 549 q 142 842 51 775 q 404 908 232 908 q 552 898 482 908 q 667 871 622 888 l 667 706 q 429 749 553 749 q 288 728 335 749 q 242 651 242 707 q 259 596 242 617 q 317 559 276 575 q 444 521 358 543 q 660 413 600 479 q 719 244 719 347 q 628 55 719 124 q 357 -14 536 -14 z "},"Ś":{"ha":771,"x_min":51,"x_max":719,"o":"m 406 1224 l 568 1224 l 446 964 l 294 964 l 406 1224 m 357 -14 q 68 35 178 -14 l 68 200 q 201 160 131 175 q 339 144 272 144 q 485 164 443 144 q 528 244 528 183 q 508 308 528 285 q 444 349 489 332 q 306 393 400 367 q 108 490 165 432 q 51 651 51 549 q 142 842 51 775 q 404 908 232 908 q 552 898 482 908 q 667 871 622 888 l 667 706 q 429 749 553 749 q 288 728 335 749 q 242 651 242 707 q 259 596 242 617 q 317 559 276 575 q 444 521 358 543 q 660 413 600 479 q 719 244 719 347 q 628 55 719 124 q 357 -14 536 -14 z "},"Š":{"ha":771,"x_min":51,"x_max":719,"o":"m 149 1197 l 296 1197 l 396 1058 l 499 1197 l 643 1197 l 456 956 l 336 956 l 149 1197 m 357 -14 q 68 35 178 -14 l 68 200 q 201 160 131 175 q 339 144 272 144 q 485 164 443 144 q 528 244 528 183 q 508 308 528 285 q 444 349 489 332 q 306 393 400 367 q 108 490 165 432 q 51 651 51 549 q 142 842 51 775 q 404 908 232 908 q 552 898 482 908 q 667 871 622 888 l 667 706 q 429 749 553 749 q 288 728 335 749 q 242 651 242 707 q 259 596 242 617 q 317 559 276 575 q 444 521 358 543 q 660 413 600 479 q 719 244 719 347 q 628 55 719 124 q 357 -14 536 -14 z "},"Ş":{"ha":771,"x_min":51,"x_max":719,"o":"m 719 244 q 645 69 719 136 q 425 -11 571 3 l 408 -62 q 518 -96 481 -62 q 556 -189 556 -129 q 344 -333 556 -333 q 288 -330 321 -333 q 239 -322 254 -326 l 239 -228 q 324 -239 279 -239 q 411 -229 388 -239 q 435 -187 435 -219 q 410 -145 435 -154 q 328 -136 385 -136 l 267 -136 l 303 -12 q 68 35 163 -6 l 68 200 q 201 160 131 175 q 339 144 272 144 q 485 164 443 144 q 528 244 528 183 q 508 308 528 285 q 444 349 489 332 q 306 393 400 367 q 108 490 165 432 q 51 651 51 549 q 142 842 51 775 q 404 908 232 908 q 552 898 482 908 q 667 871 622 888 l 667 706 q 429 749 553 749 q 288 728 335 749 q 242 651 242 707 q 259 596 242 617 q 317 559 276 575 q 444 521 358 543 q 660 413 600 479 q 719 244 719 347 z "},"Ŝ":{"ha":771,"x_min":51,"x_max":719,"o":"m 315 1219 l 435 1219 l 622 978 l 478 978 l 375 1117 l 275 978 l 128 978 l 315 1219 m 357 -14 q 68 35 178 -14 l 68 200 q 201 160 131 175 q 339 144 272 144 q 485 164 443 144 q 528 244 528 183 q 508 308 528 285 q 444 349 489 332 q 306 393 400 367 q 108 490 165 432 q 51 651 51 549 q 142 842 51 775 q 404 908 232 908 q 552 898 482 908 q 667 871 622 888 l 667 706 q 429 749 553 749 q 288 728 335 749 q 242 651 242 707 q 259 596 242 617 q 317 559 276 575 q 444 521 358 543 q 660 413 600 479 q 719 244 719 347 q 628 55 719 124 q 357 -14 536 -14 z "},"Ș":{"ha":771,"x_min":51,"x_max":719,"o":"m 357 -14 q 68 35 178 -14 l 68 200 q 201 160 131 175 q 339 144 272 144 q 485 164 443 144 q 528 244 528 183 q 508 308 528 285 q 444 349 489 332 q 306 393 400 367 q 108 490 165 432 q 51 651 51 549 q 142 842 51 775 q 404 908 232 908 q 552 898 482 908 q 667 871 622 888 l 667 706 q 429 749 553 749 q 288 728 335 749 q 242 651 242 707 q 259 596 242 617 q 317 559 276 575 q 444 521 358 543 q 660 413 600 479 q 719 244 719 347 q 628 55 719 124 q 357 -14 536 -14 m 311 -65 l 474 -65 l 414 -314 l 271 -314 l 311 -65 z "},"Ṡ":{"ha":771,"x_min":51,"x_max":719,"o":"m 304 1126 l 450 1126 l 450 990 l 304 990 l 304 1126 m 357 -14 q 68 35 178 -14 l 68 200 q 201 160 131 175 q 339 144 272 144 q 485 164 443 144 q 528 244 528 183 q 508 308 528 285 q 444 349 489 332 q 306 393 400 367 q 108 490 165 432 q 51 651 51 549 q 142 842 51 775 q 404 908 232 908 q 552 898 482 908 q 667 871 622 888 l 667 706 q 429 749 553 749 q 288 728 335 749 q 242 651 242 707 q 259 596 242 617 q 317 559 276 575 q 444 521 358 543 q 660 413 600 479 q 719 244 719 347 q 628 55 719 124 q 357 -14 536 -14 z "},"Ṣ":{"ha":771,"x_min":51,"x_max":719,"o":"m 357 -14 q 68 35 178 -14 l 68 200 q 201 160 131 175 q 339 144 272 144 q 485 164 443 144 q 528 244 528 183 q 508 308 528 285 q 444 349 489 332 q 306 393 400 367 q 108 490 165 432 q 51 651 51 549 q 142 842 51 775 q 404 908 232 908 q 552 898 482 908 q 667 871 622 888 l 667 706 q 429 749 553 749 q 288 728 335 749 q 242 651 242 707 q 259 596 242 617 q 317 559 276 575 q 444 521 358 543 q 660 413 600 479 q 719 244 719 347 q 628 55 719 124 q 357 -14 536 -14 m 307 -114 l 456 -114 l 456 -251 l 307 -251 l 307 -114 z "},"ẞ":{"ha":871,"x_min":72,"x_max":819,"o":"m 544 -14 q 344 18 432 -14 l 344 176 q 422 154 378 163 q 507 146 465 146 q 609 175 574 146 q 644 260 644 204 q 515 356 644 356 l 385 356 l 385 503 l 613 644 q 567 724 613 692 q 436 756 521 756 q 296 714 342 756 q 250 588 250 672 l 250 0 l 72 0 l 72 579 q 166 822 72 736 q 436 908 260 908 q 701 822 613 908 q 789 601 789 736 l 572 471 l 607 471 q 759 410 699 471 q 819 257 819 350 q 785 119 819 181 q 690 22 751 57 q 544 -14 628 -14 z "},"Ə":{"ha":943,"x_min":51,"x_max":892,"o":"m 457 -14 q 156 88 260 -14 q 51 368 51 190 l 51 531 l 719 531 q 676 672 713 621 q 569 746 640 724 q 378 768 497 768 q 235 753 314 768 q 103 714 156 738 l 103 851 q 251 892 168 876 q 418 908 335 908 q 772 787 651 908 q 892 436 892 665 q 785 103 892 221 q 457 -14 678 -14 m 457 121 q 719 394 719 121 l 215 394 l 215 329 q 280 176 215 231 q 457 121 344 121 z "},"T":{"ha":783,"x_min":24,"x_max":760,"o":"m 299 750 l 24 750 l 24 894 l 760 894 l 760 750 l 486 750 l 486 0 l 299 0 l 299 750 z "},"Ŧ":{"ha":783,"x_min":24,"x_max":760,"o":"m 486 750 l 486 544 l 643 544 l 643 407 l 486 407 l 486 0 l 299 0 l 299 407 l 129 407 l 129 544 l 299 544 l 299 750 l 24 750 l 24 894 l 760 894 l 760 750 l 486 750 z "},"Ť":{"ha":783,"x_min":24,"x_max":760,"o":"m 144 1219 l 292 1219 l 392 1081 l 494 1219 l 639 1219 l 451 978 l 332 978 l 144 1219 m 299 750 l 24 750 l 24 894 l 760 894 l 760 750 l 486 750 l 486 0 l 299 0 l 299 750 z "},"Ţ":{"ha":783,"x_min":24,"x_max":760,"o":"m 450 0 l 429 -62 q 539 -96 501 -62 q 576 -189 576 -129 q 365 -333 576 -333 q 308 -330 342 -333 q 260 -322 275 -326 l 260 -228 q 344 -239 300 -239 q 432 -229 408 -239 q 456 -187 456 -219 q 431 -145 456 -154 q 349 -136 406 -136 l 288 -136 l 328 0 l 299 0 l 299 750 l 24 750 l 24 894 l 760 894 l 760 750 l 486 750 l 486 0 l 450 0 z "},"Ț":{"ha":767,"x_min":7,"x_max":743,"o":"m 282 750 l 7 750 l 7 894 l 743 894 l 743 750 l 469 750 l 469 0 l 282 0 l 282 750 m 308 -65 l 456 -65 l 386 -344 l 265 -344 l 308 -65 z "},"Ṭ":{"ha":783,"x_min":24,"x_max":760,"o":"m 299 750 l 24 750 l 24 894 l 760 894 l 760 750 l 486 750 l 486 0 l 299 0 l 299 750 m 314 -100 l 463 -100 l 463 -237 l 314 -237 l 314 -100 z "},"Ṯ":{"ha":783,"x_min":24,"x_max":760,"o":"m 299 750 l 24 750 l 24 894 l 760 894 l 760 750 l 486 750 l 486 0 l 299 0 l 299 750 m 178 -86 l 606 -86 l 606 -201 l 178 -201 l 178 -86 z "},"U":{"ha":943,"x_min":72,"x_max":871,"o":"m 472 -14 q 178 76 285 -14 q 72 336 72 167 l 72 894 l 260 894 l 260 350 q 315 197 260 249 q 472 146 369 146 q 629 197 575 146 q 683 350 683 249 l 683 894 l 871 894 l 871 336 q 765 77 871 168 q 472 -14 660 -14 z "},"Ú":{"ha":943,"x_min":72,"x_max":871,"o":"m 501 1215 l 664 1215 l 542 956 l 390 956 l 501 1215 m 472 -14 q 178 76 285 -14 q 72 336 72 167 l 72 894 l 260 894 l 260 350 q 315 197 260 249 q 472 146 369 146 q 629 197 575 146 q 683 350 683 249 l 683 894 l 871 894 l 871 336 q 765 77 871 168 q 472 -14 660 -14 z "},"Ŭ":{"ha":943,"x_min":72,"x_max":871,"o":"m 464 956 q 306 1014 365 956 q 246 1174 246 1072 l 371 1174 q 395 1095 371 1126 q 464 1064 419 1064 q 535 1096 510 1064 q 560 1174 560 1128 l 685 1174 q 624 1014 685 1072 q 464 956 563 956 m 472 -14 q 178 76 285 -14 q 72 336 72 167 l 72 894 l 260 894 l 260 350 q 315 197 260 249 q 472 146 369 146 q 629 197 575 146 q 683 350 683 249 l 683 894 l 871 894 l 871 336 q 765 77 871 168 q 472 -14 660 -14 z "},"Ǔ":{"ha":943,"x_min":72,"x_max":871,"o":"m 225 1197 l 372 1197 l 472 1058 l 575 1197 l 719 1197 l 532 956 l 413 956 l 225 1197 m 472 -14 q 178 76 285 -14 q 72 336 72 167 l 72 894 l 260 894 l 260 350 q 315 197 260 249 q 472 146 369 146 q 629 197 575 146 q 683 350 683 249 l 683 894 l 871 894 l 871 336 q 765 77 871 168 q 472 -14 660 -14 z "},"Û":{"ha":943,"x_min":72,"x_max":871,"o":"m 413 1197 l 532 1197 l 719 956 l 575 956 l 472 1094 l 372 956 l 225 956 l 413 1197 m 472 -14 q 178 76 285 -14 q 72 336 72 167 l 72 894 l 260 894 l 260 350 q 315 197 260 249 q 472 146 369 146 q 629 197 575 146 q 683 350 683 249 l 683 894 l 871 894 l 871 336 q 765 77 871 168 q 472 -14 660 -14 z "},"Ü":{"ha":943,"x_min":72,"x_max":871,"o":"m 263 1126 l 410 1126 l 410 990 l 263 990 l 263 1126 m 535 1126 l 682 1126 l 682 990 l 535 990 l 535 1126 m 472 -14 q 178 76 285 -14 q 72 336 72 167 l 72 894 l 260 894 l 260 350 q 315 197 260 249 q 472 146 369 146 q 629 197 575 146 q 683 350 683 249 l 683 894 l 871 894 l 871 336 q 765 77 871 168 q 472 -14 660 -14 z "},"Ǘ":{"ha":943,"x_min":72,"x_max":871,"o":"m 485 1292 l 626 1292 l 535 1113 l 403 1113 l 485 1292 m 263 1085 l 403 1085 l 403 956 l 263 956 l 263 1085 m 542 1085 l 682 1085 l 682 956 l 542 956 l 542 1085 m 472 -14 q 178 76 285 -14 q 72 336 72 167 l 72 894 l 260 894 l 260 350 q 315 197 260 249 q 472 146 369 146 q 629 197 575 146 q 683 350 683 249 l 683 894 l 871 894 l 871 336 q 765 77 871 168 q 472 -14 660 -14 z "},"Ǚ":{"ha":943,"x_min":72,"x_max":871,"o":"m 251 1276 l 390 1276 l 474 1175 l 558 1276 l 694 1276 l 538 1108 l 408 1108 l 251 1276 m 263 1085 l 403 1085 l 403 956 l 263 956 l 263 1085 m 542 1085 l 682 1085 l 682 956 l 542 956 l 542 1085 m 472 -14 q 178 76 285 -14 q 72 336 72 167 l 72 894 l 260 894 l 260 350 q 315 197 260 249 q 472 146 369 146 q 629 197 575 146 q 683 350 683 249 l 683 894 l 871 894 l 871 336 q 765 77 871 168 q 472 -14 660 -14 z "},"Ǜ":{"ha":943,"x_min":72,"x_max":871,"o":"m 317 1292 l 458 1292 l 540 1113 l 408 1113 l 317 1292 m 261 1085 l 401 1085 l 401 956 l 261 956 l 261 1085 m 540 1085 l 681 1085 l 681 956 l 540 956 l 540 1085 m 472 -14 q 178 76 285 -14 q 72 336 72 167 l 72 894 l 260 894 l 260 350 q 315 197 260 249 q 472 146 369 146 q 629 197 575 146 q 683 350 683 249 l 683 894 l 871 894 l 871 336 q 765 77 871 168 q 472 -14 660 -14 z "},"Ǖ":{"ha":943,"x_min":72,"x_max":871,"o":"m 258 1310 l 686 1310 l 686 1194 l 258 1194 l 258 1310 m 263 1111 l 410 1111 l 410 975 l 263 975 l 263 1111 m 535 1111 l 682 1111 l 682 975 l 535 975 l 535 1111 m 472 -14 q 178 76 285 -14 q 72 336 72 167 l 72 894 l 260 894 l 260 350 q 315 197 260 249 q 472 146 369 146 q 629 197 575 146 q 683 350 683 249 l 683 894 l 871 894 l 871 336 q 765 77 871 168 q 472 -14 660 -14 z "},"Ụ":{"ha":943,"x_min":72,"x_max":871,"o":"m 472 -14 q 178 76 285 -14 q 72 336 72 167 l 72 894 l 260 894 l 260 350 q 315 197 260 249 q 472 146 369 146 q 629 197 575 146 q 683 350 683 249 l 683 894 l 871 894 l 871 336 q 765 77 871 168 q 472 -14 660 -14 m 397 -114 l 546 -114 l 546 -251 l 397 -251 l 397 -114 z "},"Ù":{"ha":943,"x_min":72,"x_max":871,"o":"m 290 1215 l 453 1215 l 564 956 l 413 956 l 290 1215 m 472 -14 q 178 76 285 -14 q 72 336 72 167 l 72 894 l 260 894 l 260 350 q 315 197 260 249 q 472 146 369 146 q 629 197 575 146 q 683 350 683 249 l 683 894 l 871 894 l 871 336 q 765 77 871 168 q 472 -14 660 -14 z "},"Ủ":{"ha":943,"x_min":72,"x_max":871,"o":"m 399 1067 q 498 1085 472 1071 q 524 1133 524 1100 q 428 1188 524 1188 q 382 1183 407 1188 q 342 1172 357 1179 l 342 1265 q 481 1283 396 1283 q 615 1247 568 1283 q 663 1150 663 1211 q 635 1061 663 1092 q 542 1018 608 1031 l 542 954 l 399 954 l 399 1067 m 472 -14 q 178 76 285 -14 q 72 336 72 167 l 72 894 l 260 894 l 260 350 q 315 197 260 249 q 472 146 369 146 q 629 197 575 146 q 683 350 683 249 l 683 894 l 871 894 l 871 336 q 765 77 871 168 q 472 -14 660 -14 z "},"Ư":{"ha":1164,"x_min":72,"x_max":1139,"o":"m 472 -14 q 178 76 285 -14 q 72 336 72 167 l 72 894 l 260 894 l 260 350 q 315 197 260 249 q 472 146 369 146 q 629 197 575 146 q 683 350 683 249 l 683 894 l 871 894 l 871 806 q 974 841 944 808 q 1004 956 1004 874 l 1139 956 q 1111 793 1139 853 q 1026 708 1083 733 q 871 681 968 682 l 871 336 q 765 77 871 168 q 472 -14 660 -14 z "},"Ứ":{"ha":1164,"x_min":72,"x_max":1139,"o":"m 517 1215 l 679 1215 l 557 956 l 406 956 l 517 1215 m 472 -14 q 178 76 285 -14 q 72 336 72 167 l 72 894 l 260 894 l 260 350 q 315 197 260 249 q 472 146 369 146 q 629 197 575 146 q 683 350 683 249 l 683 894 l 871 894 l 871 806 q 974 841 944 808 q 1004 956 1004 874 l 1139 956 q 1111 793 1139 853 q 1026 708 1083 733 q 871 681 968 682 l 871 336 q 765 77 871 168 q 472 -14 660 -14 z "},"Ự":{"ha":1164,"x_min":72,"x_max":1139,"o":"m 472 -14 q 178 76 285 -14 q 72 336 72 167 l 72 894 l 260 894 l 260 350 q 315 197 260 249 q 472 146 369 146 q 629 197 575 146 q 683 350 683 249 l 683 894 l 871 894 l 871 806 q 974 841 944 808 q 1004 956 1004 874 l 1139 956 q 1111 793 1139 853 q 1026 708 1083 733 q 871 681 968 682 l 871 336 q 765 77 871 168 q 472 -14 660 -14 m 396 -114 l 544 -114 l 544 -251 l 396 -251 l 396 -114 z "},"Ừ":{"ha":1164,"x_min":72,"x_max":1139,"o":"m 288 1215 l 450 1215 l 561 956 l 410 956 l 288 1215 m 472 -14 q 178 76 285 -14 q 72 336 72 167 l 72 894 l 260 894 l 260 350 q 315 197 260 249 q 472 146 369 146 q 629 197 575 146 q 683 350 683 249 l 683 894 l 871 894 l 871 806 q 974 841 944 808 q 1004 956 1004 874 l 1139 956 q 1111 793 1139 853 q 1026 708 1083 733 q 871 681 968 682 l 871 336 q 765 77 871 168 q 472 -14 660 -14 z "},"Ử":{"ha":1164,"x_min":72,"x_max":1139,"o":"m 407 1067 q 506 1085 481 1071 q 532 1133 532 1100 q 436 1188 532 1188 q 390 1183 415 1188 q 350 1172 365 1179 l 350 1265 q 489 1283 404 1283 q 624 1247 576 1283 q 671 1150 671 1211 q 644 1061 671 1092 q 550 1018 617 1031 l 550 954 l 407 954 l 407 1067 m 472 -14 q 178 76 285 -14 q 72 336 72 167 l 72 894 l 260 894 l 260 350 q 315 197 260 249 q 472 146 369 146 q 629 197 575 146 q 683 350 683 249 l 683 894 l 871 894 l 871 806 q 974 841 944 808 q 1004 956 1004 874 l 1139 956 q 1111 793 1139 853 q 1026 708 1083 733 q 871 681 968 682 l 871 336 q 765 77 871 168 q 472 -14 660 -14 z "},"Ữ":{"ha":1164,"x_min":72,"x_max":1139,"o":"m 592 968 q 538 975 564 968 q 469 997 511 982 q 368 1024 404 1024 q 243 972 290 1024 l 243 1106 q 295 1137 263 1125 q 364 1149 328 1149 q 420 1141 393 1149 q 481 1119 447 1133 q 541 1099 519 1106 q 588 1093 563 1093 q 703 1146 665 1093 l 703 1013 q 659 981 689 993 q 592 968 629 968 m 472 -14 q 178 76 285 -14 q 72 336 72 167 l 72 894 l 260 894 l 260 350 q 315 197 260 249 q 472 146 369 146 q 629 197 575 146 q 683 350 683 249 l 683 894 l 871 894 l 871 806 q 974 841 944 808 q 1004 956 1004 874 l 1139 956 q 1111 793 1139 853 q 1026 708 1083 733 q 871 681 968 682 l 871 336 q 765 77 871 168 q 472 -14 660 -14 z "},"Ű":{"ha":943,"x_min":72,"x_max":871,"o":"m 318 1199 l 485 1199 l 357 954 l 208 954 l 318 1199 m 635 1199 l 801 1199 l 674 954 l 525 954 l 635 1199 m 472 -14 q 178 76 285 -14 q 72 336 72 167 l 72 894 l 260 894 l 260 350 q 315 197 260 249 q 472 146 369 146 q 629 197 575 146 q 683 350 683 249 l 683 894 l 871 894 l 871 336 q 765 77 871 168 q 472 -14 660 -14 z "},"Ū":{"ha":943,"x_min":72,"x_max":871,"o":"m 258 1118 l 686 1118 l 686 1003 l 258 1003 l 258 1118 m 472 -14 q 178 76 285 -14 q 72 336 72 167 l 72 894 l 260 894 l 260 350 q 315 197 260 249 q 472 146 369 146 q 629 197 575 146 q 683 350 683 249 l 683 894 l 871 894 l 871 336 q 765 77 871 168 q 472 -14 660 -14 z "},"Ų":{"ha":943,"x_min":72,"x_max":871,"o":"m 871 894 l 871 336 q 799 111 871 197 q 594 -3 726 25 q 528 -71 553 -35 q 504 -144 504 -107 q 567 -196 504 -196 q 635 -181 608 -196 l 635 -286 q 583 -300 615 -294 q 517 -306 550 -306 q 403 -273 449 -306 q 357 -179 357 -240 q 378 -89 357 -132 q 440 -14 400 -46 q 169 85 267 -6 q 72 336 72 175 l 72 894 l 260 894 l 260 350 q 315 197 260 249 q 472 146 369 146 q 629 197 575 146 q 683 350 683 249 l 683 894 l 871 894 z "},"Ů":{"ha":943,"x_min":72,"x_max":871,"o":"m 471 956 q 346 1003 393 956 q 299 1121 299 1050 q 346 1240 299 1192 q 471 1288 393 1288 q 597 1240 550 1288 q 644 1121 644 1193 q 597 1002 644 1049 q 471 956 550 956 m 471 1042 q 531 1064 508 1042 q 553 1121 553 1086 q 531 1178 553 1156 q 471 1200 508 1200 q 413 1177 435 1200 q 390 1121 390 1154 q 413 1065 390 1088 q 471 1042 435 1042 m 472 -14 q 178 76 285 -14 q 72 336 72 167 l 72 894 l 260 894 l 260 350 q 315 197 260 249 q 472 146 369 146 q 629 197 575 146 q 683 350 683 249 l 683 894 l 871 894 l 871 336 q 765 77 871 168 q 472 -14 660 -14 z "},"Ũ":{"ha":943,"x_min":72,"x_max":871,"o":"m 590 972 q 536 979 563 972 q 468 1001 510 986 q 367 1028 401 1028 q 242 976 289 1028 l 242 1110 q 294 1141 261 1129 q 363 1153 326 1153 q 419 1145 392 1153 q 479 1124 446 1138 q 540 1103 518 1110 q 586 1097 561 1097 q 701 1150 664 1097 l 701 1017 q 658 985 688 997 q 590 972 628 972 m 472 -14 q 178 76 285 -14 q 72 336 72 167 l 72 894 l 260 894 l 260 350 q 315 197 260 249 q 472 146 369 146 q 629 197 575 146 q 683 350 683 249 l 683 894 l 871 894 l 871 336 q 765 77 871 168 q 472 -14 660 -14 z "},"V":{"ha":990,"x_min":51,"x_max":939,"o":"m 51 894 l 247 894 l 494 210 l 743 894 l 939 894 l 599 0 l 393 0 l 51 894 z "},"W":{"ha":1215,"x_min":51,"x_max":1164,"o":"m 51 894 l 236 894 l 371 290 l 517 778 l 517 894 l 669 894 l 842 289 l 981 894 l 1164 894 l 957 0 l 779 0 l 615 572 l 439 0 l 260 0 l 51 894 z "},"Ẃ":{"ha":1215,"x_min":51,"x_max":1164,"o":"m 633 1215 l 796 1215 l 674 956 l 522 956 l 633 1215 m 51 894 l 236 894 l 371 290 l 517 778 l 517 894 l 669 894 l 842 289 l 981 894 l 1164 894 l 957 0 l 779 0 l 615 572 l 439 0 l 260 0 l 51 894 z "},"Ŵ":{"ha":1215,"x_min":51,"x_max":1164,"o":"m 556 1197 l 675 1197 l 863 956 l 718 956 l 615 1094 l 515 956 l 368 956 l 556 1197 m 51 894 l 236 894 l 371 290 l 517 778 l 517 894 l 669 894 l 842 289 l 981 894 l 1164 894 l 957 0 l 779 0 l 615 572 l 439 0 l 260 0 l 51 894 z "},"Ẅ":{"ha":1215,"x_min":51,"x_max":1164,"o":"m 406 1126 l 553 1126 l 553 990 l 406 990 l 406 1126 m 678 1126 l 825 1126 l 825 990 l 678 990 l 678 1126 m 51 894 l 236 894 l 371 290 l 517 778 l 517 894 l 669 894 l 842 289 l 981 894 l 1164 894 l 957 0 l 779 0 l 615 572 l 439 0 l 260 0 l 51 894 z "},"Ẁ":{"ha":1215,"x_min":51,"x_max":1164,"o":"m 401 1215 l 564 1215 l 675 956 l 524 956 l 401 1215 m 51 894 l 236 894 l 371 290 l 517 778 l 517 894 l 669 894 l 842 289 l 981 894 l 1164 894 l 957 0 l 779 0 l 615 572 l 439 0 l 260 0 l 51 894 z "},"X":{"ha":975,"x_min":51,"x_max":924,"o":"m 375 449 l 60 894 l 281 894 l 488 596 l 694 894 l 915 894 l 600 449 l 924 0 l 700 0 l 488 299 l 275 0 l 51 0 l 375 449 z "},"Y":{"ha":932,"x_min":51,"x_max":881,"o":"m 372 331 l 51 894 l 247 894 l 467 490 l 686 894 l 881 894 l 560 331 l 560 0 l 372 0 l 372 331 z "},"Ý":{"ha":932,"x_min":51,"x_max":881,"o":"m 490 1215 l 653 1215 l 531 956 l 379 956 l 490 1215 m 372 331 l 51 894 l 247 894 l 467 490 l 686 894 l 881 894 l 560 331 l 560 0 l 372 0 l 372 331 z "},"Ŷ":{"ha":932,"x_min":51,"x_max":881,"o":"m 407 1197 l 526 1197 l 714 956 l 569 956 l 467 1094 l 367 956 l 219 956 l 407 1197 m 372 331 l 51 894 l 247 894 l 467 490 l 686 894 l 881 894 l 560 331 l 560 0 l 372 0 l 372 331 z "},"Ÿ":{"ha":932,"x_min":51,"x_max":881,"o":"m 257 1126 l 404 1126 l 404 990 l 257 990 l 257 1126 m 529 1126 l 676 1126 l 676 990 l 529 990 l 529 1126 m 372 331 l 51 894 l 247 894 l 467 490 l 686 894 l 881 894 l 560 331 l 560 0 l 372 0 l 372 331 z "},"Ẏ":{"ha":932,"x_min":51,"x_max":881,"o":"m 393 1126 l 539 1126 l 539 990 l 393 990 l 393 1126 m 372 331 l 51 894 l 247 894 l 467 490 l 686 894 l 881 894 l 560 331 l 560 0 l 372 0 l 372 331 z "},"Ỵ":{"ha":932,"x_min":51,"x_max":881,"o":"m 372 331 l 51 894 l 247 894 l 467 490 l 686 894 l 881 894 l 560 331 l 560 0 l 372 0 l 372 331 m 392 -100 l 540 -100 l 540 -237 l 392 -237 l 392 -100 z "},"Ỳ":{"ha":932,"x_min":51,"x_max":881,"o":"m 282 1215 l 444 1215 l 556 956 l 404 956 l 282 1215 m 372 331 l 51 894 l 247 894 l 467 490 l 686 894 l 881 894 l 560 331 l 560 0 l 372 0 l 372 331 z "},"Ỷ":{"ha":932,"x_min":51,"x_max":881,"o":"m 388 1067 q 487 1085 461 1071 q 513 1133 513 1100 q 417 1188 513 1188 q 371 1183 396 1188 q 331 1172 346 1179 l 331 1265 q 469 1283 385 1283 q 604 1247 557 1283 q 651 1150 651 1211 q 624 1061 651 1092 q 531 1018 597 1031 l 531 954 l 388 954 l 388 1067 m 372 331 l 51 894 l 247 894 l 467 490 l 686 894 l 881 894 l 560 331 l 560 0 l 372 0 l 372 331 z "},"Ỹ":{"ha":932,"x_min":51,"x_max":881,"o":"m 585 972 q 531 979 557 972 q 463 1001 504 986 q 361 1028 397 1028 q 236 976 283 1028 l 236 1110 q 288 1141 256 1129 q 357 1153 321 1153 q 413 1145 386 1153 q 474 1124 440 1138 q 534 1103 513 1110 q 581 1097 556 1097 q 696 1150 658 1097 l 696 1017 q 652 985 682 997 q 585 972 622 972 m 372 331 l 51 894 l 247 894 l 467 490 l 686 894 l 881 894 l 560 331 l 560 0 l 372 0 l 372 331 z "},"Z":{"ha":804,"x_min":51,"x_max":753,"o":"m 51 97 l 501 739 l 74 739 l 74 894 l 746 894 l 746 781 l 300 144 l 753 144 l 753 0 l 51 0 l 51 97 z "},"Ź":{"ha":804,"x_min":51,"x_max":753,"o":"m 446 1215 l 608 1215 l 486 956 l 335 956 l 446 1215 m 51 97 l 501 739 l 74 739 l 74 894 l 746 894 l 746 781 l 300 144 l 753 144 l 753 0 l 51 0 l 51 97 z "},"Ž":{"ha":804,"x_min":51,"x_max":753,"o":"m 188 1197 l 335 1197 l 435 1058 l 538 1197 l 682 1197 l 494 956 l 375 956 l 188 1197 m 51 97 l 501 739 l 74 739 l 74 894 l 746 894 l 746 781 l 300 144 l 753 144 l 753 0 l 51 0 l 51 97 z "},"Ż":{"ha":804,"x_min":51,"x_max":753,"o":"m 350 1126 l 496 1126 l 496 990 l 350 990 l 350 1126 m 51 97 l 501 739 l 74 739 l 74 894 l 746 894 l 746 781 l 300 144 l 753 144 l 753 0 l 51 0 l 51 97 z "},"Ẓ":{"ha":804,"x_min":51,"x_max":753,"o":"m 51 97 l 501 739 l 74 739 l 74 894 l 746 894 l 746 781 l 300 144 l 753 144 l 753 0 l 51 0 l 51 97 m 356 -114 l 504 -114 l 504 -251 l 356 -251 l 356 -114 z "},"a":{"ha":769,"x_min":51,"x_max":697,"o":"m 286 -14 q 119 40 186 -14 q 51 190 51 93 q 122 347 51 289 q 324 404 192 404 l 518 404 l 518 422 q 503 488 518 464 q 452 522 489 511 q 347 533 415 533 q 131 499 235 533 l 131 631 q 245 661 179 650 q 386 672 311 672 q 697 418 697 672 l 697 0 l 535 0 l 525 60 q 286 -14 444 -14 m 338 110 q 444 130 397 110 q 518 183 490 150 l 518 288 l 328 288 q 218 197 218 288 q 338 110 218 110 z "},"á":{"ha":769,"x_min":51,"x_max":697,"o":"m 429 985 l 592 985 l 469 725 l 318 725 l 429 985 m 286 -14 q 119 40 186 -14 q 51 190 51 93 q 122 347 51 289 q 324 404 192 404 l 518 404 l 518 422 q 503 488 518 464 q 452 522 489 511 q 347 533 415 533 q 131 499 235 533 l 131 631 q 245 661 179 650 q 386 672 311 672 q 697 418 697 672 l 697 0 l 535 0 l 525 60 q 286 -14 444 -14 m 338 110 q 444 130 397 110 q 518 183 490 150 l 518 288 l 328 288 q 218 197 218 288 q 338 110 218 110 z "},"ă":{"ha":769,"x_min":51,"x_max":697,"o":"m 417 725 q 258 783 318 725 q 199 943 199 842 l 324 943 q 348 865 324 896 q 417 833 372 833 q 488 865 463 833 q 513 943 513 897 l 638 943 q 576 783 638 842 q 417 725 515 725 m 286 -14 q 119 40 186 -14 q 51 190 51 93 q 122 347 51 289 q 324 404 192 404 l 518 404 l 518 422 q 503 488 518 464 q 452 522 489 511 q 347 533 415 533 q 131 499 235 533 l 131 631 q 245 661 179 650 q 386 672 311 672 q 697 418 697 672 l 697 0 l 535 0 l 525 60 q 286 -14 444 -14 m 338 110 q 444 130 397 110 q 518 183 490 150 l 518 288 l 328 288 q 218 197 218 288 q 338 110 218 110 z "},"ắ":{"ha":769,"x_min":51,"x_max":697,"o":"m 431 1101 l 572 1101 l 471 906 l 339 906 l 431 1101 m 415 725 q 249 778 311 725 q 186 942 186 832 l 297 942 q 328 854 297 885 q 415 824 358 824 q 501 854 471 824 q 532 942 532 885 l 643 942 q 581 778 643 832 q 415 725 518 725 m 286 -14 q 119 40 186 -14 q 51 190 51 93 q 122 347 51 289 q 324 404 192 404 l 518 404 l 518 422 q 503 488 518 464 q 452 522 489 511 q 347 533 415 533 q 131 499 235 533 l 131 631 q 245 661 179 650 q 386 672 311 672 q 697 418 697 672 l 697 0 l 535 0 l 525 60 q 286 -14 444 -14 m 338 110 q 444 130 397 110 q 518 183 490 150 l 518 288 l 328 288 q 218 197 218 288 q 338 110 218 110 z "},"ặ":{"ha":769,"x_min":51,"x_max":697,"o":"m 417 725 q 258 783 318 725 q 199 943 199 842 l 324 943 q 348 865 324 896 q 417 833 372 833 q 488 865 463 833 q 513 943 513 897 l 638 943 q 576 783 638 842 q 417 725 515 725 m 286 -14 q 119 40 186 -14 q 51 190 51 93 q 122 347 51 289 q 324 404 192 404 l 518 404 l 518 422 q 503 488 518 464 q 452 522 489 511 q 347 533 415 533 q 131 499 235 533 l 131 631 q 245 661 179 650 q 386 672 311 672 q 697 418 697 672 l 697 0 l 535 0 l 525 60 q 286 -14 444 -14 m 338 110 q 444 130 397 110 q 518 183 490 150 l 518 288 l 328 288 q 218 197 218 288 q 338 110 218 110 m 344 -114 l 493 -114 l 493 -251 l 344 -251 l 344 -114 z "},"ằ":{"ha":769,"x_min":51,"x_max":697,"o":"m 251 1101 l 393 1101 l 485 906 l 353 906 l 251 1101 m 408 725 q 243 778 306 725 q 181 942 181 832 l 292 942 q 322 854 292 885 q 408 824 353 824 q 496 854 465 824 q 526 942 526 885 l 638 942 q 575 778 638 832 q 408 725 513 725 m 286 -14 q 119 40 186 -14 q 51 190 51 93 q 122 347 51 289 q 324 404 192 404 l 518 404 l 518 422 q 503 488 518 464 q 452 522 489 511 q 347 533 415 533 q 131 499 235 533 l 131 631 q 245 661 179 650 q 386 672 311 672 q 697 418 697 672 l 697 0 l 535 0 l 525 60 q 286 -14 444 -14 m 338 110 q 444 130 397 110 q 518 183 490 150 l 518 288 l 328 288 q 218 197 218 288 q 338 110 218 110 z "},"ẳ":{"ha":769,"x_min":51,"x_max":697,"o":"m 349 1001 q 434 1018 410 1004 q 458 1058 458 1032 q 442 1093 458 1083 q 389 1103 426 1103 q 314 1086 351 1103 l 314 1165 q 436 1182 367 1182 q 544 1152 506 1182 q 582 1071 582 1122 q 558 999 582 1025 q 476 963 533 974 l 476 918 l 349 918 l 349 1001 m 418 725 q 251 778 314 725 q 189 942 189 832 l 300 942 q 331 854 300 885 q 418 824 361 824 q 504 854 474 824 q 535 942 535 885 l 646 942 q 583 778 646 832 q 418 725 521 725 m 286 -14 q 119 40 186 -14 q 51 190 51 93 q 122 347 51 289 q 324 404 192 404 l 518 404 l 518 422 q 503 488 518 464 q 452 522 489 511 q 347 533 415 533 q 131 499 235 533 l 131 631 q 245 661 179 650 q 386 672 311 672 q 697 418 697 672 l 697 0 l 535 0 l 525 60 q 286 -14 444 -14 m 338 110 q 444 130 397 110 q 518 183 490 150 l 518 288 l 328 288 q 218 197 218 288 q 338 110 218 110 z "},"ẵ":{"ha":769,"x_min":51,"x_max":697,"o":"m 546 971 q 492 978 518 971 q 424 1000 465 985 q 322 1026 358 1026 q 197 975 244 1026 l 197 1094 q 249 1126 217 1114 q 318 1138 282 1138 q 374 1130 347 1138 q 435 1108 401 1122 q 495 1088 474 1094 q 542 1082 517 1082 q 657 1135 619 1082 l 657 1015 q 613 983 643 996 q 546 971 583 971 m 426 725 q 260 778 322 725 q 197 942 197 832 l 308 942 q 339 854 308 885 q 426 824 369 824 q 513 854 482 824 q 543 942 543 885 l 654 942 q 592 778 654 832 q 426 725 529 725 m 286 -14 q 119 40 186 -14 q 51 190 51 93 q 122 347 51 289 q 324 404 192 404 l 518 404 l 518 422 q 503 488 518 464 q 452 522 489 511 q 347 533 415 533 q 131 499 235 533 l 131 631 q 245 661 179 650 q 386 672 311 672 q 697 418 697 672 l 697 0 l 535 0 l 525 60 q 286 -14 444 -14 m 338 110 q 444 130 397 110 q 518 183 490 150 l 518 288 l 328 288 q 218 197 218 288 q 338 110 218 110 z "},"ǎ":{"ha":769,"x_min":51,"x_max":697,"o":"m 151 967 l 299 967 l 399 828 l 501 967 l 646 967 l 458 725 l 339 725 l 151 967 m 286 -14 q 119 40 186 -14 q 51 190 51 93 q 122 347 51 289 q 324 404 192 404 l 518 404 l 518 422 q 503 488 518 464 q 452 522 489 511 q 347 533 415 533 q 131 499 235 533 l 131 631 q 245 661 179 650 q 386 672 311 672 q 697 418 697 672 l 697 0 l 535 0 l 525 60 q 286 -14 444 -14 m 338 110 q 444 130 397 110 q 518 183 490 150 l 518 288 l 328 288 q 218 197 218 288 q 338 110 218 110 z "},"â":{"ha":781,"x_min":63,"x_max":708,"o":"m 353 967 l 472 967 l 660 725 l 515 725 l 413 864 l 313 725 l 165 725 l 353 967 m 297 -14 q 130 40 197 -14 q 63 190 63 93 q 133 347 63 289 q 335 404 203 404 l 529 404 l 529 422 q 515 488 529 464 q 463 522 500 511 q 358 533 426 533 q 142 499 246 533 l 142 631 q 256 661 190 650 q 397 672 322 672 q 708 418 708 672 l 708 0 l 546 0 l 536 60 q 297 -14 456 -14 m 349 110 q 455 130 408 110 q 529 183 501 150 l 529 288 l 339 288 q 229 197 229 288 q 349 110 229 110 z "},"ấ":{"ha":769,"x_min":51,"x_max":785,"o":"m 643 1082 l 785 1082 l 683 886 l 551 886 l 643 1082 m 339 911 l 482 911 l 657 724 l 506 724 l 411 836 l 318 724 l 164 724 l 339 911 m 286 -14 q 119 40 186 -14 q 51 190 51 93 q 122 347 51 289 q 324 404 192 404 l 518 404 l 518 422 q 503 488 518 464 q 452 522 489 511 q 347 533 415 533 q 131 499 235 533 l 131 631 q 245 661 179 650 q 386 672 311 672 q 697 418 697 672 l 697 0 l 535 0 l 525 60 q 286 -14 444 -14 m 338 110 q 444 130 397 110 q 518 183 490 150 l 518 288 l 328 288 q 218 197 218 288 q 338 110 218 110 z "},"ậ":{"ha":769,"x_min":51,"x_max":697,"o":"m 346 967 l 465 967 l 653 725 l 508 725 l 406 864 l 306 725 l 158 725 l 346 967 m 286 -14 q 119 40 186 -14 q 51 190 51 93 q 122 347 51 289 q 324 404 192 404 l 518 404 l 518 422 q 503 488 518 464 q 452 522 489 511 q 347 533 415 533 q 131 499 235 533 l 131 631 q 245 661 179 650 q 386 672 311 672 q 697 418 697 672 l 697 0 l 535 0 l 525 60 q 286 -14 444 -14 m 338 110 q 444 130 397 110 q 518 183 490 150 l 518 288 l 328 288 q 218 197 218 288 q 338 110 218 110 m 332 -114 l 481 -114 l 481 -251 l 332 -251 l 332 -114 z "},"ầ":{"ha":769,"x_min":26,"x_max":697,"o":"m 26 1082 l 168 1082 l 260 886 l 128 886 l 26 1082 m 329 911 l 472 911 l 647 724 l 493 724 l 400 836 l 306 724 l 154 724 l 329 911 m 286 -14 q 119 40 186 -14 q 51 190 51 93 q 122 347 51 289 q 324 404 192 404 l 518 404 l 518 422 q 503 488 518 464 q 452 522 489 511 q 347 533 415 533 q 131 499 235 533 l 131 631 q 245 661 179 650 q 386 672 311 672 q 697 418 697 672 l 697 0 l 535 0 l 525 60 q 286 -14 444 -14 m 338 110 q 444 130 397 110 q 518 183 490 150 l 518 288 l 328 288 q 218 197 218 288 q 338 110 218 110 z "},"ẩ":{"ha":779,"x_min":51,"x_max":788,"o":"m 553 953 q 636 967 615 956 q 657 1001 657 978 q 642 1031 657 1022 q 594 1039 626 1039 q 519 1022 556 1039 l 519 1108 q 635 1125 569 1125 q 747 1094 707 1125 q 788 1013 788 1064 q 682 903 788 918 l 682 856 l 553 856 l 553 953 m 328 911 l 471 911 l 646 724 l 494 724 l 400 836 l 307 724 l 153 724 l 328 911 m 286 -14 q 119 40 186 -14 q 51 190 51 93 q 122 347 51 289 q 324 404 192 404 l 518 404 l 518 422 q 503 488 518 464 q 452 522 489 511 q 347 533 415 533 q 131 499 235 533 l 131 631 q 245 661 179 650 q 386 672 311 672 q 697 418 697 672 l 697 0 l 535 0 l 525 60 q 286 -14 444 -14 m 338 110 q 444 130 397 110 q 518 183 490 150 l 518 288 l 328 288 q 218 197 218 288 q 338 110 218 110 z "},"ẫ":{"ha":769,"x_min":51,"x_max":697,"o":"m 533 932 q 479 939 506 932 q 411 961 453 946 q 310 988 344 988 q 185 936 232 988 l 185 1056 q 237 1087 204 1075 q 306 1099 269 1099 q 362 1091 335 1099 q 422 1069 389 1083 q 483 1049 461 1056 q 529 1043 504 1043 q 644 1096 607 1043 l 644 976 q 601 944 631 957 q 533 932 571 932 m 331 911 l 474 911 l 649 724 l 497 724 l 403 836 l 310 724 l 156 724 l 331 911 m 286 -14 q 119 40 186 -14 q 51 190 51 93 q 122 347 51 289 q 324 404 192 404 l 518 404 l 518 422 q 503 488 518 464 q 452 522 489 511 q 347 533 415 533 q 131 499 235 533 l 131 631 q 245 661 179 650 q 386 672 311 672 q 697 418 697 672 l 697 0 l 535 0 l 525 60 q 286 -14 444 -14 m 338 110 q 444 130 397 110 q 518 183 490 150 l 518 288 l 328 288 q 218 197 218 288 q 338 110 218 110 z "},"ä":{"ha":769,"x_min":51,"x_max":697,"o":"m 203 896 l 350 896 l 350 760 l 203 760 l 203 896 m 475 896 l 622 896 l 622 760 l 475 760 l 475 896 m 286 -14 q 119 40 186 -14 q 51 190 51 93 q 122 347 51 289 q 324 404 192 404 l 518 404 l 518 422 q 503 488 518 464 q 452 522 489 511 q 347 533 415 533 q 131 499 235 533 l 131 631 q 245 661 179 650 q 386 672 311 672 q 697 418 697 672 l 697 0 l 535 0 l 525 60 q 286 -14 444 -14 m 338 110 q 444 130 397 110 q 518 183 490 150 l 518 288 l 328 288 q 218 197 218 288 q 338 110 218 110 z "},"ạ":{"ha":769,"x_min":51,"x_max":697,"o":"m 286 -14 q 119 40 186 -14 q 51 190 51 93 q 122 347 51 289 q 324 404 192 404 l 518 404 l 518 422 q 503 488 518 464 q 452 522 489 511 q 347 533 415 533 q 131 499 235 533 l 131 631 q 245 661 179 650 q 386 672 311 672 q 697 418 697 672 l 697 0 l 535 0 l 525 60 q 286 -14 444 -14 m 338 110 q 444 130 397 110 q 518 183 490 150 l 518 288 l 328 288 q 218 197 218 288 q 338 110 218 110 m 340 -114 l 489 -114 l 489 -251 l 340 -251 l 340 -114 z "},"à":{"ha":769,"x_min":51,"x_max":697,"o":"m 214 985 l 376 985 l 488 725 l 336 725 l 214 985 m 286 -14 q 119 40 186 -14 q 51 190 51 93 q 122 347 51 289 q 324 404 192 404 l 518 404 l 518 422 q 503 488 518 464 q 452 522 489 511 q 347 533 415 533 q 131 499 235 533 l 131 631 q 245 661 179 650 q 386 672 311 672 q 697 418 697 672 l 697 0 l 535 0 l 525 60 q 286 -14 444 -14 m 338 110 q 444 130 397 110 q 518 183 490 150 l 518 288 l 328 288 q 218 197 218 288 q 338 110 218 110 z "},"ả":{"ha":769,"x_min":51,"x_max":697,"o":"m 319 836 q 419 855 393 840 q 444 903 444 869 q 349 957 444 957 q 303 953 328 957 q 263 942 278 949 l 263 1035 q 401 1053 317 1053 q 536 1017 489 1053 q 583 919 583 981 q 556 831 583 861 q 463 788 529 800 l 463 724 l 319 724 l 319 836 m 286 -14 q 119 40 186 -14 q 51 190 51 93 q 122 347 51 289 q 324 404 192 404 l 518 404 l 518 422 q 503 488 518 464 q 452 522 489 511 q 347 533 415 533 q 131 499 235 533 l 131 631 q 245 661 179 650 q 386 672 311 672 q 697 418 697 672 l 697 0 l 535 0 l 525 60 q 286 -14 444 -14 m 338 110 q 444 130 397 110 q 518 183 490 150 l 518 288 l 328 288 q 218 197 218 288 q 338 110 218 110 z "},"ɑ":{"ha":821,"x_min":51,"x_max":740,"o":"m 354 -14 q 133 61 214 -14 q 51 297 51 136 q 94 497 51 411 q 210 627 138 582 q 371 672 283 672 q 471 660 428 672 q 553 615 514 647 l 553 658 l 740 658 l 740 0 l 579 0 l 568 61 q 474 5 525 24 q 354 -14 422 -14 m 406 124 q 486 138 451 124 q 553 183 521 151 l 553 476 q 419 535 496 535 q 287 474 332 535 q 242 297 242 414 q 282 162 242 200 q 406 124 322 124 z "},"ā":{"ha":769,"x_min":51,"x_max":697,"o":"m 201 867 l 629 867 l 629 751 l 201 751 l 201 867 m 286 -14 q 119 40 186 -14 q 51 190 51 93 q 122 347 51 289 q 324 404 192 404 l 518 404 l 518 422 q 503 488 518 464 q 452 522 489 511 q 347 533 415 533 q 131 499 235 533 l 131 631 q 245 661 179 650 q 386 672 311 672 q 697 418 697 672 l 697 0 l 535 0 l 525 60 q 286 -14 444 -14 m 338 110 q 444 130 397 110 q 518 183 490 150 l 518 288 l 328 288 q 218 197 218 288 q 338 110 218 110 z "},"ą":{"ha":769,"x_min":51,"x_max":711,"o":"m 643 -196 q 711 -181 685 -196 l 711 -286 q 659 -300 692 -294 q 593 -306 626 -306 q 479 -273 525 -306 q 433 -179 433 -240 q 460 -80 433 -126 q 535 0 486 -33 l 525 60 q 286 -14 444 -14 q 119 40 186 -14 q 51 190 51 93 q 122 347 51 289 q 324 404 192 404 l 518 404 l 518 422 q 503 488 518 464 q 452 522 489 511 q 347 533 415 533 q 131 499 235 533 l 131 631 q 245 661 179 650 q 386 672 311 672 q 697 418 697 672 l 697 0 l 674 0 q 581 -144 581 -69 q 643 -196 581 -196 m 518 288 l 328 288 q 218 197 218 288 q 338 110 218 110 q 444 130 397 110 q 518 183 490 150 l 518 288 z "},"å":{"ha":769,"x_min":51,"x_max":697,"o":"m 418 725 q 293 772 340 725 q 246 890 246 819 q 293 1009 246 961 q 418 1057 340 1057 q 544 1010 497 1057 q 592 890 592 963 q 544 772 592 818 q 418 725 497 725 m 418 811 q 478 833 456 811 q 500 890 500 856 q 478 947 500 925 q 418 969 456 969 q 360 947 382 969 q 338 890 338 924 q 360 834 338 857 q 418 811 382 811 m 286 -14 q 119 40 186 -14 q 51 190 51 93 q 122 347 51 289 q 324 404 192 404 l 518 404 l 518 422 q 503 488 518 464 q 452 522 489 511 q 347 533 415 533 q 131 499 235 533 l 131 631 q 245 661 179 650 q 386 672 311 672 q 697 418 697 672 l 697 0 l 535 0 l 525 60 q 286 -14 444 -14 m 338 110 q 444 130 397 110 q 518 183 490 150 l 518 288 l 328 288 q 218 197 218 288 q 338 110 218 110 z "},"ǻ":{"ha":769,"x_min":51,"x_max":697,"o":"m 433 1299 l 596 1299 l 474 1092 l 322 1092 l 433 1299 m 404 718 q 279 765 326 718 q 232 883 232 813 q 279 1002 232 954 q 404 1050 326 1050 q 531 1003 483 1050 q 578 883 578 956 q 531 765 578 811 q 404 718 483 718 m 404 804 q 464 826 442 804 q 486 883 486 849 q 464 940 486 918 q 404 963 442 963 q 346 940 368 963 q 324 883 324 917 q 346 827 324 850 q 404 804 368 804 m 286 -14 q 119 40 186 -14 q 51 190 51 93 q 122 347 51 289 q 324 404 192 404 l 518 404 l 518 422 q 503 488 518 464 q 452 522 489 511 q 347 533 415 533 q 131 499 235 533 l 131 631 q 245 661 179 650 q 386 672 311 672 q 697 418 697 672 l 697 0 l 535 0 l 525 60 q 286 -14 444 -14 m 338 110 q 444 130 397 110 q 518 183 490 150 l 518 288 l 328 288 q 218 197 218 288 q 338 110 218 110 z "},"ã":{"ha":769,"x_min":51,"x_max":697,"o":"m 532 742 q 478 749 504 742 q 410 771 451 756 q 308 797 344 797 q 183 746 231 797 l 183 879 q 235 910 203 899 q 304 922 268 922 q 360 915 333 922 q 421 893 388 907 q 481 873 460 879 q 528 867 503 867 q 643 919 606 867 l 643 786 q 599 754 629 767 q 532 742 569 742 m 286 -14 q 119 40 186 -14 q 51 190 51 93 q 122 347 51 289 q 324 404 192 404 l 518 404 l 518 422 q 503 488 518 464 q 452 522 489 511 q 347 533 415 533 q 131 499 235 533 l 131 631 q 245 661 179 650 q 386 672 311 672 q 697 418 697 672 l 697 0 l 535 0 l 525 60 q 286 -14 444 -14 m 338 110 q 444 130 397 110 q 518 183 490 150 l 518 288 l 328 288 q 218 197 218 288 q 338 110 218 110 z "},"æ":{"ha":1225,"x_min":51,"x_max":1174,"o":"m 303 -14 q 123 40 194 -14 q 51 190 51 93 q 122 347 51 289 q 324 404 192 404 l 518 404 l 518 422 q 503 488 518 464 q 452 522 489 511 q 347 533 415 533 q 131 499 235 533 l 131 631 q 245 661 179 650 q 386 672 311 672 q 625 600 549 672 q 725 653 665 635 q 858 672 785 672 q 1091 594 1008 672 q 1174 383 1174 515 l 1174 264 l 697 264 q 768 154 711 186 q 933 122 825 122 q 1041 132 986 122 q 1135 157 1096 142 l 1135 28 q 894 -14 1043 -14 q 740 14 815 -14 q 625 93 665 42 q 488 12 560 38 q 303 -14 417 -14 m 1010 379 l 1010 415 q 864 538 1010 538 q 735 501 772 538 q 697 379 697 464 l 1010 379 m 338 110 q 518 178 453 110 l 518 288 l 328 288 q 218 197 218 288 q 338 110 218 110 z "},"ǽ":{"ha":1225,"x_min":51,"x_max":1174,"o":"m 643 985 l 806 985 l 683 725 l 532 725 l 643 985 m 303 -14 q 123 40 194 -14 q 51 190 51 93 q 122 347 51 289 q 324 404 192 404 l 518 404 l 518 422 q 503 488 518 464 q 452 522 489 511 q 347 533 415 533 q 131 499 235 533 l 131 631 q 245 661 179 650 q 386 672 311 672 q 625 600 549 672 q 725 653 665 635 q 858 672 785 672 q 1091 594 1008 672 q 1174 383 1174 515 l 1174 264 l 697 264 q 768 154 711 186 q 933 122 825 122 q 1041 132 986 122 q 1135 157 1096 142 l 1135 28 q 894 -14 1043 -14 q 740 14 815 -14 q 625 93 665 42 q 488 12 560 38 q 303 -14 417 -14 m 1010 379 l 1010 415 q 864 538 1010 538 q 735 501 772 538 q 697 379 697 464 l 1010 379 m 338 110 q 518 178 453 110 l 518 288 l 328 288 q 218 197 218 288 q 338 110 218 110 z "},"b":{"ha":819,"x_min":79,"x_max":768,"o":"m 467 -14 q 347 4 399 -14 q 251 61 294 22 l 242 0 l 79 0 l 79 936 l 267 936 l 267 622 q 461 672 349 672 q 688 590 608 672 q 768 335 768 507 q 689 74 768 161 q 467 -14 610 -14 m 414 124 q 540 175 501 124 q 578 335 578 226 q 539 489 578 443 q 413 535 500 535 q 331 522 368 535 q 267 486 293 510 l 267 183 q 332 139 293 154 q 414 124 371 124 z "},"c":{"ha":690,"x_min":51,"x_max":639,"o":"m 415 -14 q 145 74 239 -14 q 51 329 51 161 q 150 585 51 499 q 421 672 249 672 q 540 663 490 672 q 638 631 590 653 l 638 496 q 458 532 563 532 q 295 486 349 532 q 242 329 242 440 q 292 174 242 222 q 457 126 343 126 q 639 165 560 126 l 639 26 q 415 -14 546 -14 z "},"ć":{"ha":690,"x_min":51,"x_max":639,"o":"m 424 985 l 586 985 l 464 725 l 313 725 l 424 985 m 415 -14 q 145 74 239 -14 q 51 329 51 161 q 150 585 51 499 q 421 672 249 672 q 540 663 490 672 q 638 631 590 653 l 638 496 q 458 532 563 532 q 295 486 349 532 q 242 329 242 440 q 292 174 242 222 q 457 126 343 126 q 639 165 560 126 l 639 26 q 415 -14 546 -14 z "},"č":{"ha":692,"x_min":51,"x_max":640,"o":"m 146 967 l 293 967 l 393 828 l 496 967 l 640 967 l 453 725 l 333 725 l 146 967 m 415 -14 q 145 74 239 -14 q 51 329 51 161 q 150 585 51 499 q 421 672 249 672 q 540 663 490 672 q 638 631 590 653 l 638 496 q 458 532 563 532 q 295 486 349 532 q 242 329 242 440 q 292 174 242 222 q 457 126 343 126 q 639 165 560 126 l 639 26 q 415 -14 546 -14 z "},"ç":{"ha":690,"x_min":51,"x_max":639,"o":"m 639 26 q 450 -14 558 -7 l 433 -62 q 543 -96 506 -62 q 581 -189 581 -129 q 369 -333 581 -333 q 313 -330 346 -333 q 264 -322 279 -326 l 264 -228 q 349 -239 304 -239 q 436 -229 413 -239 q 460 -187 460 -219 q 435 -145 460 -154 q 353 -136 410 -136 l 292 -136 l 329 -8 q 123 97 194 11 q 51 329 51 183 q 150 585 51 499 q 421 672 249 672 q 540 663 490 672 q 638 631 590 653 l 638 496 q 458 532 563 532 q 295 486 349 532 q 242 329 242 440 q 292 174 242 222 q 457 126 343 126 q 639 165 560 126 l 639 26 z "},"ĉ":{"ha":690,"x_min":51,"x_max":639,"o":"m 328 967 l 447 967 l 635 725 l 490 725 l 388 864 l 288 725 l 140 725 l 328 967 m 415 -14 q 145 74 239 -14 q 51 329 51 161 q 150 585 51 499 q 421 672 249 672 q 540 663 490 672 q 638 631 590 653 l 638 496 q 458 532 563 532 q 295 486 349 532 q 242 329 242 440 q 292 174 242 222 q 457 126 343 126 q 639 165 560 126 l 639 26 q 415 -14 546 -14 z "},"ċ":{"ha":690,"x_min":51,"x_max":639,"o":"m 317 896 l 463 896 l 463 760 l 317 760 l 317 896 m 415 -14 q 145 74 239 -14 q 51 329 51 161 q 150 585 51 499 q 421 672 249 672 q 540 663 490 672 q 638 631 590 653 l 638 496 q 458 532 563 532 q 295 486 349 532 q 242 329 242 440 q 292 174 242 222 q 457 126 343 126 q 639 165 560 126 l 639 26 q 415 -14 546 -14 z "},"d":{"ha":819,"x_min":51,"x_max":740,"o":"m 354 -14 q 133 63 214 -14 q 51 310 51 140 q 94 506 51 424 q 208 630 136 588 q 368 672 279 672 q 553 622 476 672 l 553 936 l 740 936 l 740 0 l 579 0 l 568 61 q 474 5 525 24 q 354 -14 422 -14 m 406 124 q 486 138 451 124 q 553 183 521 151 l 553 483 q 417 535 494 535 q 286 478 331 535 q 242 310 242 421 q 283 166 242 208 q 406 124 324 124 z "},"ð":{"ha":796,"x_min":51,"x_max":776,"o":"m 400 -14 q 137 62 222 -14 q 51 276 51 138 q 132 488 51 417 q 364 560 213 560 q 474 543 417 560 q 575 496 532 526 l 575 544 q 551 693 575 638 l 382 619 l 382 703 l 503 754 q 372 788 457 788 q 172 750 267 788 l 172 874 q 401 908 269 908 q 649 818 558 908 l 776 874 l 776 790 l 697 756 q 751 521 751 660 l 751 338 q 664 73 751 160 q 400 -14 576 -14 m 399 111 q 531 156 488 111 q 575 293 575 200 l 575 382 q 489 426 535 410 q 399 442 443 442 q 261 399 303 442 q 219 276 219 357 q 265 154 219 197 q 399 111 311 111 z "},"ď":{"ha":821,"x_min":51,"x_max":1051,"o":"m 893 960 l 1051 960 l 922 686 l 776 686 l 893 960 m 354 -14 q 133 63 214 -14 q 51 310 51 140 q 94 506 51 424 q 208 630 136 588 q 368 672 279 672 q 553 622 476 672 l 553 936 l 740 936 l 740 0 l 579 0 l 568 61 q 474 5 525 24 q 354 -14 422 -14 m 406 124 q 486 138 451 124 q 553 183 521 151 l 553 483 q 417 535 494 535 q 286 478 331 535 q 242 310 242 421 q 283 166 242 208 q 406 124 324 124 z "},"đ":{"ha":821,"x_min":51,"x_max":811,"o":"m 811 732 l 740 732 l 740 0 l 579 0 l 568 61 q 474 5 525 24 q 354 -14 422 -14 q 133 63 214 -14 q 51 310 51 140 q 94 506 51 424 q 208 630 136 588 q 368 672 279 672 q 553 622 476 672 l 553 732 l 360 732 l 360 857 l 553 857 l 553 936 l 740 936 l 740 857 l 811 857 l 811 732 m 553 483 q 417 535 494 535 q 286 478 331 535 q 242 310 242 421 q 283 166 242 208 q 406 124 324 124 q 486 138 451 124 q 553 183 521 151 l 553 483 z "},"ḍ":{"ha":819,"x_min":51,"x_max":740,"o":"m 354 -14 q 133 63 214 -14 q 51 310 51 140 q 94 506 51 424 q 208 630 136 588 q 368 672 279 672 q 553 622 476 672 l 553 936 l 740 936 l 740 0 l 579 0 l 568 61 q 474 5 525 24 q 354 -14 422 -14 m 406 124 q 486 138 451 124 q 553 183 521 151 l 553 483 q 417 535 494 535 q 286 478 331 535 q 242 310 242 421 q 283 166 242 208 q 406 124 324 124 m 333 -114 l 482 -114 l 482 -251 l 333 -251 l 333 -114 z "},"ḏ":{"ha":819,"x_min":51,"x_max":740,"o":"m 354 -14 q 133 63 214 -14 q 51 310 51 140 q 94 506 51 424 q 208 630 136 588 q 368 672 279 672 q 553 622 476 672 l 553 936 l 740 936 l 740 0 l 579 0 l 568 61 q 474 5 525 24 q 354 -14 422 -14 m 406 124 q 486 138 451 124 q 553 183 521 151 l 553 483 q 417 535 494 535 q 286 478 331 535 q 242 310 242 421 q 283 166 242 208 q 406 124 324 124 m 210 -139 l 638 -139 l 638 -254 l 210 -254 l 210 -139 z "},"e":{"ha":753,"x_min":51,"x_max":701,"o":"m 422 -14 q 149 73 247 -14 q 51 331 51 160 q 137 582 51 492 q 386 672 222 672 q 619 594 536 672 q 701 383 701 515 l 701 264 l 225 264 q 295 157 239 188 q 461 126 351 126 q 569 136 514 126 q 663 161 624 146 l 663 28 q 422 -14 571 -14 m 538 379 l 538 415 q 392 538 538 538 q 263 501 300 538 q 225 379 225 464 l 538 379 z "},"é":{"ha":753,"x_min":51,"x_max":701,"o":"m 422 985 l 585 985 l 463 725 l 311 725 l 422 985 m 422 -14 q 149 73 247 -14 q 51 331 51 160 q 137 582 51 492 q 386 672 222 672 q 619 594 536 672 q 701 383 701 515 l 701 264 l 225 264 q 295 157 239 188 q 461 126 351 126 q 569 136 514 126 q 663 161 624 146 l 663 28 q 422 -14 571 -14 m 538 379 l 538 415 q 392 538 538 538 q 263 501 300 538 q 225 379 225 464 l 538 379 z "},"ĕ":{"ha":753,"x_min":51,"x_max":701,"o":"m 393 725 q 235 783 294 725 q 175 943 175 842 l 300 943 q 324 865 300 896 q 393 833 349 833 q 464 865 439 833 q 489 943 489 897 l 614 943 q 553 783 614 842 q 393 725 492 725 m 422 -14 q 149 73 247 -14 q 51 331 51 160 q 137 582 51 492 q 386 672 222 672 q 619 594 536 672 q 701 383 701 515 l 701 264 l 225 264 q 295 157 239 188 q 461 126 351 126 q 569 136 514 126 q 663 161 624 146 l 663 28 q 422 -14 571 -14 m 538 379 l 538 415 q 392 538 538 538 q 263 501 300 538 q 225 379 225 464 l 538 379 z "},"ě":{"ha":753,"x_min":51,"x_max":701,"o":"m 153 967 l 300 967 l 400 828 l 503 967 l 647 967 l 460 725 l 340 725 l 153 967 m 422 -14 q 149 73 247 -14 q 51 331 51 160 q 137 582 51 492 q 386 672 222 672 q 619 594 536 672 q 701 383 701 515 l 701 264 l 225 264 q 295 157 239 188 q 461 126 351 126 q 569 136 514 126 q 663 161 624 146 l 663 28 q 422 -14 571 -14 m 538 379 l 538 415 q 392 538 538 538 q 263 501 300 538 q 225 379 225 464 l 538 379 z "},"ê":{"ha":753,"x_min":51,"x_max":701,"o":"m 329 967 l 449 967 l 636 725 l 492 725 l 389 864 l 289 725 l 142 725 l 329 967 m 422 -14 q 149 73 247 -14 q 51 331 51 160 q 137 582 51 492 q 386 672 222 672 q 619 594 536 672 q 701 383 701 515 l 701 264 l 225 264 q 295 157 239 188 q 461 126 351 126 q 569 136 514 126 q 663 161 624 146 l 663 28 q 422 -14 571 -14 m 538 379 l 538 415 q 392 538 538 538 q 263 501 300 538 q 225 379 225 464 l 538 379 z "},"ế":{"ha":753,"x_min":51,"x_max":771,"o":"m 629 1082 l 771 1082 l 669 886 l 538 886 l 629 1082 m 325 911 l 468 911 l 643 724 l 492 724 l 397 836 l 304 724 l 150 724 l 325 911 m 422 -14 q 149 73 247 -14 q 51 331 51 160 q 137 582 51 492 q 386 672 222 672 q 619 594 536 672 q 701 383 701 515 l 701 264 l 225 264 q 295 157 239 188 q 461 126 351 126 q 569 136 514 126 q 663 161 624 146 l 663 28 q 422 -14 571 -14 m 538 379 l 538 415 q 392 538 538 538 q 263 501 300 538 q 225 379 225 464 l 538 379 z "},"ệ":{"ha":753,"x_min":51,"x_max":701,"o":"m 329 967 l 449 967 l 636 725 l 492 725 l 389 864 l 289 725 l 142 725 l 329 967 m 422 -14 q 149 73 247 -14 q 51 331 51 160 q 137 582 51 492 q 386 672 222 672 q 619 594 536 672 q 701 383 701 515 l 701 264 l 225 264 q 295 157 239 188 q 461 126 351 126 q 569 136 514 126 q 663 161 624 146 l 663 28 q 422 -14 571 -14 m 538 379 l 538 415 q 392 538 538 538 q 263 501 300 538 q 225 379 225 464 l 538 379 m 315 -114 l 464 -114 l 464 -251 l 315 -251 l 315 -114 z "},"ề":{"ha":753,"x_min":22,"x_max":701,"o":"m 22 1096 l 164 1096 l 256 900 l 124 900 l 22 1096 m 325 925 l 468 925 l 643 738 l 489 738 l 396 850 l 301 738 l 150 738 l 325 925 m 422 -14 q 149 73 247 -14 q 51 331 51 160 q 137 582 51 492 q 386 672 222 672 q 619 594 536 672 q 701 383 701 515 l 701 264 l 225 264 q 295 157 239 188 q 461 126 351 126 q 569 136 514 126 q 663 161 624 146 l 663 28 q 422 -14 571 -14 m 538 379 l 538 415 q 392 538 538 538 q 263 501 300 538 q 225 379 225 464 l 538 379 z "},"ể":{"ha":753,"x_min":51,"x_max":778,"o":"m 543 953 q 626 967 606 956 q 647 1001 647 978 q 632 1031 647 1022 q 585 1039 617 1039 q 510 1022 546 1039 l 510 1108 q 625 1125 560 1125 q 738 1094 697 1125 q 778 1013 778 1064 q 672 903 778 918 l 672 856 l 543 856 l 543 953 m 318 911 l 461 911 l 636 724 l 485 724 l 390 836 l 297 724 l 143 724 l 318 911 m 422 -14 q 149 73 247 -14 q 51 331 51 160 q 137 582 51 492 q 386 672 222 672 q 619 594 536 672 q 701 383 701 515 l 701 264 l 225 264 q 295 157 239 188 q 461 126 351 126 q 569 136 514 126 q 663 161 624 146 l 663 28 q 422 -14 571 -14 m 538 379 l 538 415 q 392 538 538 538 q 263 501 300 538 q 225 379 225 464 l 538 379 z "},"ễ":{"ha":753,"x_min":51,"x_max":701,"o":"m 525 932 q 471 939 497 932 q 403 961 444 946 q 301 988 338 988 q 176 936 224 988 l 176 1056 q 228 1087 196 1075 q 297 1099 261 1099 q 353 1091 326 1099 q 414 1069 381 1083 q 474 1049 453 1056 q 521 1043 496 1043 q 636 1096 599 1043 l 636 976 q 592 944 622 957 q 525 932 563 932 m 322 911 l 465 911 l 640 724 l 489 724 l 394 836 l 301 724 l 147 724 l 322 911 m 422 -14 q 149 73 247 -14 q 51 331 51 160 q 137 582 51 492 q 386 672 222 672 q 619 594 536 672 q 701 383 701 515 l 701 264 l 225 264 q 295 157 239 188 q 461 126 351 126 q 569 136 514 126 q 663 161 624 146 l 663 28 q 422 -14 571 -14 m 538 379 l 538 415 q 392 538 538 538 q 263 501 300 538 q 225 379 225 464 l 538 379 z "},"ë":{"ha":753,"x_min":51,"x_max":701,"o":"m 178 896 l 325 896 l 325 760 l 178 760 l 178 896 m 450 896 l 597 896 l 597 760 l 450 760 l 450 896 m 422 -14 q 149 73 247 -14 q 51 331 51 160 q 137 582 51 492 q 386 672 222 672 q 619 594 536 672 q 701 383 701 515 l 701 264 l 225 264 q 295 157 239 188 q 461 126 351 126 q 569 136 514 126 q 663 161 624 146 l 663 28 q 422 -14 571 -14 m 538 379 l 538 415 q 392 538 538 538 q 263 501 300 538 q 225 379 225 464 l 538 379 z "},"ė":{"ha":753,"x_min":51,"x_max":701,"o":"m 318 896 l 464 896 l 464 760 l 318 760 l 318 896 m 422 -14 q 149 73 247 -14 q 51 331 51 160 q 137 582 51 492 q 386 672 222 672 q 619 594 536 672 q 701 383 701 515 l 701 264 l 225 264 q 295 157 239 188 q 461 126 351 126 q 569 136 514 126 q 663 161 624 146 l 663 28 q 422 -14 571 -14 m 538 379 l 538 415 q 392 538 538 538 q 263 501 300 538 q 225 379 225 464 l 538 379 z "},"ẹ":{"ha":753,"x_min":51,"x_max":701,"o":"m 422 -14 q 149 73 247 -14 q 51 331 51 160 q 137 582 51 492 q 386 672 222 672 q 619 594 536 672 q 701 383 701 515 l 701 264 l 225 264 q 295 157 239 188 q 461 126 351 126 q 569 136 514 126 q 663 161 624 146 l 663 28 q 422 -14 571 -14 m 538 379 l 538 415 q 392 538 538 538 q 263 501 300 538 q 225 379 225 464 l 538 379 m 321 -114 l 469 -114 l 469 -251 l 321 -251 l 321 -114 z "},"è":{"ha":753,"x_min":51,"x_max":701,"o":"m 192 985 l 354 985 l 465 725 l 314 725 l 192 985 m 422 -14 q 149 73 247 -14 q 51 331 51 160 q 137 582 51 492 q 386 672 222 672 q 619 594 536 672 q 701 383 701 515 l 701 264 l 225 264 q 295 157 239 188 q 461 126 351 126 q 569 136 514 126 q 663 161 624 146 l 663 28 q 422 -14 571 -14 m 538 379 l 538 415 q 392 538 538 538 q 263 501 300 538 q 225 379 225 464 l 538 379 z "},"ẻ":{"ha":753,"x_min":51,"x_max":701,"o":"m 322 836 q 422 855 396 840 q 447 903 447 869 q 351 957 447 957 q 306 953 331 957 q 265 942 281 949 l 265 1035 q 404 1053 319 1053 q 539 1017 492 1053 q 586 919 586 981 q 559 831 586 861 q 465 788 532 800 l 465 724 l 322 724 l 322 836 m 422 -14 q 149 73 247 -14 q 51 331 51 160 q 137 582 51 492 q 386 672 222 672 q 619 594 536 672 q 701 383 701 515 l 701 264 l 225 264 q 295 157 239 188 q 461 126 351 126 q 569 136 514 126 q 663 161 624 146 l 663 28 q 422 -14 571 -14 m 538 379 l 538 415 q 392 538 538 538 q 263 501 300 538 q 225 379 225 464 l 538 379 z "},"ē":{"ha":753,"x_min":51,"x_max":701,"o":"m 186 888 l 614 888 l 614 772 l 186 772 l 186 888 m 422 -14 q 149 73 247 -14 q 51 331 51 160 q 137 582 51 492 q 386 672 222 672 q 619 594 536 672 q 701 383 701 515 l 701 264 l 225 264 q 295 157 239 188 q 461 126 351 126 q 569 136 514 126 q 663 161 624 146 l 663 28 q 422 -14 571 -14 m 538 379 l 538 415 q 392 538 538 538 q 263 501 300 538 q 225 379 225 464 l 538 379 z "},"ę":{"ha":753,"x_min":51,"x_max":701,"o":"m 701 264 l 225 264 q 295 157 239 188 q 461 126 351 126 q 569 136 514 126 q 663 161 624 146 l 663 28 q 568 -1 621 10 q 476 -144 476 -71 q 539 -196 476 -196 q 607 -181 581 -196 l 607 -286 q 555 -300 588 -294 q 489 -306 522 -306 q 375 -273 421 -306 q 329 -179 329 -240 q 351 -89 329 -132 q 413 -14 372 -46 q 147 76 242 -11 q 51 331 51 163 q 137 582 51 492 q 386 672 222 672 q 619 594 536 672 q 701 383 701 515 l 701 264 m 538 415 q 392 538 538 538 q 263 501 300 538 q 225 379 225 464 l 538 379 l 538 415 z "},"ẽ":{"ha":753,"x_min":51,"x_max":701,"o":"m 513 742 q 458 749 485 742 q 390 771 432 756 q 289 797 324 797 q 164 746 211 797 l 164 879 q 216 910 183 899 q 285 922 249 922 q 341 915 314 922 q 401 893 368 907 q 462 873 440 879 q 508 867 483 867 q 624 919 586 867 l 624 786 q 580 754 610 767 q 513 742 550 742 m 422 -14 q 149 73 247 -14 q 51 331 51 160 q 137 582 51 492 q 386 672 222 672 q 619 594 536 672 q 701 383 701 515 l 701 264 l 225 264 q 295 157 239 188 q 461 126 351 126 q 569 136 514 126 q 663 161 624 146 l 663 28 q 422 -14 571 -14 m 538 379 l 538 415 q 392 538 538 538 q 263 501 300 538 q 225 379 225 464 l 538 379 z "},"f":{"ha":492,"x_min":24,"x_max":494,"o":"m 115 514 l 24 514 l 24 658 l 115 658 l 115 725 q 175 894 115 831 q 346 958 235 958 q 494 932 428 958 l 494 803 q 411 818 451 818 q 327 797 351 818 q 303 722 303 775 l 303 658 l 469 658 l 461 514 l 303 514 l 303 0 l 115 0 l 115 514 z "},"g":{"ha":781,"x_min":57,"x_max":746,"o":"m 357 -244 q 205 -235 282 -244 q 76 -207 128 -225 l 76 -67 q 205 -95 131 -85 q 347 -106 279 -106 q 488 -95 446 -106 q 529 -58 529 -85 q 510 -28 529 -36 q 432 -19 490 -19 l 253 -19 q 121 14 165 -19 q 76 111 76 47 q 99 185 76 153 q 169 238 122 218 q 57 429 57 294 q 135 613 57 554 q 371 672 214 672 q 438 668 400 672 q 499 658 475 664 l 746 658 l 742 540 l 638 540 q 681 428 681 500 q 615 265 681 324 q 428 206 550 206 q 344 213 390 206 q 273 192 300 207 q 246 156 246 178 q 260 131 246 138 q 303 124 274 124 l 489 124 q 643 78 589 124 q 697 -53 697 32 q 357 -244 697 -244 m 372 311 q 488 340 454 311 q 521 436 521 368 q 488 535 521 506 q 372 565 454 565 q 258 535 293 565 q 224 436 224 506 q 257 340 224 369 q 372 311 290 311 z "},"ğ":{"ha":781,"x_min":57,"x_max":746,"o":"m 375 725 q 217 783 276 725 q 157 943 157 842 l 282 943 q 306 865 282 896 q 375 833 331 833 q 446 865 421 833 q 471 943 471 897 l 596 943 q 535 783 596 842 q 375 725 474 725 m 357 -244 q 205 -235 282 -244 q 76 -207 128 -225 l 76 -67 q 205 -95 131 -85 q 347 -106 279 -106 q 488 -95 446 -106 q 529 -58 529 -85 q 510 -28 529 -36 q 432 -19 490 -19 l 253 -19 q 121 14 165 -19 q 76 111 76 47 q 99 185 76 153 q 169 238 122 218 q 57 429 57 294 q 135 613 57 554 q 371 672 214 672 q 438 668 400 672 q 499 658 475 664 l 746 658 l 742 540 l 638 540 q 681 428 681 500 q 615 265 681 324 q 428 206 550 206 q 344 213 390 206 q 273 192 300 207 q 246 156 246 178 q 260 131 246 138 q 303 124 274 124 l 489 124 q 643 78 589 124 q 697 -53 697 32 q 357 -244 697 -244 m 372 311 q 488 340 454 311 q 521 436 521 368 q 488 535 521 506 q 372 565 454 565 q 258 535 293 565 q 224 436 224 506 q 257 340 224 369 q 372 311 290 311 z "},"ǧ":{"ha":781,"x_min":57,"x_max":746,"o":"m 158 967 l 306 967 l 406 828 l 508 967 l 653 967 l 465 725 l 346 725 l 158 967 m 357 -244 q 205 -235 282 -244 q 76 -207 128 -225 l 76 -67 q 205 -95 131 -85 q 347 -106 279 -106 q 488 -95 446 -106 q 529 -58 529 -85 q 510 -28 529 -36 q 432 -19 490 -19 l 253 -19 q 121 14 165 -19 q 76 111 76 47 q 99 185 76 153 q 169 238 122 218 q 57 429 57 294 q 135 613 57 554 q 371 672 214 672 q 438 668 400 672 q 499 658 475 664 l 746 658 l 742 540 l 638 540 q 681 428 681 500 q 615 265 681 324 q 428 206 550 206 q 344 213 390 206 q 273 192 300 207 q 246 156 246 178 q 260 131 246 138 q 303 124 274 124 l 489 124 q 643 78 589 124 q 697 -53 697 32 q 357 -244 697 -244 m 372 311 q 488 340 454 311 q 521 436 521 368 q 488 535 521 506 q 372 565 454 565 q 258 535 293 565 q 224 436 224 506 q 257 340 224 369 q 372 311 290 311 z "},"ĝ":{"ha":781,"x_min":57,"x_max":746,"o":"m 322 967 l 442 967 l 629 725 l 485 725 l 382 864 l 282 725 l 135 725 l 322 967 m 357 -244 q 205 -235 282 -244 q 76 -207 128 -225 l 76 -67 q 205 -95 131 -85 q 347 -106 279 -106 q 488 -95 446 -106 q 529 -58 529 -85 q 510 -28 529 -36 q 432 -19 490 -19 l 253 -19 q 121 14 165 -19 q 76 111 76 47 q 99 185 76 153 q 169 238 122 218 q 57 429 57 294 q 135 613 57 554 q 371 672 214 672 q 438 668 400 672 q 499 658 475 664 l 746 658 l 742 540 l 638 540 q 681 428 681 500 q 615 265 681 324 q 428 206 550 206 q 344 213 390 206 q 273 192 300 207 q 246 156 246 178 q 260 131 246 138 q 303 124 274 124 l 489 124 q 643 78 589 124 q 697 -53 697 32 q 357 -244 697 -244 m 372 311 q 488 340 454 311 q 521 436 521 368 q 488 535 521 506 q 372 565 454 565 q 258 535 293 565 q 224 436 224 506 q 257 340 224 369 q 372 311 290 311 z "},"ģ":{"ha":781,"x_min":57,"x_max":746,"o":"m 365 1004 l 486 1004 l 443 725 l 296 725 l 365 1004 m 357 -244 q 205 -235 282 -244 q 76 -207 128 -225 l 76 -67 q 205 -95 131 -85 q 347 -106 279 -106 q 488 -95 446 -106 q 529 -58 529 -85 q 510 -28 529 -36 q 432 -19 490 -19 l 253 -19 q 121 14 165 -19 q 76 111 76 47 q 99 185 76 153 q 169 238 122 218 q 57 429 57 294 q 135 613 57 554 q 371 672 214 672 q 438 668 400 672 q 499 658 475 664 l 746 658 l 742 540 l 638 540 q 681 428 681 500 q 615 265 681 324 q 428 206 550 206 q 344 213 390 206 q 273 192 300 207 q 246 156 246 178 q 260 131 246 138 q 303 124 274 124 l 489 124 q 643 78 589 124 q 697 -53 697 32 q 357 -244 697 -244 m 372 311 q 488 340 454 311 q 521 436 521 368 q 488 535 521 506 q 372 565 454 565 q 258 535 293 565 q 224 436 224 506 q 257 340 224 369 q 372 311 290 311 z "},"ġ":{"ha":781,"x_min":57,"x_max":746,"o":"m 293 882 l 439 882 l 439 746 l 293 746 l 293 882 m 357 -244 q 205 -235 282 -244 q 76 -207 128 -225 l 76 -67 q 205 -95 131 -85 q 347 -106 279 -106 q 488 -95 446 -106 q 529 -58 529 -85 q 510 -28 529 -36 q 432 -19 490 -19 l 253 -19 q 121 14 165 -19 q 76 111 76 47 q 99 185 76 153 q 169 238 122 218 q 57 429 57 294 q 135 613 57 554 q 371 672 214 672 q 438 668 400 672 q 499 658 475 664 l 746 658 l 742 540 l 638 540 q 681 428 681 500 q 615 265 681 324 q 428 206 550 206 q 344 213 390 206 q 273 192 300 207 q 246 156 246 178 q 260 131 246 138 q 303 124 274 124 l 489 124 q 643 78 589 124 q 697 -53 697 32 q 357 -244 697 -244 m 372 311 q 488 340 454 311 q 521 436 521 368 q 488 535 521 506 q 372 565 454 565 q 258 535 293 565 q 224 436 224 506 q 257 340 224 369 q 372 311 290 311 z "},"ḡ":{"ha":781,"x_min":57,"x_max":746,"o":"m 182 881 l 610 881 l 610 765 l 182 765 l 182 881 m 357 -244 q 205 -235 282 -244 q 76 -207 128 -225 l 76 -67 q 205 -95 131 -85 q 347 -106 279 -106 q 488 -95 446 -106 q 529 -58 529 -85 q 510 -28 529 -36 q 432 -19 490 -19 l 253 -19 q 121 14 165 -19 q 76 111 76 47 q 99 185 76 153 q 169 238 122 218 q 57 429 57 294 q 135 613 57 554 q 371 672 214 672 q 438 668 400 672 q 499 658 475 664 l 746 658 l 742 540 l 638 540 q 681 428 681 500 q 615 265 681 324 q 428 206 550 206 q 344 213 390 206 q 273 192 300 207 q 246 156 246 178 q 260 131 246 138 q 303 124 274 124 l 489 124 q 643 78 589 124 q 697 -53 697 32 q 357 -244 697 -244 m 372 311 q 488 340 454 311 q 521 436 521 368 q 488 535 521 506 q 372 565 454 565 q 258 535 293 565 q 224 436 224 506 q 257 340 224 369 q 372 311 290 311 z "},"h":{"ha":815,"x_min":79,"x_max":742,"o":"m 79 936 l 267 936 l 267 603 q 367 653 310 635 q 492 672 425 672 q 681 612 621 672 q 742 422 742 551 l 742 0 l 554 0 l 554 413 q 526 508 554 481 q 426 535 499 535 q 340 516 383 535 q 267 467 297 497 l 267 0 l 79 0 l 79 936 z "},"ħ":{"ha":815,"x_min":10,"x_max":742,"o":"m 492 672 q 681 612 621 672 q 742 422 742 551 l 742 0 l 554 0 l 554 413 q 526 508 554 481 q 426 535 499 535 q 340 516 383 535 q 267 467 297 497 l 267 0 l 79 0 l 79 735 l 10 735 l 10 863 l 79 863 l 79 936 l 267 936 l 267 863 l 453 863 l 453 735 l 267 735 l 267 603 q 367 653 310 635 q 492 672 425 672 z "},"ḫ":{"ha":815,"x_min":79,"x_max":742,"o":"m 79 936 l 267 936 l 267 603 q 367 653 310 635 q 492 672 425 672 q 681 612 621 672 q 742 422 742 551 l 742 0 l 554 0 l 554 413 q 526 508 554 481 q 426 535 499 535 q 340 516 383 535 q 267 467 297 497 l 267 0 l 79 0 l 79 936 m 421 -301 q 263 -243 322 -301 q 203 -83 203 -185 l 328 -83 q 352 -162 328 -131 q 421 -193 376 -193 q 492 -161 467 -193 q 517 -83 517 -129 l 642 -83 q 581 -243 642 -185 q 421 -301 519 -301 z "},"ĥ":{"ha":815,"x_min":79,"x_max":742,"o":"m 272 1221 l 392 1221 l 579 979 l 435 979 l 332 1118 l 232 979 l 85 979 l 272 1221 m 79 936 l 267 936 l 267 603 q 367 653 310 635 q 492 672 425 672 q 681 612 621 672 q 742 422 742 551 l 742 0 l 554 0 l 554 413 q 526 508 554 481 q 426 535 499 535 q 340 516 383 535 q 267 467 297 497 l 267 0 l 79 0 l 79 936 z "},"ḥ":{"ha":815,"x_min":79,"x_max":742,"o":"m 79 936 l 267 936 l 267 603 q 367 653 310 635 q 492 672 425 672 q 681 612 621 672 q 742 422 742 551 l 742 0 l 554 0 l 554 413 q 526 508 554 481 q 426 535 499 535 q 340 516 383 535 q 267 467 297 497 l 267 0 l 79 0 l 79 936 m 344 -114 l 493 -114 l 493 -251 l 344 -251 l 344 -114 z "},"i":{"ha":446,"x_min":79,"x_max":367,"o":"m 163 926 l 367 926 l 367 779 l 163 779 l 163 926 m 178 519 l 79 519 l 96 658 l 365 658 l 365 0 l 178 0 l 178 519 z "},"ı":{"ha":446,"x_min":79,"x_max":365,"o":"m 178 519 l 79 519 l 96 658 l 365 658 l 365 0 l 178 0 l 178 519 z "},"í":{"ha":446,"x_min":79,"x_max":450,"o":"m 288 985 l 450 985 l 328 725 l 176 725 l 288 985 m 178 519 l 79 519 l 96 658 l 365 658 l 365 0 l 178 0 l 178 519 z "},"ĭ":{"ha":446,"x_min":14,"x_max":453,"o":"m 232 725 q 74 783 133 725 q 14 943 14 842 l 139 943 q 163 865 139 896 q 232 833 188 833 q 303 865 278 833 q 328 943 328 897 l 453 943 q 392 783 453 842 q 232 725 331 725 m 178 519 l 79 519 l 96 658 l 365 658 l 365 0 l 178 0 l 178 519 z "},"ǐ":{"ha":446,"x_min":0,"x_max":494,"o":"m 0 967 l 147 967 l 247 828 l 350 967 l 494 967 l 307 725 l 188 725 l 0 967 m 178 519 l 79 519 l 96 658 l 365 658 l 365 0 l 178 0 l 178 519 z "},"î":{"ha":446,"x_min":-10,"x_max":485,"o":"m 178 967 l 297 967 l 485 725 l 340 725 l 238 864 l 138 725 l -10 725 l 178 967 m 178 519 l 79 519 l 96 658 l 365 658 l 365 0 l 178 0 l 178 519 z "},"ï":{"ha":446,"x_min":19,"x_max":439,"o":"m 19 896 l 167 896 l 167 760 l 19 760 l 19 896 m 292 896 l 439 896 l 439 760 l 292 760 l 292 896 m 178 519 l 79 519 l 96 658 l 365 658 l 365 0 l 178 0 l 178 519 z "},"ị":{"ha":446,"x_min":79,"x_max":367,"o":"m 163 926 l 367 926 l 367 779 l 163 779 l 163 926 m 178 519 l 79 519 l 96 658 l 365 658 l 365 0 l 178 0 l 178 519 m 199 -114 l 347 -114 l 347 -251 l 199 -251 l 199 -114 z "},"ì":{"ha":446,"x_min":68,"x_max":365,"o":"m 68 985 l 231 985 l 342 725 l 190 725 l 68 985 m 178 519 l 79 519 l 96 658 l 365 658 l 365 0 l 178 0 l 178 519 z "},"ỉ":{"ha":446,"x_min":79,"x_max":431,"o":"m 167 836 q 266 855 240 840 q 292 903 292 869 q 196 957 292 957 q 150 953 175 957 q 110 942 125 949 l 110 1035 q 249 1053 164 1053 q 383 1017 336 1053 q 431 919 431 981 q 403 831 431 861 q 310 788 376 800 l 310 724 l 167 724 l 167 836 m 178 519 l 79 519 l 96 658 l 365 658 l 365 0 l 178 0 l 178 519 z "},"ĳ":{"ha":808,"x_min":79,"x_max":729,"o":"m 163 926 l 367 926 l 367 779 l 163 779 l 163 926 m 525 926 l 729 926 l 729 779 l 525 779 l 525 926 m 178 519 l 79 519 l 96 658 l 365 658 l 365 0 l 178 0 l 178 519 m 501 -325 q 351 -300 414 -325 l 351 -171 q 435 -185 393 -185 q 516 -162 490 -185 q 542 -89 542 -139 l 542 519 l 443 519 l 460 658 l 729 658 l 729 -107 q 672 -267 729 -208 q 501 -325 614 -325 z "},"ī":{"ha":446,"x_min":13,"x_max":440,"o":"m 13 907 l 440 907 l 440 792 l 13 792 l 13 907 m 178 519 l 79 519 l 96 658 l 365 658 l 365 0 l 178 0 l 178 519 z "},"į":{"ha":446,"x_min":79,"x_max":388,"o":"m 367 779 l 163 779 l 163 926 l 367 926 l 367 779 m 319 -196 q 388 -181 361 -196 l 388 -286 q 335 -300 368 -294 q 269 -306 303 -306 q 156 -273 201 -306 q 110 -179 110 -240 q 136 -80 110 -126 q 211 0 163 -33 l 178 0 l 178 519 l 79 519 l 96 658 l 365 658 l 365 0 l 350 0 q 257 -144 257 -69 q 319 -196 257 -196 z "},"ĩ":{"ha":446,"x_min":-6,"x_max":454,"o":"m 343 740 q 289 747 315 740 q 221 769 263 754 q 119 796 156 796 q -6 744 42 796 l -6 878 q 47 909 14 897 q 115 921 79 921 q 172 913 144 921 q 232 892 199 906 q 292 872 271 878 q 339 865 314 865 q 454 918 417 865 l 454 785 q 410 753 440 765 q 343 740 381 740 m 178 519 l 79 519 l 96 658 l 365 658 l 365 0 l 178 0 l 178 519 z "},"j":{"ha":446,"x_min":-12,"x_max":365,"o":"m 161 926 l 365 926 l 365 779 l 161 779 l 161 926 m 138 -325 q -12 -300 50 -325 l -12 -171 q 71 -185 29 -185 q 152 -162 126 -185 q 178 -89 178 -139 l 178 519 l 79 519 l 96 658 l 365 658 l 365 -107 q 308 -267 365 -208 q 138 -325 250 -325 z "},"ȷ":{"ha":446,"x_min":-12,"x_max":365,"o":"m 138 -325 q -12 -300 50 -325 l -12 -171 q 71 -185 29 -185 q 152 -162 126 -185 q 178 -89 178 -139 l 178 519 l 79 519 l 96 658 l 365 658 l 365 -107 q 308 -267 365 -208 q 138 -325 250 -325 z "},"ĵ":{"ha":446,"x_min":-12,"x_max":483,"o":"m 176 967 l 296 967 l 483 725 l 339 725 l 236 864 l 136 725 l -11 725 l 176 967 m 138 -325 q -12 -300 50 -325 l -12 -171 q 71 -185 29 -185 q 152 -162 126 -185 q 178 -89 178 -139 l 178 519 l 79 519 l 96 658 l 365 658 l 365 -107 q 308 -267 365 -208 q 138 -325 250 -325 z "},"k":{"ha":793,"x_min":79,"x_max":742,"o":"m 79 936 l 267 936 l 267 421 l 513 658 l 726 658 l 461 389 l 742 0 l 543 0 l 343 290 l 267 217 l 267 0 l 79 0 l 79 936 z "},"ķ":{"ha":793,"x_min":79,"x_max":742,"o":"m 79 936 l 267 936 l 267 421 l 513 658 l 726 658 l 461 389 l 742 0 l 543 0 l 343 290 l 267 217 l 267 0 l 79 0 l 79 936 m 311 -51 l 458 -51 l 389 -331 l 268 -331 l 311 -51 z "},"ĸ":{"ha":793,"x_min":79,"x_max":742,"o":"m 79 658 l 267 658 l 267 399 l 513 658 l 726 658 l 461 372 l 742 0 l 543 0 l 344 272 l 267 192 l 267 0 l 79 0 l 79 658 z "},"l":{"ha":414,"x_min":79,"x_max":386,"o":"m 263 -14 q 123 31 167 -14 q 79 172 79 75 l 79 936 l 267 936 l 267 188 q 280 140 267 153 q 321 126 293 126 q 386 136 357 126 l 386 7 q 329 -9 357 -4 q 263 -14 301 -14 z "},"ĺ":{"ha":414,"x_min":79,"x_max":386,"o":"m 213 1283 l 375 1283 l 253 1024 l 101 1024 l 213 1283 m 263 -14 q 123 31 167 -14 q 79 172 79 75 l 79 936 l 267 936 l 267 188 q 280 140 267 153 q 321 126 293 126 q 386 136 357 126 l 386 7 q 329 -9 357 -4 q 263 -14 301 -14 z "},"ľ":{"ha":414,"x_min":79,"x_max":535,"o":"m 388 1196 l 535 1196 l 465 917 l 344 917 l 388 1196 m 263 -14 q 123 31 167 -14 q 79 172 79 75 l 79 936 l 267 936 l 267 188 q 280 140 267 153 q 321 126 293 126 q 386 136 357 126 l 386 7 q 329 -9 357 -4 q 263 -14 301 -14 z "},"ļ":{"ha":414,"x_min":79,"x_max":386,"o":"m 263 -14 q 123 31 167 -14 q 79 172 79 75 l 79 936 l 267 936 l 267 188 q 280 140 267 153 q 321 126 293 126 q 386 136 357 126 l 386 7 q 329 -9 357 -4 q 263 -14 301 -14 m 186 -51 l 333 -51 l 264 -331 l 143 -331 l 186 -51 z "},"ŀ":{"ha":414,"x_min":79,"x_max":483,"o":"m 263 -14 q 123 31 167 -14 q 79 172 79 75 l 79 936 l 267 936 l 267 188 q 280 140 267 153 q 321 126 293 126 q 386 136 357 126 l 386 7 q 329 -9 357 -4 q 263 -14 301 -14 m 338 526 l 483 526 l 483 390 l 338 390 l 338 526 z "},"ḷ":{"ha":414,"x_min":79,"x_max":386,"o":"m 263 -14 q 123 31 167 -14 q 79 172 79 75 l 79 936 l 267 936 l 267 188 q 280 140 267 153 q 321 126 293 126 q 386 136 357 126 l 386 7 q 329 -9 357 -4 q 263 -14 301 -14 m 149 -114 l 297 -114 l 297 -251 l 149 -251 l 149 -114 z "},"ḹ":{"ha":414,"x_min":-40,"x_max":388,"o":"m -40 1121 l 388 1121 l 388 1006 l -40 1006 l -40 1121 m 263 -14 q 123 31 167 -14 q 79 172 79 75 l 79 936 l 267 936 l 267 188 q 280 140 267 153 q 321 126 293 126 q 386 136 357 126 l 386 7 q 329 -9 357 -4 q 263 -14 301 -14 m 149 -114 l 297 -114 l 297 -251 l 149 -251 l 149 -114 z "},"ḻ":{"ha":414,"x_min":0,"x_max":428,"o":"m 263 -14 q 123 31 167 -14 q 79 172 79 75 l 79 936 l 267 936 l 267 188 q 280 140 267 153 q 321 126 293 126 q 386 136 357 126 l 386 7 q 329 -9 357 -4 q 263 -14 301 -14 m 0 -104 l 428 -104 l 428 -219 l 0 -219 l 0 -104 z "},"ł":{"ha":414,"x_min":-40,"x_max":394,"o":"m 267 454 l 267 188 q 280 140 267 153 q 321 126 293 126 q 386 136 357 126 l 386 7 q 329 -9 357 -4 q 263 -14 301 -14 q 123 31 167 -14 q 79 172 79 75 l 79 372 l -40 321 l -40 456 l 79 507 l 79 936 l 267 936 l 267 589 l 394 644 l 394 510 l 267 454 z "},"m":{"ha":1192,"x_min":79,"x_max":1118,"o":"m 79 658 l 253 658 l 260 594 q 485 672 363 672 q 590 652 551 672 q 651 592 629 632 q 760 651 701 631 q 896 672 819 672 q 1064 613 1010 672 q 1118 433 1118 554 l 1118 0 l 933 0 l 933 413 q 906 506 933 476 q 817 535 878 535 q 741 519 778 535 q 678 475 704 503 q 685 418 685 451 l 685 0 l 510 0 l 510 413 q 488 506 510 476 q 408 535 465 535 q 264 464 338 535 l 264 0 l 79 0 l 79 658 z "},"ṃ":{"ha":1192,"x_min":79,"x_max":1118,"o":"m 79 658 l 253 658 l 260 594 q 485 672 363 672 q 590 652 551 672 q 651 592 629 632 q 760 651 701 631 q 896 672 819 672 q 1064 613 1010 672 q 1118 433 1118 554 l 1118 0 l 933 0 l 933 413 q 906 506 933 476 q 817 535 878 535 q 741 519 778 535 q 678 475 704 503 q 685 418 685 451 l 685 0 l 510 0 l 510 413 q 488 506 510 476 q 408 535 465 535 q 264 464 338 535 l 264 0 l 79 0 l 79 658 m 542 -114 l 690 -114 l 690 -251 l 542 -251 l 542 -114 z "},"n":{"ha":815,"x_min":79,"x_max":742,"o":"m 79 658 l 253 658 l 260 596 q 365 651 304 629 q 492 672 426 672 q 681 612 621 672 q 742 422 742 551 l 742 0 l 554 0 l 554 413 q 526 508 554 481 q 426 535 499 535 q 340 516 383 535 q 267 467 297 497 l 267 0 l 79 0 l 79 658 z "},"ń":{"ha":815,"x_min":79,"x_max":742,"o":"m 421 985 l 583 985 l 461 725 l 310 725 l 421 985 m 79 658 l 253 658 l 260 596 q 365 651 304 629 q 492 672 426 672 q 681 612 621 672 q 742 422 742 551 l 742 0 l 554 0 l 554 413 q 526 508 554 481 q 426 535 499 535 q 340 516 383 535 q 267 467 297 497 l 267 0 l 79 0 l 79 658 z "},"ŉ":{"ha":850,"x_min":-93,"x_max":776,"o":"m -50 897 l 97 897 l 28 618 l -93 618 l -50 897 m 114 658 l 288 658 l 294 596 q 400 651 339 629 q 526 672 461 672 q 716 612 656 672 q 776 422 776 551 l 776 0 l 589 0 l 589 413 q 561 508 589 481 q 461 535 533 535 q 375 516 418 535 q 301 467 332 497 l 301 0 l 114 0 l 114 658 z "},"ň":{"ha":815,"x_min":79,"x_max":742,"o":"m 150 967 l 297 967 l 397 828 l 500 967 l 644 967 l 457 725 l 338 725 l 150 967 m 79 658 l 253 658 l 260 596 q 365 651 304 629 q 492 672 426 672 q 681 612 621 672 q 742 422 742 551 l 742 0 l 554 0 l 554 413 q 526 508 554 481 q 426 535 499 535 q 340 516 383 535 q 267 467 297 497 l 267 0 l 79 0 l 79 658 z "},"ņ":{"ha":815,"x_min":79,"x_max":742,"o":"m 79 658 l 253 658 l 260 596 q 365 651 304 629 q 492 672 426 672 q 681 612 621 672 q 742 422 742 551 l 742 0 l 554 0 l 554 413 q 526 508 554 481 q 426 535 499 535 q 340 516 383 535 q 267 467 297 497 l 267 0 l 79 0 l 79 658 m 353 -51 l 500 -51 l 431 -331 l 310 -331 l 353 -51 z "},"ṅ":{"ha":815,"x_min":79,"x_max":742,"o":"m 339 896 l 485 896 l 485 760 l 339 760 l 339 896 m 79 658 l 253 658 l 260 596 q 365 651 304 629 q 492 672 426 672 q 681 612 621 672 q 742 422 742 551 l 742 0 l 554 0 l 554 413 q 526 508 554 481 q 426 535 499 535 q 340 516 383 535 q 267 467 297 497 l 267 0 l 79 0 l 79 658 z "},"ṇ":{"ha":815,"x_min":79,"x_max":742,"o":"m 79 658 l 253 658 l 260 596 q 365 651 304 629 q 492 672 426 672 q 681 612 621 672 q 742 422 742 551 l 742 0 l 554 0 l 554 413 q 526 508 554 481 q 426 535 499 535 q 340 516 383 535 q 267 467 297 497 l 267 0 l 79 0 l 79 658 m 346 -114 l 494 -114 l 494 -251 l 346 -251 l 346 -114 z "},"ŋ":{"ha":815,"x_min":79,"x_max":742,"o":"m 514 -325 q 364 -300 426 -325 l 364 -171 q 447 -185 406 -185 q 528 -162 503 -185 q 554 -89 554 -139 l 554 413 q 526 508 554 481 q 426 535 499 535 q 340 516 383 535 q 267 467 297 497 l 267 0 l 79 0 l 79 658 l 253 658 l 260 596 q 365 651 304 629 q 492 672 426 672 q 681 612 621 672 q 742 422 742 551 l 742 -107 q 684 -267 742 -208 q 514 -325 626 -325 z "},"ṉ":{"ha":815,"x_min":79,"x_max":742,"o":"m 79 658 l 253 658 l 260 596 q 365 651 304 629 q 492 672 426 672 q 681 612 621 672 q 742 422 742 551 l 742 0 l 554 0 l 554 413 q 526 508 554 481 q 426 535 499 535 q 340 516 383 535 q 267 467 297 497 l 267 0 l 79 0 l 79 658 m 206 -100 l 633 -100 l 633 -215 l 206 -215 l 206 -100 z "},"ñ":{"ha":815,"x_min":79,"x_max":742,"o":"m 535 742 q 481 749 507 742 q 413 771 454 756 q 311 797 346 797 q 186 746 233 797 l 186 879 q 238 910 206 899 q 307 922 271 922 q 363 915 336 922 q 424 893 390 907 q 484 873 463 879 q 531 867 506 867 q 646 919 608 867 l 646 786 q 602 754 632 767 q 535 742 572 742 m 79 658 l 253 658 l 260 596 q 365 651 304 629 q 492 672 426 672 q 681 612 621 672 q 742 422 742 551 l 742 0 l 554 0 l 554 413 q 526 508 554 481 q 426 535 499 535 q 340 516 383 535 q 267 467 297 497 l 267 0 l 79 0 l 79 658 z "},"o":{"ha":818,"x_min":51,"x_max":767,"o":"m 408 -14 q 51 329 51 -14 q 140 584 51 496 q 408 672 228 672 q 678 584 589 672 q 767 329 767 496 q 408 -14 767 -14 m 408 146 q 538 188 500 146 q 576 329 576 229 q 538 471 576 429 q 408 513 500 513 q 280 471 318 513 q 242 329 242 429 q 280 188 242 229 q 408 146 318 146 z "},"ó":{"ha":818,"x_min":51,"x_max":767,"o":"m 433 985 l 596 985 l 474 725 l 322 725 l 433 985 m 408 -14 q 51 329 51 -14 q 140 584 51 496 q 408 672 228 672 q 678 584 589 672 q 767 329 767 496 q 408 -14 767 -14 m 408 146 q 538 188 500 146 q 576 329 576 229 q 538 471 576 429 q 408 513 500 513 q 280 471 318 513 q 242 329 242 429 q 280 188 242 229 q 408 146 318 146 z "},"ŏ":{"ha":818,"x_min":51,"x_max":767,"o":"m 408 725 q 250 783 310 725 q 190 943 190 842 l 315 943 q 340 865 315 896 q 408 833 364 833 q 479 865 454 833 q 504 943 504 897 l 629 943 q 568 783 629 842 q 408 725 507 725 m 408 -14 q 51 329 51 -14 q 140 584 51 496 q 408 672 228 672 q 678 584 589 672 q 767 329 767 496 q 408 -14 767 -14 m 408 146 q 538 188 500 146 q 576 329 576 229 q 538 471 576 429 q 408 513 500 513 q 280 471 318 513 q 242 329 242 429 q 280 188 242 229 q 408 146 318 146 z "},"ǒ":{"ha":818,"x_min":51,"x_max":767,"o":"m 161 967 l 308 967 l 408 828 l 511 967 l 656 967 l 468 725 l 349 725 l 161 967 m 408 -14 q 51 329 51 -14 q 140 584 51 496 q 408 672 228 672 q 678 584 589 672 q 767 329 767 496 q 408 -14 767 -14 m 408 146 q 538 188 500 146 q 576 329 576 229 q 538 471 576 429 q 408 513 500 513 q 280 471 318 513 q 242 329 242 429 q 280 188 242 229 q 408 146 318 146 z "},"ô":{"ha":818,"x_min":51,"x_max":767,"o":"m 349 967 l 468 967 l 656 725 l 511 725 l 408 864 l 308 725 l 161 725 l 349 967 m 408 -14 q 51 329 51 -14 q 140 584 51 496 q 408 672 228 672 q 678 584 589 672 q 767 329 767 496 q 408 -14 767 -14 m 408 146 q 538 188 500 146 q 576 329 576 229 q 538 471 576 429 q 408 513 500 513 q 280 471 318 513 q 242 329 242 429 q 280 188 242 229 q 408 146 318 146 z "},"ố":{"ha":818,"x_min":51,"x_max":789,"o":"m 647 1082 l 789 1082 l 688 886 l 556 886 l 647 1082 m 343 911 l 486 911 l 661 724 l 510 724 l 415 836 l 322 724 l 168 724 l 343 911 m 408 -14 q 51 329 51 -14 q 140 584 51 496 q 408 672 228 672 q 678 584 589 672 q 767 329 767 496 q 408 -14 767 -14 m 408 146 q 538 188 500 146 q 576 329 576 229 q 538 471 576 429 q 408 513 500 513 q 280 471 318 513 q 242 329 242 429 q 280 188 242 229 q 408 146 318 146 z "},"ộ":{"ha":818,"x_min":51,"x_max":767,"o":"m 349 967 l 468 967 l 656 725 l 511 725 l 408 864 l 308 725 l 161 725 l 349 967 m 408 -14 q 51 329 51 -14 q 140 584 51 496 q 408 672 228 672 q 678 584 589 672 q 767 329 767 496 q 408 -14 767 -14 m 408 146 q 538 188 500 146 q 576 329 576 229 q 538 471 576 429 q 408 513 500 513 q 280 471 318 513 q 242 329 242 429 q 280 188 242 229 q 408 146 318 146 m 335 -114 l 483 -114 l 483 -251 l 335 -251 l 335 -114 z "},"ồ":{"ha":818,"x_min":35,"x_max":767,"o":"m 35 1082 l 176 1082 l 268 886 l 136 886 l 35 1082 m 338 911 l 481 911 l 656 724 l 501 724 l 408 836 l 314 724 l 163 724 l 338 911 m 408 -14 q 51 329 51 -14 q 140 584 51 496 q 408 672 228 672 q 678 584 589 672 q 767 329 767 496 q 408 -14 767 -14 m 408 146 q 538 188 500 146 q 576 329 576 229 q 538 471 576 429 q 408 513 500 513 q 280 471 318 513 q 242 329 242 429 q 280 188 242 229 q 408 146 318 146 z "},"ổ":{"ha":818,"x_min":51,"x_max":807,"o":"m 572 953 q 656 967 635 956 q 676 1001 676 978 q 661 1031 676 1022 q 614 1039 646 1039 q 539 1022 575 1039 l 539 1108 q 654 1125 589 1125 q 767 1094 726 1125 q 807 1013 807 1064 q 701 903 807 918 l 701 856 l 572 856 l 572 953 m 347 911 l 490 911 l 665 724 l 514 724 l 419 836 l 326 724 l 172 724 l 347 911 m 408 -14 q 51 329 51 -14 q 140 584 51 496 q 408 672 228 672 q 678 584 589 672 q 767 329 767 496 q 408 -14 767 -14 m 408 146 q 538 188 500 146 q 576 329 576 229 q 538 471 576 429 q 408 513 500 513 q 280 471 318 513 q 242 329 242 429 q 280 188 242 229 q 408 146 318 146 z "},"ỗ":{"ha":818,"x_min":51,"x_max":767,"o":"m 528 971 q 474 978 500 971 q 406 1000 447 985 q 304 1026 339 1026 q 179 975 226 1026 l 179 1094 q 231 1126 199 1114 q 300 1138 264 1138 q 356 1130 329 1138 q 417 1108 383 1122 q 477 1088 456 1094 q 524 1082 499 1082 q 639 1135 601 1082 l 639 1015 q 595 983 625 996 q 528 971 565 971 m 408 725 q 242 778 304 725 q 179 942 179 832 l 290 942 q 321 854 290 885 q 408 824 351 824 q 494 854 464 824 q 525 942 525 885 l 636 942 q 574 778 636 832 q 408 725 511 725 m 408 -14 q 51 329 51 -14 q 140 584 51 496 q 408 672 228 672 q 678 584 589 672 q 767 329 767 496 q 408 -14 767 -14 m 408 146 q 538 188 500 146 q 576 329 576 229 q 538 471 576 429 q 408 513 500 513 q 280 471 318 513 q 242 329 242 429 q 280 188 242 229 q 408 146 318 146 z "},"ö":{"ha":818,"x_min":51,"x_max":767,"o":"m 199 896 l 346 896 l 346 760 l 199 760 l 199 896 m 471 896 l 618 896 l 618 760 l 471 760 l 471 896 m 408 -14 q 51 329 51 -14 q 140 584 51 496 q 408 672 228 672 q 678 584 589 672 q 767 329 767 496 q 408 -14 767 -14 m 408 146 q 538 188 500 146 q 576 329 576 229 q 538 471 576 429 q 408 513 500 513 q 280 471 318 513 q 242 329 242 429 q 280 188 242 229 q 408 146 318 146 z "},"ọ":{"ha":818,"x_min":51,"x_max":767,"o":"m 408 -14 q 51 329 51 -14 q 140 584 51 496 q 408 672 228 672 q 678 584 589 672 q 767 329 767 496 q 408 -14 767 -14 m 408 146 q 538 188 500 146 q 576 329 576 229 q 538 471 576 429 q 408 513 500 513 q 280 471 318 513 q 242 329 242 429 q 280 188 242 229 q 408 146 318 146 m 335 -114 l 483 -114 l 483 -251 l 335 -251 l 335 -114 z "},"ò":{"ha":818,"x_min":51,"x_max":767,"o":"m 215 985 l 378 985 l 489 725 l 338 725 l 215 985 m 408 -14 q 51 329 51 -14 q 140 584 51 496 q 408 672 228 672 q 678 584 589 672 q 767 329 767 496 q 408 -14 767 -14 m 408 146 q 538 188 500 146 q 576 329 576 229 q 538 471 576 429 q 408 513 500 513 q 280 471 318 513 q 242 329 242 429 q 280 188 242 229 q 408 146 318 146 z "},"ỏ":{"ha":818,"x_min":51,"x_max":767,"o":"m 340 836 q 440 855 414 840 q 465 903 465 869 q 369 957 465 957 q 324 953 349 957 q 283 942 299 949 l 283 1035 q 422 1053 338 1053 q 557 1017 510 1053 q 604 919 604 981 q 577 831 604 861 q 483 788 550 800 l 483 724 l 340 724 l 340 836 m 408 -14 q 51 329 51 -14 q 140 584 51 496 q 408 672 228 672 q 678 584 589 672 q 767 329 767 496 q 408 -14 767 -14 m 408 146 q 538 188 500 146 q 576 329 576 229 q 538 471 576 429 q 408 513 500 513 q 280 471 318 513 q 242 329 242 429 q 280 188 242 229 q 408 146 318 146 z "},"ơ":{"ha":964,"x_min":51,"x_max":946,"o":"m 408 -14 q 51 329 51 -14 q 140 584 51 496 q 408 672 228 672 q 674 588 582 672 q 781 624 751 589 q 811 744 811 660 l 946 744 q 898 547 946 611 q 747 468 850 483 q 767 329 767 406 q 408 -14 767 -14 m 408 146 q 538 188 500 146 q 576 329 576 229 q 538 471 576 429 q 408 513 500 513 q 280 471 318 513 q 242 329 242 429 q 280 188 242 229 q 408 146 318 146 z "},"ớ":{"ha":964,"x_min":51,"x_max":946,"o":"m 451 985 l 614 985 l 492 725 l 340 725 l 451 985 m 408 -14 q 51 329 51 -14 q 140 584 51 496 q 408 672 228 672 q 674 588 582 672 q 781 624 751 589 q 811 744 811 660 l 946 744 q 898 547 946 611 q 747 468 850 483 q 767 329 767 406 q 408 -14 767 -14 m 408 146 q 538 188 500 146 q 576 329 576 229 q 538 471 576 429 q 408 513 500 513 q 280 471 318 513 q 242 329 242 429 q 280 188 242 229 q 408 146 318 146 z "},"ợ":{"ha":964,"x_min":51,"x_max":946,"o":"m 408 -14 q 51 329 51 -14 q 140 584 51 496 q 408 672 228 672 q 674 588 582 672 q 781 624 751 589 q 811 744 811 660 l 946 744 q 898 547 946 611 q 747 468 850 483 q 767 329 767 406 q 408 -14 767 -14 m 408 146 q 538 188 500 146 q 576 329 576 229 q 538 471 576 429 q 408 513 500 513 q 280 471 318 513 q 242 329 242 429 q 280 188 242 229 q 408 146 318 146 m 346 -114 l 494 -114 l 494 -251 l 346 -251 l 346 -114 z "},"ờ":{"ha":964,"x_min":51,"x_max":946,"o":"m 236 985 l 399 985 l 510 725 l 358 725 l 236 985 m 408 -14 q 51 329 51 -14 q 140 584 51 496 q 408 672 228 672 q 674 588 582 672 q 781 624 751 589 q 811 744 811 660 l 946 744 q 898 547 946 611 q 747 468 850 483 q 767 329 767 406 q 408 -14 767 -14 m 408 146 q 538 188 500 146 q 576 329 576 229 q 538 471 576 429 q 408 513 500 513 q 280 471 318 513 q 242 329 242 429 q 280 188 242 229 q 408 146 318 146 z "},"ở":{"ha":964,"x_min":51,"x_max":946,"o":"m 335 836 q 434 855 408 840 q 460 903 460 869 q 364 957 460 957 q 318 953 343 957 q 278 942 293 949 l 278 1035 q 417 1053 332 1053 q 551 1017 504 1053 q 599 919 599 981 q 572 831 599 861 q 478 788 544 800 l 478 724 l 335 724 l 335 836 m 408 -14 q 51 329 51 -14 q 140 584 51 496 q 408 672 228 672 q 674 588 582 672 q 781 624 751 589 q 811 744 811 660 l 946 744 q 898 547 946 611 q 747 468 850 483 q 767 329 767 406 q 408 -14 767 -14 m 408 146 q 538 188 500 146 q 576 329 576 229 q 538 471 576 429 q 408 513 500 513 q 280 471 318 513 q 242 329 242 429 q 280 188 242 229 q 408 146 318 146 z "},"ỡ":{"ha":964,"x_min":51,"x_max":946,"o":"m 536 738 q 482 744 508 738 q 414 767 456 751 q 313 793 349 793 q 188 742 235 793 l 188 875 q 240 906 207 894 q 308 918 272 918 q 365 910 338 918 q 425 889 392 903 q 485 869 464 875 q 532 863 507 863 q 647 915 610 863 l 647 782 q 603 750 633 763 q 536 738 574 738 m 408 -14 q 51 329 51 -14 q 140 584 51 496 q 408 672 228 672 q 674 588 582 672 q 781 624 751 589 q 811 744 811 660 l 946 744 q 898 547 946 611 q 747 468 850 483 q 767 329 767 406 q 408 -14 767 -14 m 408 146 q 538 188 500 146 q 576 329 576 229 q 538 471 576 429 q 408 513 500 513 q 280 471 318 513 q 242 329 242 429 q 280 188 242 229 q 408 146 318 146 z "},"ő":{"ha":818,"x_min":51,"x_max":767,"o":"m 275 968 l 442 968 l 314 724 l 165 724 l 275 968 m 592 968 l 758 968 l 631 724 l 482 724 l 592 968 m 408 -14 q 51 329 51 -14 q 140 584 51 496 q 408 672 228 672 q 678 584 589 672 q 767 329 767 496 q 408 -14 767 -14 m 408 146 q 538 188 500 146 q 576 329 576 229 q 538 471 576 429 q 408 513 500 513 q 280 471 318 513 q 242 329 242 429 q 280 188 242 229 q 408 146 318 146 z "},"ō":{"ha":818,"x_min":51,"x_max":767,"o":"m 188 888 l 615 888 l 615 772 l 188 772 l 188 888 m 408 -14 q 51 329 51 -14 q 140 584 51 496 q 408 672 228 672 q 678 584 589 672 q 767 329 767 496 q 408 -14 767 -14 m 408 146 q 538 188 500 146 q 576 329 576 229 q 538 471 576 429 q 408 513 500 513 q 280 471 318 513 q 242 329 242 429 q 280 188 242 229 q 408 146 318 146 z "},"ø":{"ha":818,"x_min":51,"x_max":767,"o":"m 231 15 q 51 329 51 86 q 140 584 51 496 q 408 672 228 672 q 479 668 446 672 l 504 733 l 611 733 l 578 646 q 767 329 767 576 q 408 -14 767 -14 q 328 -8 361 -14 l 304 -74 l 197 -74 l 231 15 m 419 513 l 408 513 q 280 471 318 513 q 242 329 242 429 q 253 233 242 271 q 292 175 265 196 l 419 513 m 408 146 q 538 188 500 146 q 576 329 576 229 q 562 430 576 392 q 517 488 547 468 l 388 146 l 408 146 z "},"ǿ":{"ha":818,"x_min":51,"x_max":767,"o":"m 410 985 l 572 985 l 450 725 l 299 725 l 410 985 m 231 15 q 51 329 51 86 q 140 584 51 496 q 408 672 228 672 q 479 668 446 672 l 504 733 l 611 733 l 578 646 q 767 329 767 576 q 408 -14 767 -14 q 328 -8 361 -14 l 304 -74 l 197 -74 l 231 15 m 419 513 l 408 513 q 280 471 318 513 q 242 329 242 429 q 253 233 242 271 q 292 175 265 196 l 419 513 m 408 146 q 538 188 500 146 q 576 329 576 229 q 562 430 576 392 q 517 488 547 468 l 388 146 l 408 146 z "},"õ":{"ha":818,"x_min":51,"x_max":767,"o":"m 528 756 q 474 763 500 756 q 406 785 447 769 q 304 811 339 811 q 179 760 226 811 l 179 893 q 231 924 199 913 q 300 936 264 936 q 356 928 329 936 q 417 907 383 921 q 477 887 456 893 q 524 881 499 881 q 639 933 601 881 l 639 800 q 595 768 625 781 q 528 756 565 756 m 408 -14 q 51 329 51 -14 q 140 584 51 496 q 408 672 228 672 q 678 584 589 672 q 767 329 767 496 q 408 -14 767 -14 m 408 146 q 538 188 500 146 q 576 329 576 229 q 538 471 576 429 q 408 513 500 513 q 280 471 318 513 q 242 329 242 429 q 280 188 242 229 q 408 146 318 146 z "},"œ":{"ha":1292,"x_min":51,"x_max":1240,"o":"m 1240 264 l 764 264 q 834 157 778 188 q 1000 126 890 126 q 1107 136 1051 126 q 1201 161 1163 146 l 1201 28 q 961 -14 1110 -14 q 683 78 779 -14 q 408 -14 594 -14 q 51 329 51 -14 q 140 584 51 496 q 408 672 228 672 q 678 583 589 672 q 925 672 764 672 q 1158 594 1075 672 q 1240 383 1240 515 l 1240 264 m 1076 415 q 931 538 1076 538 q 803 502 842 538 q 764 386 765 467 l 764 379 l 1076 379 l 1076 415 m 408 146 q 538 188 500 146 q 576 329 576 229 q 538 471 576 429 q 408 513 500 513 q 280 471 318 513 q 242 329 242 429 q 280 188 242 229 q 408 146 318 146 z "},"p":{"ha":819,"x_min":79,"x_max":768,"o":"m 79 658 l 242 658 l 251 597 q 347 653 296 635 q 467 672 399 672 q 692 592 615 672 q 768 338 768 511 q 686 74 768 163 q 456 -14 604 -14 q 267 36 344 -14 l 267 -300 l 79 -300 l 79 658 m 408 124 q 535 176 493 124 q 578 336 578 228 q 539 488 578 442 q 414 535 500 535 q 267 475 328 535 l 267 174 q 331 136 299 149 q 408 124 364 124 z "},"þ":{"ha":819,"x_min":79,"x_max":768,"o":"m 79 972 l 267 972 l 267 622 q 463 672 343 672 q 689 588 610 672 q 768 331 768 504 q 686 72 768 157 q 456 -14 604 -14 q 267 36 344 -14 l 267 -300 l 79 -300 l 79 972 m 408 124 q 535 174 493 124 q 578 333 578 225 q 539 487 578 439 q 414 535 500 535 q 267 475 328 535 l 267 174 q 331 136 299 149 q 408 124 364 124 z "},"q":{"ha":904,"x_min":51,"x_max":867,"o":"m 744 -336 q 601 -289 649 -336 q 553 -142 553 -242 l 553 36 q 364 -14 476 -14 q 133 69 215 -14 q 51 324 51 151 q 134 584 51 496 q 356 672 217 672 q 474 653 424 672 q 568 597 524 635 l 579 658 l 740 658 l 740 -124 q 756 -180 740 -164 q 810 -196 771 -196 q 867 -186 835 -196 l 867 -315 q 810 -331 836 -326 q 744 -336 783 -336 m 411 124 q 490 136 457 124 q 553 174 522 149 l 553 475 q 487 520 521 506 q 408 535 453 535 q 282 483 322 535 q 242 326 242 432 q 283 171 242 218 q 411 124 325 124 z "},"r":{"ha":525,"x_min":79,"x_max":501,"o":"m 79 658 l 253 658 l 261 590 q 372 642 307 619 q 501 672 438 664 l 501 531 q 374 502 442 522 q 267 460 306 482 l 267 0 l 79 0 l 79 658 z "},"ŕ":{"ha":531,"x_min":85,"x_max":507,"o":"m 264 985 l 426 985 l 304 725 l 153 725 l 264 985 m 85 658 l 258 658 l 267 590 q 378 642 313 619 q 507 672 443 664 l 507 531 q 379 502 447 522 q 272 460 311 482 l 272 0 l 85 0 l 85 658 z "},"ř":{"ha":525,"x_min":-29,"x_max":501,"o":"m -29 967 l 118 967 l 218 828 l 321 967 l 465 967 l 278 725 l 158 725 l -29 967 m 79 658 l 253 658 l 261 590 q 372 642 307 619 q 501 672 438 664 l 501 531 q 374 502 442 522 q 267 460 306 482 l 267 0 l 79 0 l 79 658 z "},"ŗ":{"ha":525,"x_min":54,"x_max":501,"o":"m 79 658 l 253 658 l 261 590 q 372 642 307 619 q 501 672 438 664 l 501 531 q 374 502 442 522 q 267 460 306 482 l 267 0 l 79 0 l 79 658 m 97 -51 l 244 -51 l 175 -331 l 54 -331 l 97 -51 z "},"ṛ":{"ha":525,"x_min":79,"x_max":501,"o":"m 79 658 l 253 658 l 261 590 q 372 642 307 619 q 501 672 438 664 l 501 531 q 374 502 442 522 q 267 460 306 482 l 267 0 l 79 0 l 79 658 m 88 -114 l 236 -114 l 236 -251 l 88 -251 l 88 -114 z "},"ṝ":{"ha":536,"x_min":31,"x_max":513,"o":"m 31 881 l 458 881 l 458 765 l 31 765 l 31 881 m 90 658 l 264 658 l 272 590 q 383 642 318 619 q 513 672 449 664 l 513 531 q 385 502 453 522 q 278 460 317 482 l 278 0 l 90 0 l 90 658 m 108 -114 l 257 -114 l 257 -251 l 108 -251 l 108 -114 z "},"ṟ":{"ha":525,"x_min":-35,"x_max":501,"o":"m 79 658 l 253 658 l 261 590 q 372 642 307 619 q 501 672 438 664 l 501 531 q 374 502 442 522 q 267 460 306 482 l 267 0 l 79 0 l 79 658 m -35 -100 l 393 -100 l 393 -215 l -35 -215 l -35 -100 z "},"s":{"ha":654,"x_min":51,"x_max":603,"o":"m 311 -14 q 172 -4 239 -14 q 64 22 106 6 l 64 178 q 171 148 110 158 q 286 138 232 138 q 385 147 358 138 q 413 183 413 156 q 388 222 413 208 q 292 258 363 236 q 239 275 271 264 q 97 351 142 307 q 51 476 51 396 q 122 622 51 572 q 342 672 192 672 q 453 664 399 672 q 549 642 508 656 l 549 488 q 464 514 513 504 q 372 524 415 524 q 274 515 306 524 q 242 479 242 506 q 265 444 242 456 q 353 413 288 432 l 399 399 q 522 347 479 374 q 584 282 565 319 q 603 186 603 244 q 529 37 603 88 q 311 -14 456 -14 z "},"ś":{"ha":654,"x_min":51,"x_max":603,"o":"m 350 985 l 513 985 l 390 725 l 239 725 l 350 985 m 311 -14 q 172 -4 239 -14 q 64 22 106 6 l 64 178 q 171 148 110 158 q 286 138 232 138 q 385 147 358 138 q 413 183 413 156 q 388 222 413 208 q 292 258 363 236 q 239 275 271 264 q 97 351 142 307 q 51 476 51 396 q 122 622 51 572 q 342 672 192 672 q 453 664 399 672 q 549 642 508 656 l 549 488 q 464 514 513 504 q 372 524 415 524 q 274 515 306 524 q 242 479 242 506 q 265 444 242 456 q 353 413 288 432 l 399 399 q 522 347 479 374 q 584 282 565 319 q 603 186 603 244 q 529 37 603 88 q 311 -14 456 -14 z "},"š":{"ha":654,"x_min":51,"x_max":603,"o":"m 76 967 l 224 967 l 324 828 l 426 967 l 571 967 l 383 725 l 264 725 l 76 967 m 311 -14 q 172 -4 239 -14 q 64 22 106 6 l 64 178 q 171 148 110 158 q 286 138 232 138 q 385 147 358 138 q 413 183 413 156 q 388 222 413 208 q 292 258 363 236 q 239 275 271 264 q 97 351 142 307 q 51 476 51 396 q 122 622 51 572 q 342 672 192 672 q 453 664 399 672 q 549 642 508 656 l 549 488 q 464 514 513 504 q 372 524 415 524 q 274 515 306 524 q 242 479 242 506 q 265 444 242 456 q 353 413 288 432 l 399 399 q 522 347 479 374 q 584 282 565 319 q 603 186 603 244 q 529 37 603 88 q 311 -14 456 -14 z "},"ş":{"ha":654,"x_min":51,"x_max":603,"o":"m 603 186 q 381 -11 603 14 l 364 -62 q 474 -96 436 -62 q 511 -189 511 -129 q 300 -333 511 -333 q 243 -330 276 -333 q 194 -322 210 -326 l 194 -228 q 279 -239 235 -239 q 367 -229 343 -239 q 390 -187 390 -219 q 365 -145 390 -154 q 283 -136 340 -136 l 222 -136 l 258 -12 q 64 22 139 -6 l 64 178 q 171 148 110 158 q 286 138 232 138 q 385 147 358 138 q 413 183 413 156 q 388 222 413 208 q 292 258 363 236 q 239 275 271 264 q 97 351 142 307 q 51 476 51 396 q 122 622 51 572 q 342 672 192 672 q 453 664 399 672 q 549 642 508 656 l 549 488 q 464 514 513 504 q 372 524 415 524 q 274 515 306 524 q 242 479 242 506 q 265 444 242 456 q 353 413 288 432 l 399 399 q 522 347 479 374 q 584 282 565 319 q 603 186 603 244 z "},"ŝ":{"ha":654,"x_min":51,"x_max":603,"o":"m 272 981 l 392 981 l 579 739 l 435 739 l 332 878 l 232 739 l 85 739 l 272 981 m 311 -14 q 172 -4 239 -14 q 64 22 106 6 l 64 178 q 171 148 110 158 q 286 138 232 138 q 385 147 358 138 q 413 183 413 156 q 388 222 413 208 q 292 258 363 236 q 239 275 271 264 q 97 351 142 307 q 51 476 51 396 q 122 622 51 572 q 342 672 192 672 q 453 664 399 672 q 549 642 508 656 l 549 488 q 464 514 513 504 q 372 524 415 524 q 274 515 306 524 q 242 479 242 506 q 265 444 242 456 q 353 413 288 432 l 399 399 q 522 347 479 374 q 584 282 565 319 q 603 186 603 244 q 529 37 603 88 q 311 -14 456 -14 z "},"ș":{"ha":654,"x_min":51,"x_max":603,"o":"m 311 -14 q 172 -4 239 -14 q 64 22 106 6 l 64 178 q 171 148 110 158 q 286 138 232 138 q 385 147 358 138 q 413 183 413 156 q 388 222 413 208 q 292 258 363 236 q 239 275 271 264 q 97 351 142 307 q 51 476 51 396 q 122 622 51 572 q 342 672 192 672 q 453 664 399 672 q 549 642 508 656 l 549 488 q 464 514 513 504 q 372 524 415 524 q 274 515 306 524 q 242 479 242 506 q 265 444 242 456 q 353 413 288 432 l 399 399 q 522 347 479 374 q 584 282 565 319 q 603 186 603 244 q 529 37 603 88 q 311 -14 456 -14 m 257 -65 l 419 -65 l 360 -314 l 217 -314 l 257 -65 z "},"ṡ":{"ha":654,"x_min":51,"x_max":603,"o":"m 249 896 l 394 896 l 394 760 l 249 760 l 249 896 m 311 -14 q 172 -4 239 -14 q 64 22 106 6 l 64 178 q 171 148 110 158 q 286 138 232 138 q 385 147 358 138 q 413 183 413 156 q 388 222 413 208 q 292 258 363 236 q 239 275 271 264 q 97 351 142 307 q 51 476 51 396 q 122 622 51 572 q 342 672 192 672 q 453 664 399 672 q 549 642 508 656 l 549 488 q 464 514 513 504 q 372 524 415 524 q 274 515 306 524 q 242 479 242 506 q 265 444 242 456 q 353 413 288 432 l 399 399 q 522 347 479 374 q 584 282 565 319 q 603 186 603 244 q 529 37 603 88 q 311 -14 456 -14 z "},"ṣ":{"ha":654,"x_min":51,"x_max":603,"o":"m 311 -14 q 172 -4 239 -14 q 64 22 106 6 l 64 178 q 171 148 110 158 q 286 138 232 138 q 385 147 358 138 q 413 183 413 156 q 388 222 413 208 q 292 258 363 236 q 239 275 271 264 q 97 351 142 307 q 51 476 51 396 q 122 622 51 572 q 342 672 192 672 q 453 664 399 672 q 549 642 508 656 l 549 488 q 464 514 513 504 q 372 524 415 524 q 274 515 306 524 q 242 479 242 506 q 265 444 242 456 q 353 413 288 432 l 399 399 q 522 347 479 374 q 584 282 565 319 q 603 186 603 244 q 529 37 603 88 q 311 -14 456 -14 m 269 -114 l 418 -114 l 418 -251 l 269 -251 l 269 -114 z "},"ß":{"ha":881,"x_min":72,"x_max":829,"o":"m 539 -14 q 339 18 426 -14 l 339 176 q 501 146 408 146 q 601 178 564 146 q 639 269 639 210 q 602 372 639 340 q 486 403 565 403 l 385 403 l 385 547 l 482 547 q 588 581 554 547 q 621 682 621 615 q 438 813 621 813 q 299 765 349 813 q 250 619 250 717 l 250 0 l 72 0 l 72 622 q 118 801 72 721 q 247 926 164 881 q 438 972 329 972 q 633 933 553 972 q 755 827 714 893 q 796 682 796 761 q 767 555 796 610 q 690 475 739 500 q 792 396 754 453 q 829 260 829 339 q 753 58 829 131 q 539 -14 678 -14 z "},"ə":{"ha":753,"x_min":51,"x_max":701,"o":"m 367 -14 q 133 60 214 -14 q 51 275 51 135 l 51 394 l 528 394 q 461 502 514 472 q 292 532 408 532 q 184 522 239 532 q 90 497 129 513 l 90 631 q 331 672 182 672 q 610 587 518 672 q 701 328 701 501 q 661 151 701 228 q 545 30 621 74 q 367 -14 469 -14 m 361 121 q 490 158 453 121 q 528 279 528 194 l 215 279 l 215 243 q 361 121 215 121 z "},"t":{"ha":511,"x_min":24,"x_max":488,"o":"m 340 -14 q 172 44 228 -14 q 117 208 117 103 l 117 514 l 24 514 l 24 658 l 117 658 l 117 800 l 304 856 l 304 658 l 471 658 l 460 514 l 304 514 l 304 221 q 328 147 304 168 q 407 126 353 126 q 488 140 446 126 l 488 11 q 340 -14 425 -14 z "},"ŧ":{"ha":511,"x_min":24,"x_max":488,"o":"m 407 126 q 488 140 446 126 l 488 11 q 340 -14 425 -14 q 172 44 228 -14 q 117 208 117 103 l 117 271 l 24 271 l 24 397 l 117 397 l 117 514 l 24 514 l 24 658 l 117 658 l 117 800 l 304 856 l 304 658 l 471 658 l 460 514 l 304 514 l 304 397 l 472 397 l 472 271 l 304 271 l 304 221 q 328 147 304 168 q 407 126 353 126 z "},"ť":{"ha":676,"x_min":24,"x_max":640,"o":"m 493 1056 l 640 1056 l 571 776 l 450 776 l 493 1056 m 340 -14 q 172 44 228 -14 q 117 208 117 103 l 117 514 l 24 514 l 24 658 l 117 658 l 117 800 l 304 856 l 304 658 l 471 658 l 460 514 l 304 514 l 304 221 q 328 147 304 168 q 407 126 353 126 q 488 140 446 126 l 488 11 q 340 -14 425 -14 z "},"ţ":{"ha":543,"x_min":24,"x_max":519,"o":"m 372 -62 q 482 -96 444 -62 q 519 -189 519 -129 q 308 -333 519 -333 q 251 -330 285 -333 q 203 -322 218 -326 l 203 -228 q 288 -239 243 -239 q 375 -229 351 -239 q 399 -187 399 -219 q 374 -145 399 -154 q 292 -136 349 -136 l 231 -136 l 269 -7 q 155 66 193 11 q 117 208 117 121 l 117 514 l 24 514 l 24 658 l 117 658 l 117 800 l 304 856 l 304 658 l 471 658 l 460 514 l 304 514 l 304 221 q 328 147 304 168 q 407 126 353 126 q 488 140 446 126 l 488 11 q 389 -11 446 -7 l 372 -62 z "},"ț":{"ha":511,"x_min":24,"x_max":488,"o":"m 340 -14 q 172 44 228 -14 q 117 208 117 103 l 117 514 l 24 514 l 24 658 l 117 658 l 117 800 l 304 856 l 304 658 l 471 658 l 460 514 l 304 514 l 304 221 q 328 147 304 168 q 407 126 353 126 q 488 140 446 126 l 488 11 q 340 -14 425 -14 m 247 -65 l 394 -65 l 325 -344 l 204 -344 l 247 -65 z "},"ẗ":{"ha":525,"x_min":36,"x_max":500,"o":"m 38 1028 l 185 1028 l 185 892 l 38 892 l 38 1028 m 310 1028 l 457 1028 l 457 892 l 310 892 l 310 1028 m 353 -14 q 185 44 240 -14 q 129 208 129 103 l 129 514 l 36 514 l 36 658 l 129 658 l 129 800 l 317 856 l 317 658 l 483 658 l 472 514 l 317 514 l 317 221 q 341 147 317 168 q 419 126 365 126 q 500 140 458 126 l 500 11 q 353 -14 438 -14 z "},"ṭ":{"ha":511,"x_min":24,"x_max":488,"o":"m 340 -14 q 172 44 228 -14 q 117 208 117 103 l 117 514 l 24 514 l 24 658 l 117 658 l 117 800 l 304 856 l 304 658 l 471 658 l 460 514 l 304 514 l 304 221 q 328 147 304 168 q 407 126 353 126 q 488 140 446 126 l 488 11 q 340 -14 425 -14 m 243 -100 l 392 -100 l 392 -237 l 243 -237 l 243 -100 z "},"ṯ":{"ha":522,"x_min":24,"x_max":499,"o":"m 340 -14 q 172 44 228 -14 q 117 208 117 103 l 117 514 l 24 514 l 24 658 l 117 658 l 117 800 l 304 856 l 304 658 l 471 658 l 460 514 l 304 514 l 304 221 q 328 147 304 168 q 407 126 353 126 q 488 140 446 126 l 488 11 q 340 -14 425 -14 m 71 -86 l 499 -86 l 499 -201 l 71 -201 l 71 -86 z "},"u":{"ha":815,"x_min":72,"x_max":735,"o":"m 322 -14 q 138 53 203 -14 q 72 246 72 119 l 72 658 l 260 658 l 260 250 q 291 154 260 185 q 388 124 322 124 q 476 142 435 124 q 547 192 517 161 l 547 658 l 735 658 l 735 0 l 561 0 l 554 63 q 322 -14 458 -14 z "},"ú":{"ha":815,"x_min":72,"x_max":735,"o":"m 417 985 l 579 985 l 457 725 l 306 725 l 417 985 m 322 -14 q 138 53 203 -14 q 72 246 72 119 l 72 658 l 260 658 l 260 250 q 291 154 260 185 q 388 124 322 124 q 476 142 435 124 q 547 192 517 161 l 547 658 l 735 658 l 735 0 l 561 0 l 554 63 q 322 -14 458 -14 z "},"ŭ":{"ha":815,"x_min":72,"x_max":735,"o":"m 414 725 q 256 783 315 725 q 196 943 196 842 l 321 943 q 345 865 321 896 q 414 833 369 833 q 485 865 460 833 q 510 943 510 897 l 635 943 q 574 783 635 842 q 414 725 513 725 m 322 -14 q 138 53 203 -14 q 72 246 72 119 l 72 658 l 260 658 l 260 250 q 291 154 260 185 q 388 124 322 124 q 476 142 435 124 q 547 192 517 161 l 547 658 l 735 658 l 735 0 l 561 0 l 554 63 q 322 -14 458 -14 z "},"ǔ":{"ha":815,"x_min":72,"x_max":735,"o":"m 157 967 l 304 967 l 404 828 l 507 967 l 651 967 l 464 725 l 344 725 l 157 967 m 322 -14 q 138 53 203 -14 q 72 246 72 119 l 72 658 l 260 658 l 260 250 q 291 154 260 185 q 388 124 322 124 q 476 142 435 124 q 547 192 517 161 l 547 658 l 735 658 l 735 0 l 561 0 l 554 63 q 322 -14 458 -14 z "},"û":{"ha":815,"x_min":72,"x_max":735,"o":"m 343 967 l 463 967 l 650 725 l 506 725 l 403 864 l 303 725 l 156 725 l 343 967 m 322 -14 q 138 53 203 -14 q 72 246 72 119 l 72 658 l 260 658 l 260 250 q 291 154 260 185 q 388 124 322 124 q 476 142 435 124 q 547 192 517 161 l 547 658 l 735 658 l 735 0 l 561 0 l 554 63 q 322 -14 458 -14 z "},"ü":{"ha":815,"x_min":72,"x_max":735,"o":"m 193 896 l 340 896 l 340 760 l 193 760 l 193 896 m 465 896 l 613 896 l 613 760 l 465 760 l 465 896 m 322 -14 q 138 53 203 -14 q 72 246 72 119 l 72 658 l 260 658 l 260 250 q 291 154 260 185 q 388 124 322 124 q 476 142 435 124 q 547 192 517 161 l 547 658 l 735 658 l 735 0 l 561 0 l 554 63 q 322 -14 458 -14 z "},"ǘ":{"ha":815,"x_min":72,"x_max":735,"o":"m 406 1061 l 547 1061 l 456 882 l 324 882 l 406 1061 m 183 854 l 324 854 l 324 725 l 183 725 l 183 854 m 463 854 l 603 854 l 603 725 l 463 725 l 463 854 m 322 -14 q 138 53 203 -14 q 72 246 72 119 l 72 658 l 260 658 l 260 250 q 291 154 260 185 q 388 124 322 124 q 476 142 435 124 q 547 192 517 161 l 547 658 l 735 658 l 735 0 l 561 0 l 554 63 q 322 -14 458 -14 z "},"ǚ":{"ha":815,"x_min":72,"x_max":735,"o":"m 188 1044 l 326 1044 l 410 943 l 494 1044 l 631 1044 l 474 876 l 344 876 l 188 1044 m 199 853 l 339 853 l 339 724 l 199 724 l 199 853 m 478 853 l 618 853 l 618 724 l 478 724 l 478 853 m 322 -14 q 138 53 203 -14 q 72 246 72 119 l 72 658 l 260 658 l 260 250 q 291 154 260 185 q 388 124 322 124 q 476 142 435 124 q 547 192 517 161 l 547 658 l 735 658 l 735 0 l 561 0 l 554 63 q 322 -14 458 -14 z "},"ǜ":{"ha":815,"x_min":72,"x_max":735,"o":"m 260 1061 l 401 1061 l 483 882 l 351 882 l 260 1061 m 204 854 l 344 854 l 344 725 l 204 725 l 204 854 m 483 854 l 624 854 l 624 725 l 483 725 l 483 854 m 322 -14 q 138 53 203 -14 q 72 246 72 119 l 72 658 l 260 658 l 260 250 q 291 154 260 185 q 388 124 322 124 q 476 142 435 124 q 547 192 517 161 l 547 658 l 735 658 l 735 0 l 561 0 l 554 63 q 322 -14 458 -14 z "},"ǖ":{"ha":815,"x_min":72,"x_max":735,"o":"m 197 1096 l 625 1096 l 625 981 l 197 981 l 197 1096 m 200 882 l 347 882 l 347 746 l 200 746 l 200 882 m 472 882 l 619 882 l 619 746 l 472 746 l 472 882 m 322 -14 q 138 53 203 -14 q 72 246 72 119 l 72 658 l 260 658 l 260 250 q 291 154 260 185 q 388 124 322 124 q 476 142 435 124 q 547 192 517 161 l 547 658 l 735 658 l 735 0 l 561 0 l 554 63 q 322 -14 458 -14 z "},"ụ":{"ha":815,"x_min":72,"x_max":735,"o":"m 322 -14 q 138 53 203 -14 q 72 246 72 119 l 72 658 l 260 658 l 260 250 q 291 154 260 185 q 388 124 322 124 q 476 142 435 124 q 547 192 517 161 l 547 658 l 735 658 l 735 0 l 561 0 l 554 63 q 322 -14 458 -14 m 324 -114 l 472 -114 l 472 -251 l 324 -251 l 324 -114 z "},"ù":{"ha":815,"x_min":72,"x_max":735,"o":"m 225 985 l 388 985 l 499 725 l 347 725 l 225 985 m 322 -14 q 138 53 203 -14 q 72 246 72 119 l 72 658 l 260 658 l 260 250 q 291 154 260 185 q 388 124 322 124 q 476 142 435 124 q 547 192 517 161 l 547 658 l 735 658 l 735 0 l 561 0 l 554 63 q 322 -14 458 -14 z "},"ủ":{"ha":815,"x_min":72,"x_max":735,"o":"m 332 836 q 431 855 406 840 q 457 903 457 869 q 361 957 457 957 q 315 953 340 957 q 275 942 290 949 l 275 1035 q 414 1053 329 1053 q 549 1017 501 1053 q 596 919 596 981 q 569 831 596 861 q 475 788 542 800 l 475 724 l 332 724 l 332 836 m 322 -14 q 138 53 203 -14 q 72 246 72 119 l 72 658 l 260 658 l 260 250 q 291 154 260 185 q 388 124 322 124 q 476 142 435 124 q 547 192 517 161 l 547 658 l 735 658 l 735 0 l 561 0 l 554 63 q 322 -14 458 -14 z "},"ư":{"ha":1001,"x_min":72,"x_max":983,"o":"m 322 -14 q 138 53 203 -14 q 72 246 72 119 l 72 658 l 260 658 l 260 250 q 291 154 260 185 q 388 124 322 124 q 476 142 435 124 q 547 192 517 161 l 547 658 l 735 658 l 735 589 q 824 630 799 594 q 849 744 849 665 l 983 744 q 925 534 983 597 q 735 464 867 471 l 735 0 l 561 0 l 554 63 q 322 -14 458 -14 z "},"ứ":{"ha":1008,"x_min":72,"x_max":983,"o":"m 443 985 l 606 985 l 483 725 l 332 725 l 443 985 m 322 -14 q 138 53 203 -14 q 72 246 72 119 l 72 658 l 260 658 l 260 250 q 291 154 260 185 q 388 124 322 124 q 476 142 435 124 q 547 192 517 161 l 547 658 l 735 658 l 735 589 q 824 630 799 594 q 849 744 849 665 l 983 744 q 925 534 983 597 q 735 464 867 471 l 735 0 l 561 0 l 554 63 q 322 -14 458 -14 z "},"ự":{"ha":1008,"x_min":72,"x_max":983,"o":"m 322 -14 q 138 53 203 -14 q 72 246 72 119 l 72 658 l 260 658 l 260 250 q 291 154 260 185 q 388 124 322 124 q 476 142 435 124 q 547 192 517 161 l 547 658 l 735 658 l 735 589 q 824 630 799 594 q 849 744 849 665 l 983 744 q 925 534 983 597 q 735 464 867 471 l 735 0 l 561 0 l 554 63 q 322 -14 458 -14 m 329 -114 l 478 -114 l 478 -251 l 329 -251 l 329 -114 z "},"ừ":{"ha":1008,"x_min":72,"x_max":983,"o":"m 221 985 l 383 985 l 494 725 l 343 725 l 221 985 m 322 -14 q 138 53 203 -14 q 72 246 72 119 l 72 658 l 260 658 l 260 250 q 291 154 260 185 q 388 124 322 124 q 476 142 435 124 q 547 192 517 161 l 547 658 l 735 658 l 735 589 q 824 630 799 594 q 849 744 849 665 l 983 744 q 925 534 983 597 q 735 464 867 471 l 735 0 l 561 0 l 554 63 q 322 -14 458 -14 z "},"ử":{"ha":1008,"x_min":72,"x_max":983,"o":"m 339 836 q 438 855 413 840 q 464 903 464 869 q 368 957 464 957 q 322 953 347 957 q 282 942 297 949 l 282 1035 q 421 1053 336 1053 q 556 1017 508 1053 q 603 919 603 981 q 576 831 603 861 q 482 788 549 800 l 482 724 l 339 724 l 339 836 m 322 -14 q 138 53 203 -14 q 72 246 72 119 l 72 658 l 260 658 l 260 250 q 291 154 260 185 q 388 124 322 124 q 476 142 435 124 q 547 192 517 161 l 547 658 l 735 658 l 735 589 q 824 630 799 594 q 849 744 849 665 l 983 744 q 925 534 983 597 q 735 464 867 471 l 735 0 l 561 0 l 554 63 q 322 -14 458 -14 z "},"ữ":{"ha":1008,"x_min":72,"x_max":983,"o":"m 532 738 q 478 744 504 738 q 410 767 451 751 q 308 793 344 793 q 183 742 231 793 l 183 875 q 235 906 203 894 q 304 918 268 918 q 360 910 333 918 q 421 889 388 903 q 481 869 460 875 q 528 863 503 863 q 643 915 606 863 l 643 782 q 599 750 629 763 q 532 738 569 738 m 322 -14 q 138 53 203 -14 q 72 246 72 119 l 72 658 l 260 658 l 260 250 q 291 154 260 185 q 388 124 322 124 q 476 142 435 124 q 547 192 517 161 l 547 658 l 735 658 l 735 589 q 824 630 799 594 q 849 744 849 665 l 983 744 q 925 534 983 597 q 735 464 867 471 l 735 0 l 561 0 l 554 63 q 322 -14 458 -14 z "},"ű":{"ha":815,"x_min":72,"x_max":735,"o":"m 246 968 l 413 968 l 285 724 l 136 724 l 246 968 m 563 968 l 729 968 l 601 724 l 453 724 l 563 968 m 322 -14 q 138 53 203 -14 q 72 246 72 119 l 72 658 l 260 658 l 260 250 q 291 154 260 185 q 388 124 322 124 q 476 142 435 124 q 547 192 517 161 l 547 658 l 735 658 l 735 0 l 561 0 l 554 63 q 322 -14 458 -14 z "},"ū":{"ha":815,"x_min":72,"x_max":735,"o":"m 197 888 l 625 888 l 625 772 l 197 772 l 197 888 m 322 -14 q 138 53 203 -14 q 72 246 72 119 l 72 658 l 260 658 l 260 250 q 291 154 260 185 q 388 124 322 124 q 476 142 435 124 q 547 192 517 161 l 547 658 l 735 658 l 735 0 l 561 0 l 554 63 q 322 -14 458 -14 z "},"ų":{"ha":822,"x_min":72,"x_max":738,"o":"m 669 -196 q 738 -181 711 -196 l 738 -286 q 685 -300 718 -294 q 619 -306 653 -306 q 506 -273 551 -306 q 460 -179 460 -240 q 486 -80 460 -126 q 561 0 513 -33 l 554 63 q 322 -14 458 -14 q 138 53 203 -14 q 72 246 72 119 l 72 658 l 260 658 l 260 250 q 291 154 260 185 q 388 124 322 124 q 476 142 435 124 q 547 192 517 161 l 547 658 l 735 658 l 735 0 l 700 0 q 607 -144 607 -69 q 669 -196 607 -196 z "},"ů":{"ha":815,"x_min":72,"x_max":735,"o":"m 406 725 q 281 772 328 725 q 233 890 233 819 q 281 1009 233 961 q 406 1057 328 1057 q 532 1010 485 1057 q 579 890 579 963 q 532 772 579 818 q 406 725 485 725 m 406 811 q 465 833 443 811 q 488 890 488 856 q 465 947 488 925 q 406 969 443 969 q 347 947 369 969 q 325 890 325 924 q 347 834 325 857 q 406 811 369 811 m 322 -14 q 138 53 203 -14 q 72 246 72 119 l 72 658 l 260 658 l 260 250 q 291 154 260 185 q 388 124 322 124 q 476 142 435 124 q 547 192 517 161 l 547 658 l 735 658 l 735 0 l 561 0 l 554 63 q 322 -14 458 -14 z "},"ũ":{"ha":815,"x_min":72,"x_max":735,"o":"m 528 742 q 474 749 500 742 q 406 771 447 756 q 304 797 339 797 q 179 746 226 797 l 179 879 q 231 910 199 899 q 300 922 264 922 q 356 915 329 922 q 417 893 383 907 q 477 873 456 879 q 524 867 499 867 q 639 919 601 867 l 639 786 q 595 754 625 767 q 528 742 565 742 m 322 -14 q 138 53 203 -14 q 72 246 72 119 l 72 658 l 260 658 l 260 250 q 291 154 260 185 q 388 124 322 124 q 476 142 435 124 q 547 192 517 161 l 547 658 l 735 658 l 735 0 l 561 0 l 554 63 q 322 -14 458 -14 z "},"v":{"ha":824,"x_min":51,"x_max":771,"o":"m 51 658 l 247 658 l 411 189 l 576 658 l 771 658 l 513 0 l 311 0 l 51 658 z "},"w":{"ha":1051,"x_min":51,"x_max":1000,"o":"m 51 658 l 239 658 l 339 231 l 449 574 l 449 658 l 592 658 l 717 231 l 814 658 l 1000 658 l 828 0 l 656 0 l 529 385 l 400 0 l 225 0 l 51 658 z "},"ẃ":{"ha":1051,"x_min":51,"x_max":1000,"o":"m 556 985 l 718 985 l 596 725 l 444 725 l 556 985 m 51 658 l 239 658 l 339 231 l 449 574 l 449 658 l 592 658 l 717 231 l 814 658 l 1000 658 l 828 0 l 656 0 l 529 385 l 400 0 l 225 0 l 51 658 z "},"ŵ":{"ha":1051,"x_min":51,"x_max":1000,"o":"m 469 967 l 589 967 l 776 725 l 632 725 l 529 864 l 429 725 l 282 725 l 469 967 m 51 658 l 239 658 l 339 231 l 449 574 l 449 658 l 592 658 l 717 231 l 814 658 l 1000 658 l 828 0 l 656 0 l 529 385 l 400 0 l 225 0 l 51 658 z "},"ẅ":{"ha":1051,"x_min":51,"x_max":1000,"o":"m 319 896 l 467 896 l 467 760 l 319 760 l 319 896 m 592 896 l 739 896 l 739 760 l 592 760 l 592 896 m 51 658 l 239 658 l 339 231 l 449 574 l 449 658 l 592 658 l 717 231 l 814 658 l 1000 658 l 828 0 l 656 0 l 529 385 l 400 0 l 225 0 l 51 658 z "},"ẁ":{"ha":1051,"x_min":51,"x_max":1000,"o":"m 321 985 l 483 985 l 594 725 l 443 725 l 321 985 m 51 658 l 239 658 l 339 231 l 449 574 l 449 658 l 592 658 l 717 231 l 814 658 l 1000 658 l 828 0 l 656 0 l 529 385 l 400 0 l 225 0 l 51 658 z "},"x":{"ha":813,"x_min":51,"x_max":760,"o":"m 304 335 l 61 658 l 264 658 l 406 467 l 547 658 l 750 658 l 508 335 l 760 0 l 556 0 l 406 201 l 256 0 l 51 0 l 304 335 z "},"y":{"ha":851,"x_min":51,"x_max":826,"o":"m 251 -244 q 110 -222 165 -244 l 110 -90 q 194 -104 149 -104 q 281 -79 250 -104 q 346 11 313 -54 l 51 658 l 247 658 l 440 211 l 632 658 l 826 658 l 567 46 q 435 -172 506 -100 q 251 -244 364 -244 z "},"ý":{"ha":851,"x_min":51,"x_max":826,"o":"m 464 985 l 626 985 l 504 725 l 353 725 l 464 985 m 251 -244 q 110 -222 165 -244 l 110 -90 q 194 -104 149 -104 q 281 -79 250 -104 q 346 11 313 -54 l 51 658 l 247 658 l 440 211 l 632 658 l 826 658 l 567 46 q 435 -172 506 -100 q 251 -244 364 -244 z "},"ŷ":{"ha":851,"x_min":51,"x_max":826,"o":"m 382 967 l 501 967 l 689 725 l 544 725 l 442 864 l 342 725 l 194 725 l 382 967 m 251 -244 q 110 -222 165 -244 l 110 -90 q 194 -104 149 -104 q 281 -79 250 -104 q 346 11 313 -54 l 51 658 l 247 658 l 440 211 l 632 658 l 826 658 l 567 46 q 435 -172 506 -100 q 251 -244 364 -244 z "},"ÿ":{"ha":851,"x_min":51,"x_max":826,"o":"m 233 915 l 381 915 l 381 779 l 233 779 l 233 915 m 506 915 l 653 915 l 653 779 l 506 779 l 506 915 m 251 -244 q 110 -222 165 -244 l 110 -90 q 194 -104 149 -104 q 281 -79 250 -104 q 346 11 313 -54 l 51 658 l 247 658 l 440 211 l 632 658 l 826 658 l 567 46 q 435 -172 506 -100 q 251 -244 364 -244 z "},"ẏ":{"ha":851,"x_min":51,"x_max":826,"o":"m 367 896 l 513 896 l 513 760 l 367 760 l 367 896 m 251 -244 q 110 -222 165 -244 l 110 -90 q 194 -104 149 -104 q 281 -79 250 -104 q 346 11 313 -54 l 51 658 l 247 658 l 440 211 l 632 658 l 826 658 l 567 46 q 435 -172 506 -100 q 251 -244 364 -244 z "},"ỵ":{"ha":851,"x_min":51,"x_max":826,"o":"m 251 -244 q 110 -222 165 -244 l 110 -90 q 194 -104 149 -104 q 281 -79 250 -104 q 346 11 313 -54 l 51 658 l 247 658 l 440 211 l 632 658 l 826 658 l 567 46 q 435 -172 506 -100 q 251 -244 364 -244 m 583 -100 l 732 -100 l 732 -237 l 583 -237 l 583 -100 z "},"ỳ":{"ha":851,"x_min":51,"x_max":826,"o":"m 246 985 l 408 985 l 519 725 l 368 725 l 246 985 m 251 -244 q 110 -222 165 -244 l 110 -90 q 194 -104 149 -104 q 281 -79 250 -104 q 346 11 313 -54 l 51 658 l 247 658 l 440 211 l 632 658 l 826 658 l 567 46 q 435 -172 506 -100 q 251 -244 364 -244 z "},"ỷ":{"ha":851,"x_min":51,"x_max":826,"o":"m 371 836 q 470 855 444 840 q 496 903 496 869 q 400 957 496 957 q 354 953 379 957 q 314 942 329 949 l 314 1035 q 453 1053 368 1053 q 588 1017 540 1053 q 635 919 635 981 q 608 831 635 861 q 514 788 581 800 l 514 724 l 371 724 l 371 836 m 251 -244 q 110 -222 165 -244 l 110 -90 q 194 -104 149 -104 q 281 -79 250 -104 q 346 11 313 -54 l 51 658 l 247 658 l 440 211 l 632 658 l 826 658 l 567 46 q 435 -172 506 -100 q 251 -244 364 -244 z "},"ỹ":{"ha":851,"x_min":51,"x_max":826,"o":"m 557 742 q 503 749 529 742 q 435 771 476 756 q 333 797 369 797 q 208 746 256 797 l 208 879 q 260 910 228 899 q 329 922 293 922 q 385 915 358 922 q 446 893 413 907 q 506 873 485 879 q 553 867 528 867 q 668 919 631 867 l 668 786 q 624 754 654 767 q 557 742 594 742 m 251 -244 q 110 -222 165 -244 l 110 -90 q 194 -104 149 -104 q 281 -79 250 -104 q 346 11 313 -54 l 51 658 l 247 658 l 440 211 l 632 658 l 826 658 l 567 46 q 435 -172 506 -100 q 251 -244 364 -244 z "},"z":{"ha":679,"x_min":51,"x_max":628,"o":"m 51 97 l 383 503 l 65 503 l 65 658 l 618 658 l 618 544 l 293 144 l 628 144 l 628 0 l 51 0 l 51 97 z "},"ź":{"ha":679,"x_min":51,"x_max":628,"o":"m 379 985 l 542 985 l 419 725 l 268 725 l 379 985 m 51 97 l 383 503 l 65 503 l 65 658 l 618 658 l 618 544 l 293 144 l 628 144 l 628 0 l 51 0 l 51 97 z "},"ž":{"ha":679,"x_min":51,"x_max":628,"o":"m 94 967 l 242 967 l 342 828 l 444 967 l 589 967 l 401 725 l 282 725 l 94 967 m 51 97 l 383 503 l 65 503 l 65 658 l 618 658 l 618 544 l 293 144 l 628 144 l 628 0 l 51 0 l 51 97 z "},"ż":{"ha":679,"x_min":51,"x_max":628,"o":"m 275 896 l 421 896 l 421 760 l 275 760 l 275 896 m 51 97 l 383 503 l 65 503 l 65 658 l 618 658 l 618 544 l 293 144 l 628 144 l 628 0 l 51 0 l 51 97 z "},"ẓ":{"ha":679,"x_min":51,"x_max":628,"o":"m 51 97 l 383 503 l 65 503 l 65 658 l 618 658 l 618 544 l 293 144 l 628 144 l 628 0 l 51 0 l 51 97 m 267 -114 l 415 -114 l 415 -251 l 267 -251 l 267 -114 z "},"ﬁ":{"ha":760,"x_min":24,"x_max":681,"o":"m 115 514 l 24 514 l 24 658 l 115 658 l 115 724 q 149 848 115 793 q 247 934 183 903 q 394 965 310 965 q 571 938 504 965 l 571 799 q 519 813 554 807 q 453 818 483 818 q 338 794 374 818 q 303 718 303 771 l 303 658 l 681 658 l 681 0 l 493 0 l 493 514 l 303 514 l 303 0 l 115 0 l 115 514 z "},"ﬂ":{"ha":760,"x_min":24,"x_max":681,"o":"m 115 514 l 24 514 l 24 658 l 115 658 l 115 724 q 183 894 115 828 q 369 960 251 960 q 511 938 440 960 l 681 938 l 681 0 l 493 0 l 493 514 l 303 514 l 303 0 l 115 0 l 115 514 m 493 658 l 493 807 q 452 815 478 813 q 407 818 426 818 q 303 717 303 818 l 303 658 l 493 658 z "},"ª":{"ha":472,"x_min":51,"x_max":419,"o":"m 182 528 q 88 556 125 528 q 51 640 51 583 q 201 763 51 763 l 310 763 l 310 769 q 290 812 310 800 q 218 824 271 824 q 99 804 157 824 l 99 885 q 164 902 125 896 q 242 908 203 908 q 373 874 326 908 q 419 767 419 839 l 419 536 l 321 536 l 314 568 q 258 538 289 547 q 182 528 228 528 m 218 603 q 310 646 278 603 l 310 692 l 225 692 q 172 682 188 692 q 156 646 156 672 q 172 613 156 622 q 218 603 188 603 z "},"º":{"ha":501,"x_min":51,"x_max":450,"o":"m 250 528 q 51 718 51 528 q 250 908 51 908 q 450 718 450 908 q 250 528 450 528 m 250 611 q 316 637 296 611 q 336 718 336 663 q 316 799 336 774 q 250 824 296 824 q 184 798 204 824 q 164 718 164 772 q 184 637 164 663 q 250 611 204 611 z "},"ⁿ":{"ha":492,"x_min":58,"x_max":440,"o":"m 58 900 l 163 900 l 165 867 q 308 907 225 907 q 405 873 369 907 q 440 775 440 839 l 440 536 l 329 536 l 329 756 q 315 807 329 792 q 264 822 300 822 q 214 812 242 822 q 169 786 186 801 l 169 536 l 58 536 l 58 900 z "},"Δ":{"ha":894,"x_min":51,"x_max":843,"o":"m 51 101 l 364 894 l 528 894 l 843 100 l 843 0 l 51 0 l 51 101 m 660 144 l 446 688 l 231 144 l 660 144 z "},"Ω":{"ha":1054,"x_min":51,"x_max":1001,"o":"m 61 139 l 239 139 q 100 292 149 199 q 51 508 51 386 q 108 748 51 644 q 271 908 164 851 q 526 965 378 965 q 782 908 675 965 q 945 748 889 851 q 1001 508 1001 644 q 953 290 1001 383 q 814 139 906 196 l 992 139 l 992 0 l 594 0 l 594 143 q 811 497 811 264 q 734 721 811 636 q 526 806 657 806 q 319 721 396 806 q 242 497 242 636 q 458 143 242 264 l 458 0 l 61 0 l 61 139 z "},"μ":{"ha":822,"x_min":79,"x_max":742,"o":"m 79 658 l 267 658 l 267 250 q 298 154 267 185 q 394 124 329 124 q 483 142 442 124 q 554 192 524 161 l 554 658 l 742 658 l 742 0 l 568 0 l 561 63 q 329 -14 465 -14 q 267 -3 294 -14 l 267 -199 l 79 -199 l 79 658 z "},"π":{"ha":939,"x_min":38,"x_max":908,"o":"m 761 -14 q 593 44 649 -14 q 538 208 538 103 l 538 514 l 315 514 l 315 0 l 128 0 l 128 514 l 38 514 l 38 658 l 814 658 l 814 514 l 725 514 l 725 221 q 749 147 725 168 q 828 126 774 126 q 908 140 867 126 l 908 11 q 761 -14 846 -14 z "},"ก":{"ha":864,"x_min":51,"x_max":778,"o":"m 86 239 q 110 356 86 310 q 193 421 133 403 l 51 458 l 51 638 q 212 728 117 692 q 421 764 307 764 q 688 692 599 764 q 778 453 778 621 l 778 0 l 590 0 l 590 457 q 549 581 590 544 q 411 618 508 618 q 299 600 351 618 q 213 554 246 582 l 213 535 l 367 493 l 367 379 q 293 334 313 365 q 274 238 274 303 l 274 0 l 86 0 l 86 239 z "},"ถ":{"ha":864,"x_min":51,"x_max":778,"o":"m 229 0 q 126 41 165 0 q 86 147 86 82 l 86 239 q 110 356 86 310 q 193 421 133 403 l 51 458 l 51 638 q 212 728 117 692 q 421 764 307 764 q 688 692 599 764 q 778 453 778 621 l 778 0 l 590 0 l 590 457 q 549 581 590 544 q 411 618 508 618 q 299 600 351 618 q 213 554 246 582 l 213 535 l 367 493 l 367 379 q 293 334 313 365 q 274 238 274 303 l 274 197 q 285 158 274 169 q 325 146 297 146 l 399 146 l 399 0 l 229 0 z "},"ภ":{"ha":913,"x_min":65,"x_max":826,"o":"m 65 146 l 111 146 q 148 157 138 146 q 158 196 158 168 l 158 239 q 179 355 158 311 q 258 421 200 399 l 117 458 l 117 638 q 277 728 182 692 q 486 764 372 764 q 739 690 651 764 q 826 453 826 617 l 826 0 l 639 0 l 639 457 q 601 581 639 544 q 476 618 564 618 q 364 600 417 618 q 278 554 311 582 l 278 535 l 432 493 l 432 379 q 365 333 381 363 q 349 238 349 304 l 349 186 q 302 44 349 89 q 165 0 256 0 l 65 0 l 65 146 z "},"ฤ":{"ha":864,"x_min":51,"x_max":778,"o":"m 590 457 q 549 581 590 544 q 411 618 508 618 q 299 600 351 618 q 213 554 246 582 l 213 535 l 367 493 l 367 379 q 293 334 313 365 q 274 238 274 303 l 274 197 q 285 158 274 169 q 325 146 297 146 l 399 146 l 399 0 l 229 0 q 126 41 165 0 q 86 147 86 82 l 86 239 q 110 356 86 310 q 193 421 133 403 l 51 458 l 51 638 q 212 728 117 692 q 421 764 307 764 q 688 692 599 764 q 778 453 778 621 l 778 -222 l 590 -222 l 590 457 z "},"ฦ":{"ha":914,"x_min":65,"x_max":826,"o":"m 639 457 q 601 581 639 544 q 476 618 564 618 q 364 600 417 618 q 278 554 311 582 l 278 535 l 432 493 l 432 379 q 365 333 381 363 q 349 238 349 304 l 349 186 q 302 44 349 89 q 165 0 256 0 l 65 0 l 65 146 l 111 146 q 148 157 138 146 q 158 196 158 168 l 158 239 q 179 355 158 311 q 258 421 200 399 l 117 458 l 117 638 q 277 728 182 692 q 486 764 372 764 q 739 690 651 764 q 826 453 826 617 l 826 -222 l 639 -222 l 639 457 z "},"ฎ":{"ha":914,"x_min":65,"x_max":826,"o":"m 228 -131 q 464 -82 329 -82 q 563 -92 517 -82 q 639 -117 610 -101 l 639 457 q 601 581 639 544 q 476 618 564 618 q 364 600 417 618 q 278 554 311 582 l 278 535 l 432 493 l 432 379 q 365 333 381 363 q 349 238 349 304 l 349 186 q 302 44 349 89 q 165 0 256 0 l 65 0 l 65 146 l 111 146 q 148 157 138 146 q 158 196 158 168 l 158 239 q 179 355 158 311 q 258 421 200 399 l 117 458 l 117 638 q 277 728 182 692 q 486 764 372 764 q 739 690 651 764 q 826 453 826 617 l 826 -269 l 639 -269 q 442 -228 564 -228 q 329 -241 389 -228 q 228 -274 269 -254 l 228 -131 z "},"ฏ":{"ha":914,"x_min":65,"x_max":826,"o":"m 604 -271 q 509 -253 553 -271 q 442 -204 465 -235 q 315 -269 404 -269 l 171 -269 l 179 -128 l 281 -128 q 342 -114 321 -128 q 376 -67 364 -100 l 496 -67 q 522 -117 504 -100 q 572 -133 539 -133 q 639 -62 639 -133 l 639 457 q 601 581 639 544 q 476 618 564 618 q 364 600 417 618 q 278 554 311 582 l 278 535 l 432 493 l 432 379 q 365 333 381 363 q 349 238 349 304 l 349 186 q 302 44 349 89 q 165 0 256 0 l 65 0 l 65 146 l 111 146 q 148 157 138 146 q 158 196 158 168 l 158 239 q 179 355 158 311 q 258 421 200 399 l 117 458 l 117 638 q 277 728 182 692 q 486 764 372 764 q 739 690 651 764 q 826 453 826 617 l 826 -65 q 767 -215 826 -160 q 604 -271 707 -271 z "},"ญ":{"ha":1357,"x_min":51,"x_max":1272,"o":"m 931 -99 q 778 -85 856 -99 q 643 -39 701 -71 l 643 106 q 780 61 700 76 q 924 46 860 46 q 1063 64 1010 46 q 1115 114 1115 82 q 1093 153 1115 139 q 919 111 1021 111 q 665 190 753 111 q 576 426 576 269 l 576 457 q 538 581 576 543 q 411 618 499 618 q 299 600 351 618 q 213 554 246 582 l 213 535 l 367 493 l 367 379 q 293 334 313 365 q 274 238 274 303 l 274 197 q 285 158 274 169 q 325 146 297 146 l 399 146 l 399 0 l 229 0 q 126 41 165 0 q 86 147 86 82 l 86 239 q 110 356 86 310 q 193 421 133 403 l 51 458 l 51 638 q 212 728 117 692 q 421 764 307 764 q 672 692 588 764 q 757 453 757 621 l 757 424 q 796 297 757 338 q 919 257 835 257 q 1043 297 1004 257 q 1082 424 1082 338 l 1082 750 l 1269 750 l 1269 426 q 1214 232 1269 306 q 1256 173 1240 208 q 1272 99 1272 138 q 1181 -47 1272 4 q 931 -99 1090 -99 z "},"ข":{"ha":826,"x_min":46,"x_max":740,"o":"m 400 -14 q 149 63 235 -14 q 63 276 63 139 l 63 324 q 83 412 63 374 q 138 496 103 450 q 170 542 160 525 q 181 576 181 560 q 171 604 181 597 q 136 611 161 611 l 46 611 l 61 750 l 256 750 q 371 643 371 750 q 356 567 371 601 q 311 485 340 533 q 265 403 281 439 q 250 325 250 368 l 250 265 q 288 166 250 200 q 400 132 326 132 q 553 271 553 132 l 553 750 l 740 750 l 740 279 q 649 65 740 143 q 400 -14 558 -14 z "},"ฃ":{"ha":826,"x_min":44,"x_max":740,"o":"m 400 -14 q 148 58 233 -14 q 63 267 63 131 l 63 285 q 89 383 63 335 q 164 493 115 431 q 206 551 192 529 q 219 589 219 572 q 197 615 219 615 q 163 600 181 615 l 163 543 l 44 543 l 44 750 l 168 750 l 168 711 q 218 740 192 731 q 281 750 244 750 q 392 636 392 750 q 374 552 392 590 q 318 458 356 514 q 267 372 283 408 q 250 296 250 336 l 250 265 q 288 166 250 200 q 400 132 326 132 q 553 271 553 132 l 553 750 l 740 750 l 740 279 q 649 65 740 143 q 400 -14 558 -14 z "},"ช":{"ha":829,"x_min":49,"x_max":743,"o":"m 403 -14 q 151 63 238 -14 q 65 276 65 139 l 65 324 q 85 412 65 374 q 140 496 106 450 q 173 542 163 525 q 183 576 183 560 q 174 604 183 597 q 139 611 164 611 l 49 611 l 64 750 l 258 750 q 374 643 374 750 q 358 567 374 601 q 314 485 343 533 q 268 403 283 439 q 253 325 253 368 l 253 265 q 291 166 253 200 q 403 132 329 132 q 556 271 556 132 l 556 358 q 538 433 556 411 q 474 456 519 456 l 435 456 l 443 586 l 468 586 q 535 610 514 586 q 556 685 556 633 l 556 764 l 743 764 l 743 689 q 722 583 743 622 q 647 521 701 544 q 723 456 703 494 q 743 351 743 417 l 743 279 q 652 65 743 143 q 403 -14 561 -14 z "},"ซ":{"ha":829,"x_min":47,"x_max":743,"o":"m 403 -14 q 151 57 238 -14 q 65 258 65 128 l 65 293 q 92 390 65 343 q 167 496 118 436 q 208 551 194 531 q 222 589 222 572 q 200 615 222 615 q 165 600 183 615 l 165 543 l 47 543 l 47 750 l 171 750 l 171 711 q 221 740 194 731 q 283 750 247 750 q 394 636 394 750 q 376 552 394 590 q 321 458 358 514 q 269 372 286 408 q 253 296 253 336 l 253 265 q 291 166 253 200 q 403 132 329 132 q 556 271 556 132 l 556 358 q 538 433 556 411 q 474 456 519 456 l 435 456 l 443 586 l 468 586 q 535 610 514 586 q 556 685 556 633 l 556 764 l 743 764 l 743 689 q 722 583 743 622 q 647 521 701 544 q 723 456 703 494 q 743 351 743 417 l 743 279 q 652 65 743 143 q 403 -14 561 -14 z "},"ค":{"ha":872,"x_min":79,"x_max":786,"o":"m 79 465 q 166 685 79 607 q 433 764 253 764 q 700 685 614 764 q 786 465 786 607 l 786 0 l 599 0 l 599 479 q 555 583 599 547 q 433 618 511 618 q 309 583 351 618 q 267 479 267 547 l 267 344 q 397 389 325 389 l 488 389 l 493 240 l 393 240 q 267 200 319 240 l 267 0 l 79 0 l 79 465 z "},"ฅ":{"ha":872,"x_min":79,"x_max":786,"o":"m 79 536 q 126 703 79 643 q 271 764 172 764 q 432 693 375 764 q 506 747 460 729 q 601 764 553 764 q 742 707 699 764 q 786 536 786 650 l 786 0 l 600 0 l 600 526 q 588 585 600 565 q 542 604 575 604 q 500 591 517 604 q 471 554 483 578 l 394 554 q 372 591 385 578 q 336 604 358 604 q 283 583 301 604 q 265 526 265 563 l 265 344 q 396 389 324 389 l 488 389 l 493 240 l 392 240 q 265 200 318 240 l 265 0 l 79 0 l 79 536 z "},"ศ":{"ha":908,"x_min":79,"x_max":857,"o":"m 79 465 q 166 685 79 607 q 433 764 253 764 q 565 750 500 764 l 857 750 l 847 607 l 749 607 q 777 545 768 583 q 786 465 786 507 l 786 0 l 599 0 l 599 479 q 555 583 599 547 q 433 618 511 618 q 309 583 351 618 q 267 479 267 547 l 267 344 q 397 389 325 389 l 488 389 l 493 240 l 393 240 q 267 200 319 240 l 267 0 l 79 0 l 79 465 z "},"ด":{"ha":907,"x_min":51,"x_max":821,"o":"m 365 -14 q 137 78 222 -14 q 51 360 51 171 q 151 658 51 553 q 443 764 251 764 q 656 721 571 764 q 781 607 742 678 q 821 453 821 536 l 821 0 l 633 0 l 633 440 q 590 572 633 525 q 440 618 546 618 q 229 360 229 618 q 272 185 229 238 q 399 132 314 132 q 494 143 463 132 l 494 6 q 365 -14 443 -14 z "},"ต":{"ha":915,"x_min":51,"x_max":829,"o":"m 365 -14 q 137 78 222 -14 q 51 360 51 171 q 120 660 51 556 q 311 764 189 764 q 401 746 367 764 q 460 693 436 728 q 537 744 488 725 q 638 764 586 764 q 781 706 732 764 q 829 547 829 647 l 829 0 l 642 0 l 642 518 q 628 594 642 569 q 578 618 614 618 q 532 602 551 618 q 504 554 513 586 l 414 554 q 383 603 399 589 q 340 618 368 618 q 253 552 278 618 q 229 360 229 486 q 272 185 229 238 q 399 132 314 132 q 494 143 463 132 l 494 6 q 365 -14 443 -14 z "},"ท":{"ha":858,"x_min":79,"x_max":772,"o":"m 79 750 l 251 750 l 260 676 q 377 741 311 718 q 519 764 443 764 q 705 692 638 764 q 772 493 772 619 l 772 0 l 585 0 l 585 482 q 551 585 585 553 q 450 618 518 618 q 348 596 399 618 q 267 540 297 574 l 267 0 l 79 0 l 79 750 z "},"ฑ":{"ha":850,"x_min":47,"x_max":764,"o":"m 103 274 q 122 367 103 321 q 175 472 140 413 q 211 542 200 517 q 222 589 222 568 q 200 615 222 615 q 165 600 183 615 l 165 543 l 47 543 l 47 750 l 171 750 l 171 711 q 219 740 196 731 q 278 750 242 750 q 361 710 332 750 q 440 749 394 733 q 533 764 485 764 q 708 700 651 764 q 764 507 764 636 l 764 0 l 576 0 l 576 501 q 556 591 576 564 q 485 618 536 618 q 432 608 461 618 q 386 583 403 597 q 376 522 386 551 q 343 449 365 492 q 303 356 317 394 q 290 268 290 317 l 290 0 l 103 0 l 103 274 z "},"น":{"ha":858,"x_min":79,"x_max":772,"o":"m 339 -14 q 149 60 218 -14 q 79 263 79 133 l 79 750 l 267 750 l 267 274 q 300 165 267 199 q 401 132 333 132 q 503 154 453 132 q 585 210 554 176 l 585 750 l 772 750 l 772 0 l 600 0 l 592 74 q 339 -14 483 -14 z "},"ม":{"ha":858,"x_min":79,"x_max":772,"o":"m 513 -14 q 260 74 368 -14 l 251 0 l 79 0 l 79 750 l 267 750 l 267 210 q 348 154 297 176 q 450 132 399 132 q 551 165 518 132 q 585 274 585 199 l 585 750 l 772 750 l 772 263 q 703 60 772 133 q 513 -14 633 -14 z "},"ฌ":{"ha":1335,"x_min":51,"x_max":1249,"o":"m 996 -14 q 862 8 921 -14 q 750 74 803 31 l 742 0 l 576 0 l 576 457 q 538 581 576 543 q 411 618 499 618 q 299 600 351 618 q 213 554 246 582 l 213 535 l 367 493 l 367 379 q 293 334 313 365 q 274 238 274 303 l 274 197 q 285 158 274 169 q 325 146 297 146 l 399 146 l 399 0 l 229 0 q 126 41 165 0 q 86 147 86 82 l 86 239 q 110 356 86 310 q 193 421 133 403 l 51 458 l 51 638 q 212 728 117 692 q 421 764 307 764 q 672 692 588 764 q 757 453 757 621 l 757 210 q 836 153 789 175 q 933 132 883 132 q 1031 165 1000 132 q 1061 274 1061 199 l 1061 750 l 1249 750 l 1249 263 q 1183 59 1249 132 q 996 -14 1117 -14 z "},"ณ":{"ha":1342,"x_min":51,"x_max":1256,"o":"m 829 -14 q 642 59 708 -14 q 576 263 576 132 l 576 457 q 538 581 576 543 q 411 618 499 618 q 299 600 351 618 q 213 554 246 582 l 213 535 l 367 493 l 367 379 q 293 334 313 365 q 274 238 274 303 l 274 197 q 285 158 274 169 q 325 146 297 146 l 399 146 l 399 0 l 229 0 q 126 41 165 0 q 86 147 86 82 l 86 239 q 110 356 86 310 q 193 421 133 403 l 51 458 l 51 638 q 212 728 117 692 q 421 764 307 764 q 672 692 588 764 q 757 453 757 621 l 757 274 q 790 165 757 199 q 892 132 824 132 q 989 153 942 132 q 1068 210 1036 175 l 1068 750 l 1256 750 l 1256 0 l 1083 0 l 1075 74 q 967 8 1026 29 q 829 -14 907 -14 z "},"ฒ":{"ha":1379,"x_min":51,"x_max":1293,"o":"m 365 -14 q 137 78 222 -14 q 51 360 51 171 q 116 660 51 556 q 297 764 181 764 q 388 746 353 764 q 446 693 422 728 q 521 744 475 725 q 617 764 567 764 q 756 706 711 764 q 801 547 801 649 l 801 210 q 881 153 833 175 q 978 132 928 132 q 1075 165 1044 132 q 1106 274 1106 199 l 1106 750 l 1293 750 l 1293 263 q 1227 59 1293 132 q 1040 -14 1161 -14 q 906 8 965 -14 q 794 74 847 31 l 786 0 l 621 0 l 621 518 q 610 594 621 571 q 564 618 599 618 q 518 602 538 618 q 490 554 499 586 l 400 554 q 369 603 385 589 q 326 618 354 618 q 249 553 269 618 q 229 360 229 488 q 272 185 229 238 q 399 132 314 132 q 494 143 463 132 l 494 6 q 365 -14 443 -14 z "},"ฆ":{"ha":858,"x_min":61,"x_max":772,"o":"m 513 -14 q 260 74 368 -14 l 251 0 l 79 0 l 79 267 q 106 368 79 317 q 181 486 133 419 q 222 550 208 526 q 236 589 236 574 q 214 615 236 615 q 179 600 197 615 l 179 543 l 61 543 l 61 750 l 185 750 l 185 711 q 235 740 208 731 q 297 750 261 750 q 408 636 408 750 q 390 549 408 590 q 335 449 372 508 q 283 356 300 394 q 267 278 267 318 l 267 210 q 348 154 297 176 q 450 132 399 132 q 551 165 518 132 q 585 274 585 199 l 585 750 l 772 750 l 772 263 q 703 60 772 133 q 513 -14 633 -14 z "},"ธ":{"ha":747,"x_min":51,"x_max":696,"o":"m 381 -14 q 208 3 290 -14 q 65 44 125 19 l 65 324 l 238 324 l 238 153 q 369 132 288 132 q 484 154 446 132 q 522 232 522 176 q 501 288 522 267 q 442 321 479 308 q 333 350 406 333 q 292 360 306 356 q 163 400 213 379 q 83 458 114 421 q 51 556 51 496 q 138 710 51 656 q 386 764 224 764 q 540 753 465 764 q 658 729 615 743 l 658 579 q 547 608 614 597 q 411 618 479 618 q 229 561 229 618 q 263 516 229 531 q 371 485 296 501 l 458 463 q 591 415 542 439 q 668 347 640 390 q 696 232 696 304 q 613 50 696 114 q 381 -14 529 -14 z "},"ร":{"ha":699,"x_min":51,"x_max":647,"o":"m 332 -14 q 181 -3 253 -14 q 67 26 110 8 l 67 178 q 181 144 117 157 q 297 132 244 132 q 431 147 392 132 q 469 203 469 161 q 455 246 469 229 q 413 274 440 263 q 328 306 386 286 l 268 325 q 103 410 156 364 q 51 540 51 457 q 131 703 51 643 q 364 764 211 764 q 492 754 426 764 q 601 731 558 744 l 601 581 q 499 608 558 599 q 390 618 440 618 q 272 602 315 618 q 229 544 229 586 q 258 496 229 513 q 367 454 288 479 q 431 433 392 447 q 558 376 511 406 q 626 306 604 347 q 647 203 647 265 q 565 41 647 96 q 332 -14 482 -14 z "},"จ":{"ha":778,"x_min":38,"x_max":726,"o":"m 379 -14 q 309 -8 349 -14 q 246 7 269 -1 l 140 289 l 38 289 l 46 422 l 258 422 l 368 129 q 503 190 457 129 q 549 382 549 251 q 525 524 549 474 q 447 597 501 575 q 296 618 393 618 q 176 609 239 618 q 57 582 113 600 l 57 721 q 344 764 193 764 q 635 668 544 764 q 726 382 726 572 q 679 167 726 257 q 553 32 632 78 q 379 -14 474 -14 z "},"ว":{"ha":682,"x_min":29,"x_max":644,"o":"m 268 -14 q 29 31 133 -14 l 29 174 q 224 132 124 132 q 411 187 356 132 q 467 375 467 242 q 411 563 467 508 q 224 618 356 618 q 29 576 124 618 l 29 719 q 268 764 133 764 q 551 665 457 764 q 644 375 644 567 q 551 85 644 183 q 268 -14 457 -14 z "},"ง":{"ha":732,"x_min":-4,"x_max":718,"o":"m 361 -14 q 207 7 272 -14 l -4 521 l 178 521 l 343 119 q 493 189 446 119 q 540 399 540 258 q 524 530 540 483 q 472 597 508 576 q 372 617 436 617 l 315 617 l 315 750 l 399 750 q 640 664 563 750 q 718 399 718 578 q 622 87 718 188 q 361 -14 526 -14 z "},"ฐ":{"ha":832,"x_min":38,"x_max":801,"o":"m 379 -14 q 309 -8 349 -14 q 246 7 269 -1 l 140 289 l 38 289 l 46 422 l 258 422 l 368 129 q 503 190 457 129 q 549 382 549 251 q 525 524 549 474 q 447 597 501 575 q 296 618 393 618 q 176 609 239 618 q 57 582 113 600 l 57 721 q 344 764 193 764 q 485 750 415 764 l 801 750 l 792 607 l 669 607 q 713 508 699 560 q 726 382 726 456 q 679 167 726 257 q 553 32 632 78 q 379 -14 474 -14 m 482 -290 q 325 -224 375 -290 q 199 -289 288 -289 l 74 -289 l 82 -147 l 164 -147 q 226 -133 204 -147 q 260 -86 247 -119 l 379 -86 q 408 -136 388 -119 q 465 -153 428 -153 q 542 -82 542 -153 l 542 -50 l 697 -50 l 697 -85 q 642 -236 697 -182 q 482 -290 588 -290 z "},"ฉ":{"ha":826,"x_min":51,"x_max":740,"o":"m 303 -14 q 123 52 186 -14 q 60 246 60 118 l 60 417 l 247 417 l 247 274 q 278 167 247 201 q 379 132 308 132 q 553 211 485 132 l 553 443 q 531 548 553 510 q 459 602 508 586 q 325 618 410 618 q 189 606 268 618 q 51 576 110 594 l 51 715 q 203 751 117 738 q 374 764 289 764 q 653 685 565 764 q 740 442 740 606 l 740 0 l 568 0 l 560 75 q 303 -14 454 -14 z "},"ล":{"ha":838,"x_min":56,"x_max":751,"o":"m 317 -14 q 128 43 200 -14 q 56 222 56 100 q 132 395 56 335 q 351 456 208 456 l 564 456 l 564 492 q 525 590 564 561 q 388 618 486 618 q 139 581 257 618 l 139 721 q 274 752 199 740 q 418 764 349 764 q 669 692 586 764 q 751 472 751 621 l 751 0 l 564 0 l 564 318 l 363 318 q 266 296 299 318 q 233 222 233 274 q 263 151 233 171 q 367 132 293 132 q 463 143 431 132 l 463 6 q 317 -14 400 -14 z "},"ส":{"ha":864,"x_min":56,"x_max":813,"o":"m 317 -14 q 128 43 200 -14 q 56 222 56 100 q 132 395 56 335 q 351 456 208 456 l 564 456 l 564 492 q 525 590 564 561 q 388 618 486 618 q 139 581 257 618 l 139 721 q 274 752 199 740 q 418 764 349 764 q 551 750 496 764 l 813 750 l 803 607 l 718 607 q 751 472 751 556 l 751 0 l 564 0 l 564 318 l 363 318 q 266 296 299 318 q 233 222 233 274 q 263 151 233 171 q 367 132 293 132 q 463 143 431 132 l 463 6 q 317 -14 400 -14 z "},"บ":{"ha":879,"x_min":79,"x_max":793,"o":"m 436 -14 q 173 66 267 -14 q 79 301 79 146 l 79 750 l 267 750 l 267 299 q 309 173 267 214 q 436 132 351 132 q 563 173 521 132 q 606 299 606 214 l 606 750 l 793 750 l 793 301 q 699 66 793 146 q 436 -14 606 -14 z "},"ป":{"ha":879,"x_min":79,"x_max":793,"o":"m 436 -14 q 173 66 267 -14 q 79 301 79 146 l 79 750 l 267 750 l 267 299 q 309 173 267 214 q 436 132 351 132 q 563 173 521 132 q 606 299 606 214 l 606 972 l 793 972 l 793 301 q 699 66 793 146 q 436 -14 606 -14 z "},"ษ":{"ha":889,"x_min":79,"x_max":872,"o":"m 436 -14 q 173 66 267 -14 q 79 301 79 146 l 79 750 l 267 750 l 267 299 q 309 173 267 214 q 436 132 351 132 q 563 173 521 132 q 606 299 606 214 l 606 383 l 446 383 l 446 521 l 606 521 l 606 750 l 793 750 l 793 521 l 872 521 l 860 383 l 793 383 l 793 301 q 699 66 793 146 q 436 -14 606 -14 z "},"ย":{"ha":843,"x_min":42,"x_max":757,"o":"m 401 -14 q 140 43 238 -14 q 42 228 42 100 q 65 322 42 279 q 136 390 89 364 q 69 448 94 408 q 44 542 44 488 q 112 706 44 649 q 293 764 179 764 q 422 744 371 764 l 422 607 q 326 618 382 618 q 248 600 274 618 q 222 542 222 582 q 250 479 222 497 q 339 461 278 461 l 417 461 l 424 324 l 338 324 q 219 228 219 324 q 262 156 219 179 q 393 132 304 132 q 569 278 569 132 l 569 750 l 757 750 l 757 294 q 667 61 757 136 q 401 -14 576 -14 z "},"ผ":{"ha":903,"x_min":79,"x_max":817,"o":"m 79 607 q 113 711 79 672 q 210 750 146 750 l 378 750 l 386 611 l 315 611 q 257 549 257 611 l 257 247 l 414 521 l 483 521 l 640 247 l 640 750 l 817 750 l 817 0 l 636 0 l 449 339 l 260 0 l 79 0 l 79 607 z "},"ฝ":{"ha":903,"x_min":79,"x_max":817,"o":"m 79 607 q 113 711 79 672 q 210 750 146 750 l 378 750 l 386 611 l 315 611 q 257 549 257 611 l 257 247 l 414 521 l 483 521 l 640 247 l 640 972 l 817 972 l 817 0 l 636 0 l 449 339 l 260 0 l 79 0 l 79 607 z "},"ฟ":{"ha":1007,"x_min":38,"x_max":1006,"o":"m 38 750 l 218 750 l 317 268 l 431 631 l 431 750 l 561 750 l 694 268 l 826 972 l 1006 972 l 794 0 l 632 0 l 508 429 l 375 0 l 213 0 l 38 750 z "},"พ":{"ha":1007,"x_min":38,"x_max":969,"o":"m 38 750 l 218 750 l 317 268 l 431 631 l 431 750 l 561 750 l 694 268 l 790 750 l 969 750 l 794 0 l 632 0 l 508 429 l 375 0 l 213 0 l 38 750 z "},"ห":{"ha":847,"x_min":79,"x_max":767,"o":"m 79 750 l 267 750 l 267 522 l 453 522 q 551 553 522 522 q 579 649 579 583 l 579 750 l 767 750 l 767 656 q 660 456 767 499 q 738 390 715 433 q 761 279 761 346 l 761 0 l 574 0 l 574 258 q 547 357 574 329 q 449 385 519 385 l 267 385 l 267 0 l 79 0 l 79 750 z "},"ฬ":{"ha":1007,"x_min":38,"x_max":1006,"o":"m 38 750 l 218 750 l 317 268 l 431 575 l 431 694 l 561 694 l 694 268 l 765 596 q 771 643 771 619 q 753 695 771 679 q 697 711 735 711 l 642 711 l 665 847 l 729 847 q 803 865 778 847 q 838 929 828 883 l 847 972 l 1006 972 l 992 904 q 956 817 981 847 q 885 776 931 786 q 935 671 935 747 q 928 607 935 636 l 793 0 l 632 0 l 508 388 l 375 0 l 213 0 l 38 750 z "},"อ":{"ha":797,"x_min":51,"x_max":746,"o":"m 361 -14 q 192 2 274 -14 q 51 44 111 18 l 51 439 l 369 439 l 378 301 l 229 301 l 229 150 q 292 137 254 142 q 363 132 329 132 q 483 156 439 132 q 548 231 528 179 q 568 372 568 283 q 544 521 568 468 q 465 596 519 574 q 315 618 411 618 q 61 581 182 618 l 61 721 q 203 753 122 742 q 361 764 283 764 q 653 665 560 764 q 746 372 746 567 q 653 84 746 182 q 361 -14 560 -14 z "},"ฮ":{"ha":853,"x_min":51,"x_max":801,"o":"m 361 -14 q 192 2 274 -14 q 51 44 111 18 l 51 439 l 369 439 l 378 301 l 229 301 l 229 150 q 292 137 254 142 q 363 132 329 132 q 483 156 439 132 q 548 231 528 179 q 568 372 568 283 q 544 521 568 468 q 465 596 519 574 q 315 618 411 618 q 61 581 182 618 l 61 721 q 203 753 122 742 q 361 764 283 764 q 494 750 428 764 l 801 750 l 792 607 l 688 607 q 746 372 746 521 q 653 84 746 182 q 361 -14 560 -14 z "},"า":{"ha":618,"x_min":10,"x_max":532,"o":"m 344 461 q 313 580 344 542 q 199 618 282 618 q 103 608 154 618 q 10 582 51 599 l 10 719 q 114 751 53 739 q 235 764 175 764 q 462 697 392 764 q 532 488 532 631 l 532 0 l 344 0 l 344 461 z "},"ำ":{"ha":618,"x_min":-343,"x_max":532,"o":"m -175 815 q -294 860 -246 815 q -343 975 -343 906 q -294 1090 -343 1044 q -175 1136 -246 1136 q -56 1090 -104 1136 q -8 975 -8 1044 q -56 860 -8 906 q -175 815 -104 815 m -175 914 q -132 933 -150 914 q -114 975 -114 951 q -132 1019 -114 1000 q -175 1038 -150 1038 q -219 1019 -200 1038 q -237 975 -237 1000 q -219 933 -237 951 q -175 914 -200 914 m 344 461 q 313 580 344 542 q 199 618 282 618 q 103 608 154 618 q 10 582 51 599 l 10 719 q 114 751 53 739 q 235 764 175 764 q 462 697 392 764 q 532 488 532 631 l 532 0 l 344 0 l 344 461 z "},"ๅ":{"ha":618,"x_min":10,"x_max":532,"o":"m 344 461 q 313 580 344 542 q 199 618 282 618 q 103 608 154 618 q 10 582 51 599 l 10 719 q 114 751 53 739 q 235 764 175 764 q 462 697 392 764 q 532 488 532 631 l 532 -222 l 344 -222 l 344 461 z "},"ะ":{"ha":449,"x_min":51,"x_max":403,"o":"m 51 653 l 210 653 l 210 585 l 403 585 l 397 447 l 51 447 l 51 653 m 51 281 l 210 281 l 210 213 l 403 213 l 397 75 l 51 75 l 51 281 z "},"เ":{"ha":428,"x_min":83,"x_max":375,"o":"m 247 0 q 121 37 158 0 q 83 156 83 74 l 83 750 l 271 750 l 271 204 q 328 146 271 146 l 375 146 l 375 0 l 247 0 z "},"แ":{"ha":781,"x_min":83,"x_max":731,"o":"m 247 0 q 121 37 158 0 q 83 156 83 74 l 83 750 l 271 750 l 271 204 q 328 146 271 146 l 375 146 l 375 0 l 247 0 m 603 0 q 476 37 514 0 q 439 156 439 74 l 439 750 l 626 750 l 626 204 q 683 146 626 146 l 731 146 l 731 0 l 603 0 z "},"ไ":{"ha":428,"x_min":-11,"x_max":417,"o":"m 263 0 q 136 37 174 0 q 99 156 99 74 l 99 614 q 190 818 99 754 l -11 818 l -11 964 l 417 964 l 417 828 q 317 749 347 803 q 286 606 286 696 l 286 204 q 343 146 286 146 l 390 146 l 390 0 l 263 0 z "},"ใ":{"ha":417,"x_min":-18,"x_max":407,"o":"m 224 0 q 97 37 135 0 q 60 156 60 74 l 60 456 q 86 574 60 526 q 160 675 113 622 q 199 723 188 706 q 211 758 211 740 q 192 808 211 793 q 129 822 172 822 q -18 781 54 822 l -18 915 q 82 954 24 940 q 197 968 140 968 q 353 928 300 968 q 407 808 407 888 q 388 722 407 758 q 329 635 368 686 q 268 543 289 583 q 247 449 247 503 l 247 204 q 304 146 247 146 l 351 146 l 351 0 l 224 0 z "},"โ":{"ha":435,"x_min":-11,"x_max":429,"o":"m 290 0 q 164 37 201 0 q 126 156 126 74 l 126 626 q 93 756 126 710 q -11 826 60 801 l -11 964 l 429 964 l 429 818 l 225 818 q 314 632 314 763 l 314 204 q 371 146 314 146 l 418 146 l 418 0 l 290 0 z "},"ℊ":{"ha":821,"x_min":51,"x_max":740,"o":"m 360 -244 q 267 -240 324 -244 q 182 -229 210 -235 l 182 -86 q 253 -99 210 -94 q 329 -104 297 -104 q 494 -76 436 -104 q 553 15 553 -49 l 553 50 q 364 0 478 0 q 133 73 215 0 q 51 313 51 146 q 92 509 51 428 q 203 631 132 590 q 364 672 274 672 q 476 654 431 672 q 568 597 522 636 l 579 658 l 740 658 l 740 46 q 645 -165 740 -86 q 360 -244 550 -244 m 411 138 q 490 150 456 138 q 553 188 524 163 l 553 475 q 487 520 521 506 q 408 535 453 535 q 281 479 321 535 q 242 314 242 424 q 260 205 242 243 q 314 152 278 167 q 411 138 350 138 z "},"⁄":{"ha":235,"x_min":-199,"x_max":432,"o":"m 242 919 l 432 919 l -7 0 l -199 0 l 242 919 z "},"½":{"ha":935,"x_min":51,"x_max":854,"o":"m 147 785 l 51 765 l 51 864 l 276 908 l 276 514 l 147 514 l 147 785 m 594 894 l 772 894 l 300 0 l 124 0 l 594 894 m 538 61 q 573 104 554 86 q 611 138 592 122 q 638 160 631 154 q 668 183 649 169 q 712 223 701 211 q 722 250 722 235 q 706 284 722 274 q 650 294 689 294 q 547 272 604 294 l 547 371 q 614 388 572 381 q 693 394 656 394 q 810 362 768 394 q 851 278 851 329 q 837 214 851 240 q 785 153 822 188 l 756 128 q 724 100 726 103 l 854 100 l 854 0 l 538 0 l 538 61 z "},"⅓":{"ha":950,"x_min":51,"x_max":860,"o":"m 147 785 l 51 765 l 51 864 l 276 908 l 276 514 l 147 514 l 147 785 m 594 894 l 772 894 l 300 0 l 124 0 l 594 894 m 675 -11 q 599 -6 640 -11 q 538 8 558 0 l 538 96 q 642 76 585 76 q 706 85 688 76 q 725 114 725 93 q 653 154 725 154 l 594 154 l 601 232 l 649 232 q 717 274 717 232 q 642 306 717 306 q 544 286 590 306 l 544 375 q 603 389 565 383 q 676 394 640 394 q 809 365 767 394 q 851 282 851 335 q 800 193 851 217 q 860 108 860 175 q 675 -11 860 -11 z "},"⅔":{"ha":1001,"x_min":51,"x_max":860,"o":"m 51 575 q 87 618 68 600 q 125 652 106 636 q 151 674 144 668 q 182 697 163 683 q 226 737 215 725 q 236 764 236 749 q 219 798 236 788 q 164 808 203 808 q 61 786 118 808 l 61 885 q 128 901 86 894 q 207 908 169 908 q 324 876 282 908 q 365 792 365 843 q 351 728 365 754 q 299 667 336 701 l 269 642 q 238 614 240 617 l 368 614 l 368 514 l 51 514 l 51 575 m 594 894 l 772 894 l 300 0 l 124 0 l 594 894 m 675 -11 q 599 -6 640 -11 q 538 8 558 0 l 538 96 q 642 76 585 76 q 706 85 688 76 q 725 114 725 93 q 653 154 725 154 l 594 154 l 601 232 l 649 232 q 717 274 717 232 q 642 306 717 306 q 544 286 590 306 l 544 375 q 603 389 565 383 q 676 394 640 394 q 809 365 767 394 q 851 282 851 335 q 800 193 851 217 q 860 108 860 175 q 675 -11 860 -11 z "},"¼":{"ha":913,"x_min":51,"x_max":860,"o":"m 147 785 l 51 765 l 51 864 l 276 908 l 276 514 l 147 514 l 147 785 m 594 894 l 772 894 l 300 0 l 124 0 l 594 894 m 690 69 l 497 69 l 497 154 l 686 394 l 818 394 l 818 158 l 860 158 l 860 69 l 818 69 l 818 0 l 690 0 l 690 69 m 719 160 l 719 288 l 622 160 l 719 160 z "},"¾":{"ha":943,"x_min":51,"x_max":860,"o":"m 189 503 q 113 508 154 503 q 51 522 72 514 l 51 610 q 156 590 99 590 q 220 599 201 590 q 239 628 239 607 q 167 668 239 668 l 108 668 l 115 746 l 163 746 q 231 788 231 746 q 156 819 231 819 q 58 800 104 819 l 58 889 q 117 903 79 897 q 190 908 154 908 q 323 878 281 908 q 365 796 365 849 q 314 707 365 731 q 374 622 374 689 q 189 503 374 503 m 594 894 l 772 894 l 300 0 l 124 0 l 594 894 m 690 69 l 497 69 l 497 154 l 686 394 l 818 394 l 818 158 l 860 158 l 860 69 l 818 69 l 818 0 l 690 0 l 690 69 m 719 160 l 719 288 l 622 160 l 719 160 z "},"⅛":{"ha":951,"x_min":51,"x_max":868,"o":"m 147 785 l 51 765 l 51 864 l 276 908 l 276 514 l 147 514 l 147 785 m 594 894 l 772 894 l 300 0 l 124 0 l 594 894 m 689 -14 q 559 16 608 -14 q 510 101 510 46 q 525 157 510 133 q 569 194 540 181 q 521 278 521 219 q 565 362 521 332 q 689 392 610 392 q 813 362 768 392 q 857 278 857 332 q 807 190 857 219 q 853 154 839 176 q 868 101 868 132 q 819 16 868 46 q 689 -14 769 -14 m 703 225 q 738 244 729 235 q 746 275 746 253 q 689 317 746 317 q 632 275 632 317 q 640 247 632 257 q 668 232 649 236 l 703 225 m 689 61 q 756 104 756 61 q 745 131 756 122 q 707 147 735 140 l 669 157 q 633 138 644 149 q 622 106 622 128 q 689 61 622 61 z "},"⅜":{"ha":971,"x_min":51,"x_max":868,"o":"m 189 503 q 113 508 154 503 q 51 522 72 514 l 51 610 q 156 590 99 590 q 220 599 201 590 q 239 628 239 607 q 167 668 239 668 l 108 668 l 115 746 l 163 746 q 231 788 231 746 q 156 819 231 819 q 58 800 104 819 l 58 889 q 117 903 79 897 q 190 908 154 908 q 323 878 281 908 q 365 796 365 849 q 314 707 365 731 q 374 622 374 689 q 189 503 374 503 m 594 894 l 772 894 l 300 0 l 124 0 l 594 894 m 689 -14 q 559 16 608 -14 q 510 101 510 46 q 525 157 510 133 q 569 194 540 181 q 521 278 521 219 q 565 362 521 332 q 689 392 610 392 q 813 362 768 392 q 857 278 857 332 q 807 190 857 219 q 853 154 839 176 q 868 101 868 132 q 819 16 868 46 q 689 -14 769 -14 m 703 225 q 738 244 729 235 q 746 275 746 253 q 689 317 746 317 q 632 275 632 317 q 640 247 632 257 q 668 232 649 236 l 703 225 m 689 61 q 756 104 756 61 q 745 131 756 122 q 707 147 735 140 l 669 157 q 633 138 644 149 q 622 106 622 128 q 689 61 622 61 z "},"⅝":{"ha":943,"x_min":51,"x_max":868,"o":"m 181 503 q 108 508 144 503 q 51 521 72 513 l 51 613 q 153 594 93 594 q 223 605 201 594 q 244 638 244 615 q 227 672 244 663 q 167 682 210 682 l 53 682 l 53 753 l 63 894 l 342 894 l 335 807 l 174 807 l 169 760 l 225 760 q 368 636 368 760 q 320 540 368 576 q 181 503 272 503 m 594 894 l 772 894 l 300 0 l 124 0 l 594 894 m 689 -14 q 559 16 608 -14 q 510 101 510 46 q 525 157 510 133 q 569 194 540 181 q 521 278 521 219 q 565 362 521 332 q 689 392 610 392 q 813 362 768 392 q 857 278 857 332 q 807 190 857 219 q 853 154 839 176 q 868 101 868 132 q 819 16 868 46 q 689 -14 769 -14 m 703 225 q 738 244 729 235 q 746 275 746 253 q 689 317 746 317 q 632 275 632 317 q 640 247 632 257 q 668 232 649 236 l 703 225 m 689 61 q 756 104 756 61 q 745 131 756 122 q 707 147 735 140 l 669 157 q 633 138 644 149 q 622 106 622 128 q 689 61 622 61 z "},"⅞":{"ha":954,"x_min":51,"x_max":868,"o":"m 236 797 l 51 797 l 51 894 l 378 894 l 378 817 l 247 514 l 114 514 l 236 797 m 594 894 l 772 894 l 300 0 l 124 0 l 594 894 m 689 -14 q 559 16 608 -14 q 510 101 510 46 q 525 157 510 133 q 569 194 540 181 q 521 278 521 219 q 565 362 521 332 q 689 392 610 392 q 813 362 768 392 q 857 278 857 332 q 807 190 857 219 q 853 154 839 176 q 868 101 868 132 q 819 16 868 46 q 689 -14 769 -14 m 703 225 q 738 244 729 235 q 746 275 746 253 q 689 317 746 317 q 632 275 632 317 q 640 247 632 257 q 668 232 649 236 l 703 225 m 689 61 q 756 104 756 61 q 745 131 756 122 q 707 147 735 140 l 669 157 q 633 138 644 149 q 622 106 622 128 q 689 61 622 61 z "},"₀":{"ha":500,"x_min":46,"x_max":454,"o":"m 250 -178 q 97 -126 149 -178 q 46 19 46 -74 q 250 228 46 228 q 454 19 454 228 q 403 -126 454 -75 q 250 -178 351 -178 m 250 -78 q 313 -55 294 -78 q 331 19 331 -32 q 314 103 331 79 q 250 128 297 128 q 187 103 204 128 q 169 19 169 79 q 188 -55 169 -32 q 250 -78 206 -78 z "},"₁":{"ha":300,"x_min":21,"x_max":246,"o":"m 117 104 l 21 85 l 21 183 l 246 228 l 246 -167 l 117 -167 l 117 104 z "},"₂":{"ha":421,"x_min":51,"x_max":368,"o":"m 51 -106 q 87 -62 68 -81 q 125 -28 106 -44 q 151 -7 144 -12 q 182 17 163 3 q 226 56 215 44 q 236 83 236 68 q 219 117 236 107 q 164 128 203 128 q 61 106 118 128 l 61 204 q 128 221 86 214 q 207 228 169 228 q 324 195 282 228 q 365 111 365 163 q 351 47 365 74 q 299 -14 336 21 l 269 -39 q 238 -67 240 -64 l 368 -67 l 368 -167 l 51 -167 l 51 -106 z "},"₃":{"ha":425,"x_min":51,"x_max":374,"o":"m 189 -178 q 113 -172 154 -178 q 51 -158 72 -167 l 51 -71 q 156 -90 99 -90 q 220 -82 201 -90 q 239 -53 239 -74 q 167 -12 239 -12 l 108 -12 l 115 65 l 163 65 q 231 107 231 65 q 156 139 231 139 q 58 119 104 139 l 58 208 q 117 222 79 217 q 190 228 154 228 q 323 198 281 228 q 365 115 365 168 q 314 26 365 50 q 374 -58 374 8 q 189 -178 374 -178 z "},"₄":{"ha":411,"x_min":24,"x_max":386,"o":"m 217 -97 l 24 -97 l 24 -12 l 213 228 l 344 228 l 344 -8 l 386 -8 l 386 -97 l 344 -97 l 344 -167 l 217 -167 l 217 -97 m 246 -7 l 246 121 l 149 -7 l 246 -7 z "},"₅":{"ha":421,"x_min":51,"x_max":368,"o":"m 181 -178 q 108 -173 144 -178 q 51 -160 72 -168 l 51 -68 q 153 -86 93 -86 q 223 -76 201 -86 q 244 -43 244 -65 q 227 -8 244 -18 q 167 1 210 1 l 53 1 l 53 72 l 63 214 l 342 214 l 335 126 l 174 126 l 169 79 l 225 79 q 368 -44 368 79 q 320 -141 368 -104 q 181 -178 272 -178 z "},"₆":{"ha":444,"x_min":51,"x_max":393,"o":"m 225 -178 q 97 -139 143 -178 q 51 -22 51 -100 l 51 60 q 102 183 51 138 q 242 228 153 228 q 354 213 313 228 l 354 122 q 250 138 315 138 q 183 121 207 138 q 158 78 158 104 l 158 69 q 253 99 199 99 q 360 65 328 99 q 393 -40 393 31 q 351 -142 393 -106 q 225 -178 310 -178 m 222 -93 q 268 -80 254 -93 q 282 -39 282 -67 q 269 1 282 -11 q 225 13 257 13 q 158 -11 192 13 l 158 -33 q 174 -78 158 -64 q 222 -93 189 -93 z "},"₇":{"ha":403,"x_min":38,"x_max":364,"o":"m 222 117 l 38 117 l 38 214 l 364 214 l 364 136 l 233 -167 l 100 -167 l 222 117 z "},"₈":{"ha":461,"x_min":51,"x_max":410,"o":"m 231 -178 q 101 -148 150 -178 q 51 -62 51 -118 q 67 -7 51 -31 q 111 31 82 17 q 63 114 63 56 q 107 198 63 168 q 231 228 151 228 q 354 198 310 228 q 399 114 399 168 q 349 26 399 56 q 395 -10 381 13 q 410 -62 410 -32 q 360 -148 410 -118 q 231 -178 311 -178 m 244 61 q 279 80 271 71 q 288 111 288 89 q 231 153 288 153 q 174 111 174 153 q 182 83 174 93 q 210 68 190 72 l 244 61 m 231 -103 q 297 -60 297 -103 q 287 -33 297 -42 q 249 -17 276 -24 l 211 -7 q 175 -26 186 -15 q 164 -58 164 -36 q 231 -103 164 -103 z "},"₉":{"ha":444,"x_min":51,"x_max":393,"o":"m 203 -178 q 90 -162 132 -178 l 90 -72 q 194 -87 129 -87 q 262 -71 238 -87 q 286 -28 286 -54 l 286 -19 q 199 -49 247 -49 q 87 -15 122 -49 q 51 90 51 19 q 93 192 51 156 q 219 228 135 228 q 393 72 393 228 l 393 -10 q 342 -133 393 -87 q 203 -178 292 -178 m 219 38 q 286 61 253 38 l 286 83 q 271 128 286 114 q 222 143 256 143 q 176 130 190 143 q 163 89 163 117 q 175 49 163 61 q 219 38 188 38 z "},"⁰":{"ha":500,"x_min":46,"x_max":454,"o":"m 250 503 q 97 555 149 503 q 46 700 46 607 q 250 908 46 908 q 454 700 454 908 q 403 554 454 606 q 250 503 351 503 m 250 603 q 313 626 294 603 q 331 700 331 649 q 314 784 331 760 q 250 808 297 808 q 187 784 204 808 q 169 700 169 760 q 188 626 169 649 q 250 603 206 603 z "},"¹":{"ha":269,"x_min":21,"x_max":246,"o":"m 117 785 l 21 765 l 21 864 l 246 908 l 246 514 l 117 514 l 117 785 z "}}}
